<svg width="28" height="28" viewBox="0 0 28 28" fill="none" xmlns="http://www.w3.org/2000/svg">
<path d="M8.43884 21.6746C9.64986 21.6746 10.6316 20.6928 10.6316 19.4818C10.6316 18.2708 9.64986 17.2891 8.43884 17.2891C7.22782 17.2891 6.24609 18.2708 6.24609 19.4818C6.24609 20.6928 7.22782 21.6746 8.43884 21.6746Z" stroke="black" stroke-opacity="0.7" stroke-width="2" stroke-linecap="round" stroke-linejoin="round"/>
<path d="M19.4027 21.6746C20.6137 21.6746 21.5955 20.6928 21.5955 19.4818C21.5955 18.2708 20.6137 17.2891 19.4027 17.2891C18.1917 17.2891 17.21 18.2708 17.21 19.4818C17.21 20.6928 18.1917 21.6746 19.4027 21.6746Z" stroke="black" stroke-opacity="0.7" stroke-width="2" stroke-linecap="round" stroke-linejoin="round"/>
<path d="M6.24615 19.4819H4.05341V15.0964M2.95703 6.32544H15.0172V19.4819M10.6317 19.4819H17.2099M21.5954 19.4819H23.7881V12.9037H15.0172M15.0172 7.42181H20.499L23.7881 12.9037" stroke="black" stroke-opacity="0.7" stroke-width="2" stroke-linecap="round" stroke-linejoin="round"/>
<path d="M4.05322 10.7109H8.43872" stroke="black" stroke-opacity="0.7" stroke-width="2" stroke-linecap="round" stroke-linejoin="round"/>
</svg>
