<svg width="27" height="22" viewBox="0 0 27 22" fill="none" xmlns="http://www.w3.org/2000/svg">
<path d="M13.1067 19.1946C14.1124 19.1946 14.9277 18.3793 14.9277 17.3735C14.9277 16.3678 14.1124 15.5525 13.1067 15.5525C12.101 15.5525 11.2856 16.3678 11.2856 17.3735C11.2856 18.3793 12.101 19.1946 13.1067 19.1946Z" stroke="black" stroke-opacity="0.68" stroke-width="2" stroke-linecap="round" stroke-linejoin="round"/>
<path d="M20.3904 19.1946C21.3961 19.1946 22.2114 18.3793 22.2114 17.3735C22.2114 16.3678 21.3961 15.5525 20.3904 15.5525C19.3846 15.5525 18.5693 16.3678 18.5693 17.3735C18.5693 18.3793 19.3846 19.1946 20.3904 19.1946Z" stroke="black" stroke-opacity="0.68" stroke-width="2" stroke-linecap="round" stroke-linejoin="round"/>
<path d="M7.64307 2.80518H9.46411L11.2852 13.7314C11.4816 14.29 11.8542 14.7697 12.3468 15.0981C12.8395 15.4266 13.4256 15.586 14.0167 15.5525H20.3904C20.9815 15.586 21.5676 15.4266 22.0603 15.0981C22.5529 14.7697 22.9255 14.29 23.1219 13.7314L24.0325 7.35779H10.1925" stroke="black" stroke-opacity="0.68" stroke-width="2" stroke-linecap="round" stroke-linejoin="round"/>
</svg>
