<svg width="90" height="72" viewBox="0 0 90 72" fill="none" xmlns="http://www.w3.org/2000/svg">
<g clip-path="url(#clip0_1_337)">
<path d="M47.7605 4.03931L86.2029 14.8025L47.7605 25.6456L10.4929 14.8416L47.7605 4.03931Z" stroke="#457EFF" stroke-width="6.23493" stroke-linecap="round" stroke-linejoin="round"/>
<path d="M10.5523 14.8665C8.99323 15.1962 7.58736 16.0241 6.55198 17.2223C5.51655 18.4205 4.90922 19.9223 4.82384 21.4957C4.73843 23.0691 5.1797 24.6265 6.07944 25.9273C6.97918 27.2281 8.28737 28.1999 9.80186 28.6925L47.7623 39.635L86.203 28.792" stroke="#457EFF" stroke-width="6.23493" stroke-linecap="round" stroke-linejoin="round"/>
<path d="M10.5522 28.9692C8.99373 29.2995 7.58862 30.1275 6.55384 31.3256C5.51901 32.5236 4.9121 34.0249 4.82668 35.5978C4.7413 37.1706 5.18224 38.7275 6.08138 40.0281C6.98053 41.3286 8.28791 42.3005 9.80168 42.7935L47.7621 53.7376L86.2028 42.8945" stroke="#457EFF" stroke-width="6.23493" stroke-linecap="round" stroke-linejoin="round"/>
<path d="M10.5522 43.2256C8.99373 43.5555 7.58862 44.3837 6.55384 45.5817C5.51901 46.7796 4.9121 48.281 4.82668 49.8541C4.7413 51.4268 5.18224 52.9835 6.08138 54.2841C6.98053 55.5848 8.28791 56.5568 9.80168 57.0497L47.7621 67.9922L86.2028 57.1507" stroke="#457EFF" stroke-width="6.23493" stroke-linecap="round" stroke-linejoin="round"/>
</g>
<defs>
<clipPath id="clip0_1_337">
<rect width="89.0704" height="71.2563" fill="white" transform="translate(0.571777 0.570312)"/>
</clipPath>
</defs>
</svg>
