<svg width="65" height="66" viewBox="0 0 65 66" fill="none" xmlns="http://www.w3.org/2000/svg">
<rect x="7.03894" y="7.95691" width="50.1485" height="50.1485" rx="10.5" stroke="#457EFF" stroke-width="3"/>
<path d="M20.3187 21.5824C21.1471 21.5824 21.8187 20.9108 21.8187 20.0824C21.8187 19.254 21.1471 18.5824 20.3187 18.5824L20.3187 21.5824ZM5.53895 21.5825L20.3187 21.5824L20.3187 18.5824L5.53893 18.5825L5.53895 21.5825Z" fill="#457EFF"/>
<path d="M42.1237 20.0825L56.9034 20.0824" stroke="#457EFF" stroke-width="3" stroke-linecap="round"/>
<path fill-rule="evenodd" clip-rule="evenodd" d="M26.2809 18.3839C25.9021 20.4661 23.743 32.1954 23.2994 34.5872C22.8558 36.979 24.757 39.1228 26.6236 39.1228C28.4902 39.1228 28.737 39.1228 29.5031 39.1228C30.2693 39.1228 31.4099 39.6812 30.9805 41.7148C30.5512 43.7484 30.1072 45.8404 29.6708 47.8163C29.2344 49.7923 31.4215 50.589 32.3698 49.0485C33.3181 47.5081 40.3983 35.7507 41.2131 34.1695C42.0279 32.5883 40.6933 30.1431 38.6845 30.1431C36.6757 30.1431 35.8445 30.1431 34.7908 30.1431C33.7371 30.1431 33.5892 29.3626 33.9717 27.7547C34.3541 26.1469 34.8139 24.0436 35.5249 20.9613C36.236 17.879 33.3708 16.2047 31.8611 16.2047C30.3513 16.2047 28.7281 16.2047 28.2806 16.2047C27.833 16.2047 26.6597 16.3016 26.2809 18.3839Z" fill="#457EFF"/>
</svg>
