<svg width="21" height="20" viewBox="0 0 21 20" fill="none" xmlns="http://www.w3.org/2000/svg">
<path fill-rule="evenodd" clip-rule="evenodd" d="M10.3569 1.00879C10.6578 0.774738 11.0792 0.774738 11.3801 1.00879L18.8801 6.84213C19.0831 7 19.2018 7.24276 19.2018 7.49992V16.6666C19.2018 17.3297 18.9384 17.9655 18.4696 18.4343C18.0007 18.9032 17.3649 19.1666 16.7018 19.1666H5.03516C4.37211 19.1666 3.73623 18.9032 3.26739 18.4343C2.79855 17.9655 2.53516 17.3297 2.53516 16.6666V7.49992C2.53516 7.24276 2.65388 7 2.85687 6.84213L10.3569 1.00879ZM4.20182 7.90749V16.6666C4.20182 16.8876 4.28962 17.0996 4.4459 17.2558C4.60218 17.4121 4.81414 17.4999 5.03516 17.4999H16.7018C16.9228 17.4999 17.1348 17.4121 17.2911 17.2558C17.4473 17.0996 17.5352 16.8876 17.5352 16.6666V7.90749L10.8685 2.7223L4.20182 7.90749Z" fill="#3BB77E"/>
<path fill-rule="evenodd" clip-rule="evenodd" d="M7.53516 10.0001C7.53516 9.53983 7.90826 9.16675 8.36849 9.16675H13.3685C13.8287 9.16675 14.2018 9.53983 14.2018 10.0001V18.3334C14.2018 18.7937 13.8287 19.1667 13.3685 19.1667C12.9082 19.1667 12.5352 18.7937 12.5352 18.3334V10.8334H9.20182V18.3334C9.20182 18.7937 8.82872 19.1667 8.36849 19.1667C7.90826 19.1667 7.53516 18.7937 7.53516 18.3334V10.0001Z" fill="#3BB77E"/>
</svg>
