<svg width="154" height="572" viewBox="0 0 154 572" fill="none" xmlns="http://www.w3.org/2000/svg">
<g clip-path="url(#clip0_1_424)">
<path d="M18.3256 -35.0027H0V92.5592H18.3256V-35.0027Z" fill="#A3C516"/>
<path d="M54.7225 -35.0027H36.3969V92.5592H54.7225V-35.0027Z" fill="#45B175"/>
<path d="M91.119 -35.0027H72.7933V92.5592H91.119V-35.0027Z" fill="#A3C516"/>
<path d="M127.516 -35.0027H109.19V92.5592H127.516V-35.0027Z" fill="#45B175"/>
<path d="M169.766 -35.0027H127.261V7.51795H169.766V-35.0027Z" fill="#23454F"/>
<path d="M169.766 50.0386H127.261V92.5592H169.766V50.0386Z" fill="#23454F"/>
<path fill-rule="evenodd" clip-rule="evenodd" d="M28.5065 191.35C25.4522 188.549 22.907 185.239 20.6163 181.165C18.3256 177.346 16.544 173.018 15.2713 168.689C13.9987 164.361 13.4897 159.778 13.4897 155.195C13.4897 146.283 15.7804 137.881 20.1073 130.497C24.4342 122.858 30.5427 117.002 37.9239 112.674C45.5595 108.345 53.7042 106.054 62.867 106.054C76.8658 106.054 88.5738 111.146 98.5002 121.331L127.261 92.5593H0.254538L0 220.121L28.5065 191.35Z" fill="#A3C516"/>
<path fill-rule="evenodd" clip-rule="evenodd" d="M98.7549 121.84L29.5248 191.095C34.1062 195.424 39.4512 198.988 45.3052 201.28C51.1592 203.571 57.2677 204.844 63.8853 204.844C72.7936 204.844 80.9383 202.553 88.3194 198.224C95.7006 193.896 101.809 187.785 106.136 180.401C110.463 173.018 112.754 164.87 112.754 155.958C112.754 149.338 111.481 143.228 109.19 137.372C106.645 131.515 103.082 126.423 98.7549 121.84Z" fill="#23454F"/>
<path d="M254.777 201.789H127.261V220.121H254.777V201.789Z" fill="#45B175"/>
<path d="M254.777 165.379H127.261V183.711H254.777V165.379Z" fill="#A3C516"/>
<path d="M254.777 128.969H127.261V147.301H254.777V128.969Z" fill="#45B175"/>
<path d="M254.777 92.5593H127.261V110.892H254.777V92.5593Z" fill="#A3C516"/>
<path fill-rule="evenodd" clip-rule="evenodd" d="M28.5067 574.605C25.4525 571.804 22.9072 568.494 20.6165 564.42C18.3258 560.601 16.5442 556.273 15.2716 551.944C13.999 547.616 13.4899 543.033 13.4899 538.45C13.4899 529.538 15.7806 521.136 20.1075 513.752C24.4344 506.114 30.5429 500.258 37.9241 495.929C45.5598 491.601 53.7045 489.309 62.8673 489.309C76.866 489.309 88.574 494.401 98.5004 504.586L127.261 475.815H0.254753L0.000234604 603.376L28.5067 574.605Z" fill="#23454F"/>
<path fill-rule="evenodd" clip-rule="evenodd" d="M98.7548 505.095L29.5246 574.35C34.106 578.679 39.451 582.243 45.305 584.535C50.9045 587.081 57.2676 588.1 63.6306 588.1C72.5389 588.1 80.6837 585.808 88.0648 581.48C95.446 577.151 101.554 571.04 105.881 563.657C110.208 556.273 112.499 548.125 112.499 539.214C112.499 532.594 111.226 526.483 108.936 520.627C106.645 514.771 103.082 509.678 98.7548 505.095Z" fill="#A3C516"/>
<path d="M127.261 603.376H169.766V560.856H127.261V603.376Z" fill="#45B175"/>
<path d="M127.261 518.335H169.766V475.814H127.261V518.335Z" fill="#45B175"/>
<path d="M127.261 475.815H145.587V348.253H127.261V475.815Z" fill="#45B175"/>
<path d="M85.0107 475.815H127.516V433.294H85.0107V475.815Z" fill="#23454F"/>
<path d="M8.01086e-05 475.815H42.5054V433.294H8.01086e-05V475.815Z" fill="#23454F"/>
<path d="M42.5052 433.294H85.0105V390.773H42.5052V433.294Z" fill="#45B175"/>
<path d="M85.0107 390.773H127.516V348.253H85.0107V390.773Z" fill="#23454F"/>
<path d="M8.01086e-05 390.773H42.5054V348.253H8.01086e-05V390.773Z" fill="#23454F"/>
<path fill-rule="evenodd" clip-rule="evenodd" d="M226.271 249.462C229.325 252.263 231.87 255.573 234.161 259.647C236.451 263.466 238.233 267.794 239.506 272.123C240.778 276.451 241.287 281.034 241.287 285.617C241.287 294.529 238.997 302.931 234.67 310.315C230.343 317.954 224.234 323.81 216.853 328.138C209.218 332.467 201.073 334.758 191.91 334.758C177.911 334.758 166.203 329.666 156.277 319.481L127.516 348.253H254.523L254.777 220.691L226.271 249.462Z" fill="#A3C516"/>
<path fill-rule="evenodd" clip-rule="evenodd" d="M156.022 318.972L225.252 249.717C220.671 245.388 215.326 241.824 209.472 239.532C203.618 237.241 197.509 235.968 190.892 235.968C181.983 235.968 173.839 238.259 166.458 242.588C159.077 246.916 152.968 253.027 148.641 260.411C144.314 267.794 142.023 275.942 142.023 284.854C142.023 291.474 143.296 297.584 145.587 303.44C148.132 309.297 151.695 314.389 156.022 318.972Z" fill="#23454F"/>
<path d="M0.000289917 239.023H127.516V220.691H0.000289917V239.023Z" fill="#45B175"/>
<path d="M0.000289917 275.433H127.516V257.101H0.000289917V275.433Z" fill="#A3C516"/>
<path d="M0.000289917 311.843H127.516V293.511H0.000289917V311.843Z" fill="#45B175"/>
<path d="M0.000289917 348.253H127.516V329.92H0.000289917V348.253Z" fill="#A3C516"/>
</g>
<defs>
<clipPath id="clip0_1_424">
<rect width="255" height="572" fill="white"/>
</clipPath>
</defs>
</svg>
