<svg width="188" height="82" viewBox="0 0 188 82" fill="none" xmlns="http://www.w3.org/2000/svg">
<g clip-path="url(#clip0_1_401)">
<path fill-rule="evenodd" clip-rule="evenodd" d="M0.464452 44.9677L1.54847 46.1347L8.13002 41.5446C9.3689 40.6888 10.2206 39.5218 10.5304 37.9658L18.1185 6.53507C18.1959 6.30167 18.1185 6.14607 17.9636 5.99047C17.8088 5.83488 17.5765 5.83488 17.4216 5.91267L14.0147 7.54645L0.0773023 43.3339C-0.154988 43.9563 -0.000127691 44.5787 0.464452 44.9677Z" fill="#A3C516"/>
<path fill-rule="evenodd" clip-rule="evenodd" d="M48.0841 35.7874L40.2637 3.81206L33.7596 0.622309C32.0561 -0.233478 30.1978 -0.233478 28.4943 0.622309L21.9902 3.81206L14.1698 35.7874C13.9375 36.721 14.1698 37.6546 14.7118 38.4326C15.3312 39.2105 16.1055 39.5995 17.1121 39.5995H45.0643C45.9935 39.5995 46.8452 39.2105 47.4647 38.4326C48.0841 37.6546 48.3164 36.721 48.0841 35.7874Z" fill="#23454F"/>
<path fill-rule="evenodd" clip-rule="evenodd" d="M48.1615 7.62409L44.7546 5.99031C44.5997 5.91251 44.3674 5.91251 44.2126 6.06811C44.0577 6.22371 43.9803 6.37931 44.0577 6.6127L51.6459 38.0434C52.033 39.5216 52.8073 40.6886 54.0462 41.6222L60.6277 46.2123L61.7118 45.1231C62.1763 44.6563 62.2538 44.034 62.0215 43.4894L48.1615 7.62409Z" fill="#A3C516"/>
<path fill-rule="evenodd" clip-rule="evenodd" d="M50.4069 42.6338H11.8468L4.25862 47.9241C4.10376 48.0019 4.02633 48.1575 4.02633 48.3131C4.02633 48.4687 4.02633 48.6243 4.18119 48.7021L27.4102 72.0418C27.565 72.1974 27.565 72.4308 27.4876 72.5864C27.4102 72.742 27.2553 72.8976 27.023 72.8976C23.5387 73.0531 20.1318 73.4421 16.8023 74.0645C12.079 74.9203 7.43325 76.1651 2.94231 77.7989C1.85829 78.1879 1.23885 79.4327 1.70343 80.5218C2.09058 81.611 3.32946 82.2334 4.41348 81.7666C8.5947 80.2106 13.0082 79.0437 17.4991 78.1879C21.9127 77.4099 26.4036 77.0209 31.0494 77.0209C35.6952 77.0209 40.1861 77.4099 44.5996 78.1879C49.0906 78.9659 53.5041 80.2106 57.6853 81.7666C58.7693 82.1556 60.0082 81.611 60.3954 80.5218C60.7825 79.4327 60.2405 78.1879 59.1565 77.7989C54.743 76.1651 50.0972 74.9203 45.2965 74.0645C41.967 73.4421 38.5601 73.0531 35.0758 72.8976C34.8435 72.8976 34.6886 72.742 34.6112 72.5864C34.5337 72.4308 34.6112 72.1974 34.6886 72.0418L57.9176 48.7021C57.995 48.6243 58.0725 48.4687 58.0725 48.3131C58.0725 48.1575 57.995 48.0019 57.8402 47.9241L50.4069 42.6338Z" fill="#45B175"/>
<path fill-rule="evenodd" clip-rule="evenodd" d="M155.867 17.5824V52.7474H170.501C170.501 52.7474 170.501 52.7474 170.578 52.7474C180.257 52.7474 188.077 44.8898 188 35.1649C188 25.44 180.18 17.6602 170.578 17.6602C170.578 17.6602 170.578 17.6602 170.501 17.6602L155.867 17.5824ZM87.4959 17.5824H77.7397V52.7474H87.1862V34.3869L99.1104 52.6696H108.789V17.5824H99.3427V35.8651L87.4959 17.5824ZM140.303 31.1972H132.715V40.6886H139.219C137.593 42.7114 135.115 44.034 132.328 44.034C127.45 44.034 123.501 40.0662 123.501 35.2427C123.501 30.3414 127.45 26.3736 132.25 26.3736C134.883 26.3736 137.438 27.5406 139.064 29.6412L145.723 22.9505C142.239 19.1383 137.361 16.96 132.173 16.96C122.107 16.96 113.977 25.2066 113.977 35.3205C113.977 45.4343 122.185 53.6032 132.25 53.6032C139.993 53.6032 146.962 48.6241 149.44 41.2332C150.059 39.2882 150.446 37.2655 150.446 35.2427C150.446 33.9201 150.292 32.5975 149.982 31.275H140.303V31.1972ZM165.313 43.256V26.996H170.578C175.069 26.996 178.631 30.6526 178.631 35.0871C178.631 39.5994 175.069 43.1782 170.578 43.1782H165.313V43.256Z" fill="#23454F"/>
<path fill-rule="evenodd" clip-rule="evenodd" d="M155.79 60.994C155.79 61.2274 156.099 61.383 156.641 61.5386C156.874 61.6164 157.028 61.6164 157.183 61.6942C157.338 61.772 157.493 61.8498 157.725 61.9276C157.88 62.0054 158.035 62.161 158.112 62.3944C158.19 62.55 158.267 62.7834 158.267 63.0168C158.267 63.4836 158.112 63.8726 157.725 64.1838C157.338 64.4172 156.874 64.5728 156.332 64.5728C155.325 64.5728 154.628 64.1838 154.318 63.4058L155.402 62.7834C155.557 63.1724 155.867 63.4058 156.332 63.4058C156.796 63.4058 157.028 63.2502 157.028 63.0168C157.028 62.7834 156.719 62.6278 156.177 62.4722C155.944 62.3944 155.79 62.3166 155.635 62.3166C155.48 62.2388 155.325 62.161 155.093 62.0832C154.938 62.0054 154.783 61.8498 154.705 61.6164C154.628 61.4608 154.551 61.2274 154.551 60.994C154.551 60.5272 154.705 60.1382 155.093 59.827C155.48 59.5159 155.867 59.4381 156.409 59.4381C156.796 59.4381 157.183 59.5158 157.493 59.6714C157.803 59.827 158.035 60.1382 158.267 60.4494L157.183 61.0718C157.028 60.7606 156.796 60.605 156.409 60.605C156.254 60.605 156.099 60.605 156.022 60.6828C155.867 60.7606 155.79 60.8384 155.79 60.994ZM183.277 60.994C183.277 61.2274 183.587 61.383 184.129 61.5386C184.361 61.6164 184.516 61.6164 184.671 61.6942C184.826 61.772 184.981 61.8498 185.213 61.9276C185.368 62.0054 185.523 62.161 185.6 62.3944C185.677 62.55 185.755 62.7834 185.755 63.0168C185.755 63.4836 185.6 63.8726 185.213 64.1838C184.826 64.4172 184.361 64.5728 183.819 64.5728C182.813 64.5728 182.116 64.1838 181.806 63.4058L182.89 62.7834C183.045 63.1724 183.355 63.4058 183.819 63.4058C184.284 63.4058 184.516 63.2502 184.516 63.0168C184.516 62.7834 184.206 62.6278 183.664 62.4722C183.432 62.3944 183.277 62.3166 183.122 62.3166C182.967 62.2388 182.813 62.161 182.58 62.0832C182.425 62.0054 182.271 61.8498 182.193 61.6164C182.116 61.4608 182.038 61.2274 182.038 60.994C182.038 60.5272 182.193 60.1382 182.58 59.827C182.967 59.5159 183.355 59.4381 183.897 59.4381C184.284 59.4381 184.671 59.5158 184.981 59.6714C185.29 59.827 185.523 60.1382 185.755 60.4494L184.671 61.0718C184.516 60.7606 184.284 60.605 183.897 60.605C183.742 60.605 183.587 60.605 183.509 60.6828C183.277 60.7606 183.277 60.8384 183.277 60.994ZM86.5671 64.6506C85.0959 64.6506 84.0119 63.4836 84.0119 62.0054C84.0119 60.5272 85.1734 59.4381 86.5671 59.4381C87.0317 59.4381 87.4963 59.5937 87.8834 59.827V59.5936H89.1223V64.495H87.8834V64.2616C87.4963 64.495 87.1091 64.6506 86.5671 64.6506ZM86.5671 60.6828C85.7928 60.6828 85.2508 61.3052 85.2508 62.0054C85.2508 62.7834 85.8702 63.328 86.5671 63.328C87.3414 63.328 87.8834 62.7056 87.8834 62.0054C87.9608 61.3052 87.3414 60.6828 86.5671 60.6828ZM97.4847 64.6506C96.0136 64.6506 94.9295 63.4836 94.9295 62.0054C94.9295 60.5272 96.091 59.4381 97.4847 59.4381C97.9493 59.4381 98.4139 59.5937 98.801 59.827V59.5936H100.04V64.495H98.801V64.2616C98.4139 64.495 98.0267 64.6506 97.4847 64.6506ZM97.4847 60.6828C96.7104 60.6828 96.1684 61.3052 96.1684 62.0054C96.1684 62.7834 96.7879 63.328 97.4847 63.328C98.259 63.328 98.801 62.7056 98.801 62.0054C98.801 61.3052 98.259 60.6828 97.4847 60.6828ZM116.842 64.6506C115.371 64.6506 114.287 63.4836 114.287 62.0054C114.287 60.5272 115.448 59.4381 116.842 59.4381C117.307 59.4381 117.771 59.5937 118.159 59.827V59.5936H119.397V64.495H118.159V64.2616C117.849 64.495 117.384 64.6506 116.842 64.6506ZM116.842 60.6828C116.068 60.6828 115.526 61.3052 115.526 62.0054C115.526 62.7834 116.145 63.328 116.842 63.328C117.617 63.328 118.159 62.7056 118.159 62.0054C118.236 61.3052 117.617 60.6828 116.842 60.6828ZM81.7664 61.772V57.6487H83.0827V64.495H81.9987L79.1338 60.3716V64.495H77.8175V57.6487H78.9015L81.7664 61.772ZM108.867 59.9048L110.028 59.2047C109.409 58.1155 108.247 57.4153 107.009 57.4153C105.073 57.4153 103.447 58.9713 103.447 60.994C103.447 62.939 104.995 64.5728 107.009 64.5728C109.022 64.5728 110.57 62.939 110.57 60.994C110.57 60.9162 110.57 60.8384 110.57 60.7606C109.409 60.7606 108.247 60.7606 107.086 60.7606V62.0832H109.022C108.635 62.7834 107.938 63.1724 107.086 63.1724C105.847 63.1724 104.918 62.161 104.918 60.994C104.918 59.7492 105.925 58.8157 107.086 58.8157C107.783 58.8157 108.48 59.2825 108.867 59.9048ZM111.267 59.5936H112.506V60.3716C112.816 59.827 113.358 59.5159 113.977 59.5159V60.9162H113.668C113.358 60.9162 113.126 60.994 112.893 61.2274C112.661 61.4608 112.429 61.772 112.429 62.161V62.4722V64.5728H111.19V59.5936H111.267ZM90.2837 59.5936H91.5226V64.495H90.2837V59.5936ZM123.191 64.6506C124.663 64.6506 125.824 63.4836 125.824 62.0054C125.824 60.5272 124.663 59.4381 123.191 59.4381C122.727 59.4381 122.262 59.5937 121.875 59.827V59.5936H120.636V66.44H121.875V64.2616C122.262 64.495 122.727 64.6506 123.191 64.6506ZM123.191 60.6828C123.966 60.6828 124.508 61.3052 124.508 62.0054C124.508 62.7834 123.888 63.328 123.191 63.328C122.417 63.328 121.875 62.7056 121.875 62.0054C121.875 61.3052 122.417 60.6828 123.191 60.6828ZM94.0004 64.2616C94.0004 65.4286 93.0712 66.3622 91.9098 66.3622V65.1174C92.3743 65.1174 92.7615 64.7284 92.7615 64.2616V59.5936H94.0004V64.2616V64.2616ZM178.786 59.5936H180.025V60.3716C180.335 59.827 180.877 59.5159 181.496 59.5159V60.9162H181.187C180.877 60.9162 180.645 60.994 180.412 61.2274C180.18 61.4608 179.948 61.772 179.948 62.161V62.4722V64.5728H178.709V59.5936H178.786ZM127.295 64.4172H127.915V61.6164C127.915 61.0718 128.379 60.605 128.921 60.605C129.463 60.605 129.928 61.0718 129.928 61.6164V64.4172H131.167V61.3052C131.167 60.216 130.315 59.3603 129.231 59.3603C128.689 59.3603 128.224 59.5936 127.915 59.9048V57.5709H126.676V64.4172H127.295ZM168.178 64.4172H168.798V61.6164C168.798 61.0718 169.262 60.605 169.804 60.605C170.346 60.605 170.811 61.0718 170.811 61.6164V64.4172H172.05V61.3052C172.05 60.216 171.198 59.3603 170.114 59.3603C169.572 59.3603 169.107 59.5936 168.798 59.9048V59.5159H167.559V64.4172H168.178ZM132.251 59.5936H133.49V64.495H132.251V59.5936ZM159.119 59.5936H160.358V64.495H159.119V59.5936ZM159.738 57.6487C159.351 57.6487 158.964 57.9599 158.964 58.4267C158.964 58.8157 159.274 59.2047 159.738 59.2047C160.126 59.2047 160.513 58.8935 160.513 58.4267C160.513 57.9599 160.126 57.6487 159.738 57.6487ZM132.87 57.6487C132.483 57.6487 132.096 57.9599 132.096 58.4267C132.096 58.8157 132.406 59.2047 132.87 59.2047C133.335 59.2047 133.645 58.8935 133.645 58.4267C133.645 57.9599 133.335 57.6487 132.87 57.6487ZM90.9032 57.6487C90.516 57.6487 90.1289 57.9599 90.1289 58.4267C90.1289 58.8157 90.4386 59.2047 90.9032 59.2047C91.3678 59.2047 91.6775 58.8935 91.6775 58.4267C91.6775 57.9599 91.3678 57.6487 90.9032 57.6487ZM93.3809 57.6487C92.9938 57.6487 92.6066 57.9599 92.6066 58.4267C92.6066 58.8157 92.9164 59.2047 93.3809 59.2047C93.7681 59.2047 94.1552 58.8935 94.1552 58.4267C94.1552 57.9599 93.8455 57.6487 93.3809 57.6487ZM162.526 62.0054C162.526 61.2274 163.145 60.6828 163.842 60.6828C164.617 60.6828 165.159 61.3052 165.159 62.0054C165.159 62.2388 165.081 62.4722 165.004 62.7056C164.771 63.0946 164.307 63.328 163.842 63.328C163.378 63.328 162.913 63.0946 162.681 62.7056C162.526 62.4722 162.526 62.2388 162.526 62.0054ZM163.842 65.9732C163.223 65.9732 162.681 65.5842 162.526 64.9618H161.287C161.442 66.2066 162.526 67.2179 163.842 67.2179C164.771 67.2179 165.623 66.7511 166.088 65.9732C166.32 65.5842 166.475 65.1174 166.475 64.6506V59.6714H165.236V59.9048C164.849 59.6714 164.384 59.5159 163.92 59.5159C162.448 59.5159 161.287 60.6828 161.287 62.0832C161.287 62.6278 161.442 63.1724 161.752 63.6392C161.984 63.9504 162.294 64.2616 162.681 64.495C162.991 64.6506 163.378 64.7284 163.842 64.7284C164.229 64.7284 164.617 64.6506 165.004 64.495C165.081 64.495 165.159 64.4172 165.236 64.4172V64.5728C165.159 65.3508 164.539 65.9732 163.842 65.9732ZM153.776 60.7606C153.312 59.9048 152.46 59.3603 151.453 59.3603C150.06 59.3603 148.898 60.5272 148.898 61.9276C148.898 62.3944 149.053 62.7834 149.208 63.1724C149.673 63.9504 150.524 64.5728 151.453 64.5728C152.383 64.5728 153.234 64.0282 153.699 63.2502L152.615 62.6278C152.383 63.0168 151.918 63.328 151.453 63.328C151.066 63.328 150.679 63.1724 150.447 62.8612L152.228 62.3944L152.77 62.2388L154.086 61.9276C154.086 61.5386 154.009 61.1496 153.776 60.7606ZM150.215 61.6942C150.369 61.0718 150.911 60.6828 151.531 60.6828C151.918 60.6828 152.305 60.8384 152.537 61.1496L150.215 61.6942ZM177.78 60.7606C177.315 59.9048 176.463 59.3603 175.457 59.3603C173.986 59.3603 172.824 60.5272 172.824 61.9276C172.824 62.3944 172.979 62.7834 173.134 63.1724C173.598 63.9504 174.45 64.5728 175.379 64.5728C176.308 64.5728 177.16 64.0282 177.625 63.2502L176.541 62.6278C176.308 63.0168 175.844 63.328 175.379 63.328C174.992 63.328 174.605 63.1724 174.373 62.8612L176.154 62.3944L176.696 62.2388L178.012 61.9276C178.089 61.5386 178.012 61.1496 177.78 60.7606ZM174.218 61.6942C174.373 61.0718 174.915 60.6828 175.534 60.6828C175.921 60.6828 176.308 60.8384 176.541 61.1496L174.218 61.6942ZM136.974 59.4381C137.903 59.4381 138.755 59.9826 139.219 60.7606L138.135 61.383C137.903 60.994 137.439 60.6828 136.974 60.6828C136.2 60.6828 135.658 61.3052 135.658 62.0054C135.658 62.7834 136.277 63.328 136.974 63.328C137.439 63.328 137.903 63.0946 138.135 62.6278L139.219 63.2502C138.755 64.0282 137.903 64.5728 136.974 64.5728C135.503 64.5728 134.341 63.4058 134.341 61.9276C134.419 60.605 135.58 59.4381 136.974 59.4381ZM143.71 58.9713V63.2502H144.872C146.033 63.2502 147.04 62.3166 147.04 61.0718C147.04 59.9048 146.111 58.8935 144.872 58.8935H143.71V58.9713ZM142.317 57.6487H144.794C146.73 57.6487 148.279 59.2047 148.279 61.1496C148.279 63.0946 146.73 64.6506 144.794 64.6506H142.317V57.6487Z" fill="#45B175"/>
</g>
<defs>
<clipPath id="clip0_1_401">
<rect width="188" height="82" fill="white"/>
</clipPath>
</defs>
</svg>
