<svg width="56" height="56" viewBox="0 0 56 56" fill="none" xmlns="http://www.w3.org/2000/svg">
<path d="M54.7666 34.1169H53.4536C53.0496 32.3437 52.3538 30.6491 51.3886 29.1116L52.3201 28.1914C52.668 27.8435 52.668 27.2711 52.3201 26.9232L48.5156 23.1187C48.1565 22.782 47.6066 22.782 47.2475 23.1187L46.3272 24.039C44.7897 23.0738 43.0951 22.3668 41.3219 21.974V20.6497C41.3219 20.1559 40.9179 19.7519 40.4241 19.7519H37.7306V0.897814C37.7306 0.404016 37.3266 0 36.8328 0H0.897814C0.404016 0 0 0.404016 0 0.897814V47.5841C0 48.0779 0.404016 48.4819 0.897814 48.4819H23.0963C23.0963 48.4819 23.1075 48.4932 23.1075 48.5044L26.912 52.3089C27.2711 52.6456 27.821 52.6456 28.1801 52.3089L29.1004 51.3886C30.6379 52.3538 32.3325 53.0608 34.1057 53.4536V54.7666C34.1057 55.2604 34.5097 55.6645 35.0035 55.6645H40.3904C40.8842 55.6645 41.2882 55.2604 41.2882 54.7666V53.4536C43.0614 53.0496 44.756 52.3538 46.2935 51.3886L47.2138 52.3089C47.5617 52.6568 48.134 52.6568 48.4819 52.3089L52.2864 48.5044C52.6343 48.1565 52.6343 47.5841 52.2864 47.2362L51.3549 46.316C52.3201 44.7785 53.0271 43.0838 53.4199 41.3107H54.7666C55.2604 41.3107 55.6645 40.9066 55.6645 40.4128V35.026C55.6645 34.5209 55.2604 34.1169 54.7666 34.1169ZM23.6462 46.6863H1.79563V1.79563H35.9126V19.7519H35.0147C34.5209 19.7519 34.1169 20.1559 34.1169 20.6497V21.9628C33.567 22.0862 33.0171 22.2433 32.4896 22.4341C35.0035 14.87 30.9072 6.68871 23.3432 4.17483C15.7791 1.66096 7.59775 5.75723 5.08387 13.3325C2.56999 20.9078 6.66627 29.0667 14.2303 31.5806C16.9687 32.4896 19.909 32.557 22.6922 31.7826C22.3892 32.5458 22.1536 33.3201 21.9628 34.1169H6.2847C5.7909 34.1169 5.38688 34.5209 5.38688 35.0147V43.9929C5.38688 44.4867 5.7909 44.8907 6.2847 44.8907H23.2422C23.4778 45.3733 23.7472 45.8446 24.0277 46.3047L23.6462 46.6863ZM23.1075 26.912C22.7596 27.2599 22.7596 27.8322 23.1075 28.1801L24.039 29.1004C23.9604 29.2238 23.8931 29.3585 23.8145 29.4932C19.8305 31.2215 15.2292 30.7501 11.6716 28.2475V26.0366C11.6828 23.3656 13.1642 20.9191 15.5322 19.6846C17.5635 20.964 20.1559 20.964 22.1872 19.6846C23.9829 20.6273 25.2847 22.277 25.8009 24.2297L23.1075 26.912ZM18.8541 18.8541C16.3739 18.8541 14.365 16.8452 14.365 14.365C14.365 11.8848 16.3739 9.87595 18.8541 9.87595C21.3343 9.87595 23.3432 11.8848 23.3432 14.365C23.3432 16.8452 21.3343 18.8541 18.8541 18.8541ZM27.5517 22.8494C27.4507 22.8494 27.3497 22.8718 27.2599 22.9055C26.5753 21.065 25.2959 19.4938 23.6349 18.4389C25.8907 15.8015 25.5877 11.8399 22.9504 9.57294C20.313 7.30596 16.3514 7.62019 14.0845 10.2575C12.0756 12.6031 12.0644 16.0709 14.0845 18.4276C11.4583 20.0774 9.87595 22.9504 9.87595 26.0366V26.7324C5.01653 21.772 5.09509 13.8151 10.0555 8.95569C15.0159 4.09628 22.9728 4.18606 27.8322 9.13526C31.5469 12.9285 32.4784 18.6521 30.1553 23.4329C29.7962 23.6237 29.4483 23.8145 29.1116 24.0277L28.1914 23.1075C28.023 22.9391 27.7873 22.8494 27.5517 22.8494ZM20.6497 41.2994H21.9628C22.1087 41.9055 22.277 42.5115 22.4902 43.0951H7.18251V35.9126H19.7519V40.4016C19.7519 40.8954 20.1559 41.2994 20.6497 41.2994ZM53.8688 39.5038H52.7241C52.2864 39.5038 51.9161 39.818 51.8375 40.2445C51.4784 42.2758 50.6816 44.2173 49.492 45.912C49.2451 46.2711 49.29 46.7537 49.593 47.0567L50.401 47.8647L47.8647 50.401L47.0567 49.593C46.7537 49.29 46.2711 49.2451 45.912 49.492C44.2173 50.6704 42.287 51.4784 40.2445 51.8375C39.818 51.9161 39.5038 52.2864 39.5038 52.7241V53.8688H35.9126V52.7241C35.9126 52.2864 35.5983 51.9161 35.1719 51.8375C33.1406 51.4784 31.199 50.6816 29.5044 49.492C29.1453 49.2451 28.6627 49.29 28.3597 49.593L27.5517 50.401L25.0153 47.8647L25.8234 47.0567C26.1264 46.7537 26.1713 46.2599 25.9244 45.912C24.746 44.2173 23.938 42.287 23.5788 40.2445C23.5003 39.818 23.1299 39.5038 22.6922 39.5038H21.5475V35.9126H22.6922C23.1299 35.9126 23.5003 35.5983 23.5788 35.1719C23.938 33.1406 24.7348 31.199 25.9244 29.5044C26.1713 29.1453 26.1264 28.6627 25.8234 28.3597L25.0153 27.5517L27.5517 25.0153L28.3597 25.8234C28.6627 26.1264 29.1453 26.1713 29.5044 25.9244C31.199 24.746 33.1293 23.938 35.1719 23.5788C35.5983 23.5003 35.9126 23.1299 35.9126 22.6922V21.5475H39.5038V22.6922C39.5038 23.1299 39.818 23.5003 40.2445 23.5788C42.2758 23.938 44.2173 24.7348 45.912 25.9244C46.2711 26.1713 46.7537 26.1264 47.0567 25.8234L47.8647 25.0153L50.401 27.5517L49.593 28.3597C49.29 28.6627 49.2451 29.1565 49.492 29.5044C50.6704 31.199 51.4784 33.1293 51.8375 35.1719C51.9161 35.5983 52.2864 35.9126 52.7241 35.9126H53.8688V39.5038Z" fill="#23454F"/>
<path d="M37.5752 26.8013C31.6271 26.8013 26.8014 31.627 26.8014 37.575C26.8014 43.5231 31.6271 48.3488 37.5752 48.3488C43.5232 48.3488 48.3489 43.5231 48.3489 37.575C48.3377 31.627 43.5232 26.8125 37.5752 26.8013ZM37.5752 46.5532C32.6147 46.5532 28.597 42.5355 28.597 37.575C28.597 32.6146 32.6147 28.5969 37.5752 28.5969C42.5356 28.5969 46.5533 32.6146 46.5533 37.575C46.5533 42.5355 42.5356 46.5532 37.5752 46.5532Z" fill="#45B175"/>
<path d="M36.5276 41.233C36.5117 41.233 36.4958 41.233 36.48 41.233C36.2342 41.2172 36.0201 41.1069 35.8695 40.9178L32.484 36.7186C32.1907 36.3562 32.2541 35.8283 32.6188 35.5368C32.9915 35.2532 33.5147 35.3084 33.8081 35.6708L36.5989 39.1373L41.8476 33.9218C42.1806 33.5909 42.7118 33.5909 43.0448 33.9218C43.3778 34.2526 43.3778 34.7805 43.0448 35.1114L37.1222 40.9966C36.9716 41.1463 36.7496 41.233 36.5276 41.233Z" fill="#45B175"/>
</svg>
