<svg width="18" height="25" viewBox="0 0 18 25" fill="none" xmlns="http://www.w3.org/2000/svg">
<path d="M1.21816 0.992292C1.54189 0.825591 1.90533 0.751431 2.26849 0.777969C2.63165 0.804508 2.98045 0.930717 3.2765 1.14271L17.1307 11.0386C17.3873 11.2217 17.5964 11.4634 17.7407 11.7436C17.885 12.0238 17.9603 12.3344 17.9603 12.6496C17.9603 12.9648 17.885 13.2754 17.7407 13.5557C17.5964 13.8359 17.3873 14.0776 17.1307 14.2607L3.2765 24.1565C2.98055 24.3684 2.63192 24.4945 2.26895 24.521C1.90598 24.5475 1.54271 24.4735 1.2191 24.307C0.895482 24.1405 0.624046 23.8879 0.43463 23.5772C0.245214 23.2664 0.145153 22.9094 0.145448 22.5455V2.75376C0.145067 2.38992 0.244989 2.03301 0.434233 1.72226C0.623478 1.4115 0.894721 1.15893 1.21816 0.992292Z" fill="#457EFF"/>
</svg>
