<svg width="56" height="56" viewBox="0 0 56 56" fill="none" xmlns="http://www.w3.org/2000/svg">
<path d="M41.7483 55.6646C41.5961 55.6646 41.4439 55.632 41.3025 55.5777C40.748 55.3385 27.8322 49.7612 27.8322 38.3565V28.6587C27.8322 28.1586 28.1474 27.7237 28.6258 27.5606L41.3786 23.2553C41.6178 23.1792 41.8787 23.1792 42.1179 23.2553L54.8707 27.5606C55.3382 27.7237 55.6644 28.1586 55.6644 28.6587V38.3565C55.6644 49.7612 42.7485 55.3385 42.194 55.5777C42.0527 55.632 41.9005 55.6646 41.7483 55.6646ZM30.1479 29.4958V38.3565C30.1479 47.1302 39.5521 52.1747 41.7483 53.2293C43.9335 52.1747 53.3487 47.1084 53.3487 38.3565V29.4958L41.7483 25.5819L30.1479 29.4958Z" fill="#45B175"/>
<path d="M40.5851 44.064C40.5633 44.064 40.5416 44.064 40.5198 44.064C40.1828 44.0422 39.8893 43.89 39.6827 43.6291L35.0404 37.8343C34.6381 37.3342 34.7251 36.6058 35.2252 36.2035C35.7362 35.8122 36.4537 35.8883 36.856 36.3884L40.6829 41.172L47.8802 33.9748C48.3368 33.5182 49.0652 33.5182 49.5218 33.9748C49.9784 34.4314 49.9784 35.1598 49.5218 35.6165L41.4005 43.7378C41.1939 43.9444 40.8895 44.064 40.5851 44.064Z" fill="#45B175"/>
<path d="M22.0375 48.7063H5.79476C2.5984 48.7063 0 46.108 0 42.9116V12.7528C0 9.55641 2.5984 6.95801 5.79476 6.95801H10.4371C11.0785 6.95801 11.6004 7.47986 11.6004 8.12131C11.6004 8.76275 11.0785 9.27374 10.4371 9.27374H5.79476C3.88129 9.27374 2.31573 10.8393 2.31573 12.7528V42.9007C2.31573 44.8142 3.88129 46.3797 5.79476 46.3797H22.0266C22.668 46.3797 23.1899 46.9016 23.1899 47.543C23.1899 48.1845 22.6789 48.7063 22.0375 48.7063Z" fill="#23454F"/>
<path d="M38.2692 19.7108C37.6278 19.7108 37.1059 19.189 37.1059 18.5475V12.7528C37.1059 10.8393 35.5404 9.27374 33.6269 9.27374H28.9846C28.3431 9.27374 27.8213 8.75188 27.8213 8.11044C27.8213 7.46899 28.354 6.95801 28.9955 6.95801H33.6378C36.8341 6.95801 39.4325 9.55641 39.4325 12.7528V18.5475C39.4325 19.1998 38.9107 19.7108 38.2692 19.7108Z" fill="#23454F"/>
<path d="M26.669 13.9161H12.7528C10.8394 13.9161 9.2738 12.3506 9.2738 10.4371V5.79476C9.2738 5.15331 9.79566 4.63146 10.4371 4.63146H14.0357C14.5685 1.98957 16.9168 0 19.7109 0C22.505 0 24.8533 1.98957 25.3969 4.64233H28.9956C29.637 4.64233 30.1589 5.16418 30.1589 5.80563V10.4371C30.148 12.3506 28.5933 13.9161 26.669 13.9161ZM11.6004 6.95806V10.4371C11.6004 11.0785 12.1223 11.6004 12.7637 11.6004H26.6798C27.3213 11.6004 27.8431 11.0785 27.8431 10.4371V6.95806H24.3641C23.7227 6.95806 23.2008 6.4362 23.2008 5.79476C23.2008 3.88129 21.6352 2.31573 19.7218 2.31573C17.8083 2.31573 16.2427 3.88129 16.2427 5.79476C16.2427 6.4362 15.7209 6.95806 15.0794 6.95806H11.6004Z" fill="#23454F"/>
<path d="M31.3112 20.8742H8.12131C7.47986 20.8742 6.95801 20.3524 6.95801 19.7109C6.95801 19.0695 7.47986 18.5476 8.12131 18.5476H31.3112C31.9527 18.5476 32.4745 19.0695 32.4745 19.7109C32.4745 20.3524 31.9527 20.8742 31.3112 20.8742Z" fill="#23454F"/>
<path d="M22.0374 27.8322H8.12131C7.47986 27.8322 6.95801 27.3104 6.95801 26.6689C6.95801 26.0275 7.47986 25.5056 8.12131 25.5056H22.0374C22.6789 25.5056 23.2007 26.0275 23.2007 26.6689C23.2007 27.3104 22.6789 27.8322 22.0374 27.8322Z" fill="#23454F"/>
<path d="M22.0374 34.79H8.12131C7.47986 34.79 6.95801 34.2681 6.95801 33.6267C6.95801 32.9852 7.47986 32.4634 8.12131 32.4634H22.0374C22.6789 32.4634 23.2007 32.9852 23.2007 33.6267C23.2007 34.2681 22.6789 34.79 22.0374 34.79Z" fill="#23454F"/>
</svg>
