<svg width="408" height="1321" viewBox="0 0 408 1321" fill="none" xmlns="http://www.w3.org/2000/svg">
<path fill-rule="evenodd" clip-rule="evenodd" d="M112.407 631.6L86.0074 159.322L1.80923 97.6984C-20.3384 81.496 -46.2586 76.6947 -72.9695 83.8469L-173.654 111.224L-367.461 542.713C-373.137 555.422 -372.763 568.777 -366.231 580.901C-359.741 593.254 -349.104 601.156 -335.341 603.705L60.8022 677.084C74.5651 679.633 87.3258 676.066 97.81 666.857C108.022 657.835 113.154 645.499 112.407 631.6Z" stroke="#23454F" stroke-miterlimit="2.6131"/>
<path fill-rule="evenodd" clip-rule="evenodd" d="M188.148 234.233L144.082 201.871C141.772 200.257 138.747 199.934 136.343 201.386C133.938 202.839 132.282 205.379 132.46 208.259L158.452 671.209C159.777 693.519 167.957 712.116 183.784 727.86L264.931 809.796L283.418 797.087C290.759 792.041 294.209 783.665 292.527 774.812L188.148 234.233Z" stroke="#A3C516" stroke-miterlimit="2.6131"/>
<path fill-rule="evenodd" clip-rule="evenodd" d="M128.281 734.187L-418.796 632.85L-540.457 687.659C-542.505 688.466 -543.762 690.131 -544.417 692.382C-545.071 694.633 -544.723 696.596 -543.414 698.499L-275.223 1088.63C-273.541 1091.08 -273.405 1094.19 -275.019 1096.5C-276.676 1099.04 -279.267 1100.22 -282.292 1099.9C-331.847 1093.33 -381.266 1089.87 -430.278 1089.33C-499.926 1088.77 -568.844 1094.51 -635.986 1106.03C-652.875 1108.84 -664.133 1124.78 -661.33 1141.67C-658.527 1158.56 -642.581 1169.82 -625.692 1167.02C-562.203 1156 -496.938 1150.77 -430.816 1151.16C-366.385 1151.7 -301.095 1157.87 -235.263 1170.06C-169.659 1182.21 -106.265 1199.89 -45.9124 1222.45C16.0034 1245.55 74.7925 1273.99 130.353 1307.06C145.118 1315.73 164.038 1310.93 172.705 1296.16C181.371 1281.4 176.572 1262.48 161.807 1253.81C103.247 1219 40.958 1188.96 -24.271 1164.54C-70.1811 1147.26 -117.561 1132.79 -166.224 1121.4C-169.164 1120.62 -171.16 1118.59 -171.797 1115.62C-172.434 1112.66 -171.236 1110.03 -168.789 1108.35L221.347 840.158C223.25 838.85 224.278 837.142 224.473 834.806C224.669 832.47 224.049 830.694 222.469 828.978L128.281 734.187Z" stroke="#45B175" stroke-miterlimit="2.6131"/>
</svg>
