<svg width="184" height="1179" viewBox="0 0 184 1179" fill="none" xmlns="http://www.w3.org/2000/svg">
<path fill-rule="evenodd" clip-rule="evenodd" d="M7.48105 646.557L23.1111 662.42L117.825 596.634C136.021 584.036 147.685 567.007 153.051 545.544L262.928 95.0721C263.627 92.2727 262.694 89.4733 260.361 87.607C258.029 85.7408 255.229 85.5075 252.663 86.6739L203.44 110.236L2.58208 623.228C-0.683907 631.393 1.18237 640.258 7.48105 646.557Z" stroke="#A3C516" stroke-miterlimit="2.6131"/>
<path fill-rule="evenodd" clip-rule="evenodd" d="M727.864 612.73H171.48L61.8363 688.781C59.9701 689.947 59.0369 691.814 58.8036 694.147C58.5704 696.479 59.2702 698.346 60.9032 699.979L395.666 1034.74C397.766 1036.84 398.466 1039.87 397.299 1042.44C396.133 1045.24 393.8 1046.87 390.768 1047.11C340.845 1049.67 291.622 1055.27 243.332 1063.67C174.746 1075.8 108.027 1094 44.1067 1117.56C28.0101 1123.39 19.8451 1141.12 25.6772 1157.22C31.5094 1173.31 49.239 1181.48 65.3356 1175.65C125.756 1153.25 188.976 1136.22 254.063 1124.56C317.516 1113.36 382.836 1107.53 449.788 1107.53C516.508 1107.53 582.061 1113.36 645.514 1124.56C710.601 1135.99 773.587 1153.25 834.241 1175.65C850.338 1181.48 868.068 1173.31 873.9 1157.22C879.732 1141.12 871.567 1123.39 855.47 1117.56C791.55 1094 724.831 1075.8 656.245 1063.67C607.955 1055.04 558.732 1049.44 508.809 1047.11C505.777 1046.87 503.444 1045.24 502.278 1042.44C501.111 1039.64 501.811 1036.84 503.911 1034.74L838.674 699.979C840.307 698.346 841.007 696.479 840.773 694.147C840.54 691.814 839.607 690.181 837.741 688.781L727.864 612.73Z" stroke="#45B175" stroke-miterlimit="2.6131"/>
</svg>
