<svg width="67" height="30" viewBox="0 0 67 30" fill="none" xmlns="http://www.w3.org/2000/svg">
<rect x="37" width="30" height="30" rx="5" fill="#45B175"/>
<path d="M45.875 16.2852H56.2525L53.0762 19.7106C53.0027 19.79 52.9473 19.8817 52.9132 19.9803C52.8792 20.079 52.867 20.1827 52.8776 20.2856C52.8989 20.4933 53.0113 20.685 53.19 20.8183C53.3687 20.9517 53.5991 21.0158 53.8304 20.9967C54.0618 20.9775 54.2752 20.8766 54.4238 20.7162L58.7988 16.0023C58.8282 15.9648 58.8545 15.9254 58.8775 15.8845C58.8775 15.8452 58.9213 15.8216 58.9388 15.7823C58.9784 15.6923 58.9992 15.5964 59 15.4995C58.9992 15.4026 58.9784 15.3068 58.9388 15.2167C58.9388 15.1774 58.895 15.1538 58.8775 15.1145C58.8545 15.0736 58.8282 15.0342 58.7988 14.9967L54.4238 10.2828C54.3415 10.1941 54.2385 10.1228 54.122 10.0739C54.0056 10.0251 53.8785 9.99981 53.75 10C53.5456 9.99964 53.3474 10.0636 53.19 10.1807C53.1014 10.2467 53.0282 10.3277 52.9745 10.4191C52.9208 10.5105 52.8877 10.6105 52.8772 10.7134C52.8666 10.8163 52.8787 10.9201 52.9129 11.0187C52.9471 11.1174 53.0026 11.2091 53.0762 11.2885L56.2525 14.7139H45.875C45.6429 14.7139 45.4204 14.7966 45.2563 14.944C45.0922 15.0913 45 15.2911 45 15.4995C45 15.7079 45.0922 15.9077 45.2563 16.055C45.4204 16.2024 45.6429 16.2852 45.875 16.2852Z" fill="#F8F8F8"/>
<rect width="30" height="30" rx="5" transform="matrix(-1 0 0 1 30 0)" fill="#45B175"/>
<path d="M21.125 16.2852H10.7475L13.9238 19.7106C13.9973 19.79 14.0527 19.8817 14.0868 19.9803C14.1208 20.079 14.133 20.1827 14.1224 20.2856C14.1011 20.4933 13.9887 20.685 13.81 20.8183C13.6313 20.9517 13.4009 21.0158 13.1696 20.9967C12.9382 20.9775 12.7248 20.8766 12.5762 20.7162L8.20125 16.0023C8.17182 15.9648 8.14549 15.9254 8.1225 15.8845C8.1225 15.8452 8.07875 15.8216 8.06125 15.7823C8.02159 15.6923 8.00082 15.5964 8 15.4995C8.00082 15.4026 8.02159 15.3068 8.06125 15.2167C8.06125 15.1774 8.105 15.1538 8.1225 15.1145C8.14549 15.0736 8.17182 15.0342 8.20125 14.9967L12.5762 10.2828C12.6585 10.1941 12.7615 10.1228 12.878 10.0739C12.9944 10.0251 13.1215 9.99981 13.25 10C13.4544 9.99964 13.6526 10.0636 13.81 10.1807C13.8986 10.2467 13.9718 10.3277 14.0255 10.4191C14.0792 10.5105 14.1123 10.6105 14.1228 10.7134C14.1334 10.8163 14.1213 10.9201 14.0871 11.0187C14.0529 11.1174 13.9974 11.2091 13.9238 11.2885L10.7475 14.7139H21.125C21.3571 14.7139 21.5796 14.7966 21.7437 14.944C21.9078 15.0913 22 15.2911 22 15.4995C22 15.7079 21.9078 15.9077 21.7437 16.055C21.5796 16.2024 21.3571 16.2852 21.125 16.2852Z" fill="#F8F8F8"/>
</svg>
