<svg width="83" height="83" viewBox="0 0 83 83" fill="none" xmlns="http://www.w3.org/2000/svg">
<circle opacity="0.3" cx="41.5" cy="41.5" r="41.5" fill="#FEC229" fill-opacity="0.4"/>
<path d="M51.3168 48.7482L42.7204 31.2171C42.5888 30.9476 42.3194 30.7785 42.0186 30.7785C41.7179 30.7785 41.4485 30.9476 41.3169 31.2171L32.7267 48.7482C32.5952 49.0177 32.6265 49.3372 32.8144 49.5753L37.664 55.7594H36.2417C35.1202 55.7594 34.2117 56.668 34.2117 57.7895V60.9098C34.2117 61.5113 34.7004 62 35.3082 62H48.7479C49.3494 62 49.8444 61.5113 49.8444 60.9098V57.7895C49.8444 56.668 48.9359 55.7594 47.8143 55.7594H46.3732L51.2416 49.5753C51.417 49.3372 51.4484 49.0177 51.3168 48.7482ZM47.8018 57.3196C48.0587 57.3196 48.2717 57.5326 48.2717 57.7895V60.4461H35.7718V57.7895C35.7718 57.5326 35.9848 57.3196 36.2417 57.3196H47.8018ZM44.3745 55.7594H39.644L34.3433 48.9989L42.0186 33.3411L49.694 48.9989L44.3745 55.7594Z" fill="#FE9D29"/>
<path d="M45.1389 49.3372C45.0888 48.5039 44.7128 47.7395 44.0863 47.1881C43.7166 46.8623 43.278 46.6304 42.8018 46.5114V40.9475C42.8018 40.5152 42.451 40.1643 42.0186 40.1643C41.5863 40.1643 41.2354 40.5152 41.2354 40.9475V46.5114C40.6402 46.6618 40.0951 46.9939 39.669 47.47C39.149 48.0653 38.8921 48.7983 38.8921 49.5314C38.8921 50.3961 39.2492 51.2607 39.951 51.8748C40.5274 52.3823 41.248 52.6517 42.0124 52.6517C42.0813 52.6517 42.1502 52.6517 42.2191 52.6454C43.0525 52.589 43.8169 52.2194 44.3682 51.5928C44.9196 50.9725 45.189 50.1705 45.1389 49.3372ZM43.1966 50.5653C42.7705 51.0477 42.0688 51.2169 41.4673 50.9913C40.8595 50.7658 40.4585 50.1705 40.4648 49.5252C40.4648 48.8673 40.8908 48.2658 41.5174 48.0527C42.1439 47.8397 42.8582 48.0527 43.2655 48.5791C43.7041 49.1618 43.679 50.0139 43.1966 50.5653Z" fill="#FE9D29"/>
<path d="M60.8906 38.7421H59.6751C59.5623 37.4513 59.1676 34.7258 57.7641 31.9752C56.6676 29.8386 54.8255 27.4452 51.7303 25.9226H55.8594C56.0599 26.6933 56.5423 27.3449 57.2127 27.7647C57.714 28.078 58.2842 28.2409 58.8606 28.2409C59.0987 28.2409 59.3305 28.2158 59.5686 28.1594C60.3831 27.9715 61.0786 27.4827 61.5172 26.781C61.9621 26.0792 62.0999 25.2397 61.9119 24.4251C61.724 23.6106 61.2353 22.9214 60.5272 22.4765C59.8255 22.0317 58.9859 21.8938 58.1714 22.0818C57.3568 22.2698 56.6614 22.7585 56.2228 23.4602C56.0473 23.7422 55.9158 24.0429 55.8406 24.3562H45.1452V23.1156C45.1452 22.5141 44.6564 22.0254 44.0487 22.0254H39.9886C39.3871 22.0254 38.8921 22.5141 38.8921 23.1156V24.4001H28.1779C27.8583 23.0279 26.6178 22.0003 25.1453 22.0003C23.4223 22.0003 22.0188 23.4038 22.0188 25.1206C22.0188 26.8437 23.4223 28.2409 25.1453 28.2409C26.5802 28.2409 27.7894 27.276 28.1528 25.9602H32.2944C29.1929 27.4827 27.3383 29.8762 26.2418 32.0128C24.8321 34.7634 24.4373 37.4827 24.3245 38.7796H23.0965C22.495 38.7796 22 39.2684 22 39.8699V43.93C22 44.5315 22.4887 45.0202 23.0965 45.0202H27.1566C27.7581 45.0202 28.2531 44.5315 28.2531 43.93V39.8699C28.2531 39.2684 27.7644 38.7796 27.1566 38.7796H25.8972C26.0163 37.5704 26.3985 35.1393 27.6328 32.7271C28.6415 30.7597 30.0137 29.1995 31.7117 28.078C33.6666 26.7935 36.0788 26.0855 38.8921 25.9727V27.1695C38.8921 27.771 39.3808 28.2597 39.9886 28.2597H44.055C44.6565 28.2597 45.1514 27.771 45.1514 27.1695V25.9414C47.9396 26.0479 50.3331 26.7497 52.2817 28.0279C53.9734 29.1369 55.3456 30.6907 56.3481 32.6456C57.5949 35.0704 57.9834 37.5265 58.1025 38.7483H56.8305C56.229 38.7483 55.7341 39.237 55.7341 39.8385V43.8986C55.7341 44.5001 56.2228 44.9889 56.8305 44.9889H60.8906C61.4921 44.9889 61.9871 44.5001 61.9871 43.8986V39.8385C61.9809 39.2308 61.4921 38.7421 60.8906 38.7421ZM57.5573 24.2936C57.902 23.7422 58.5786 23.4602 59.2115 23.5981C59.8318 23.7296 60.3142 24.2434 60.4207 24.87C60.5272 25.5091 60.214 26.167 59.6501 26.4802C59.0611 26.8123 58.303 26.7246 57.808 26.2547C57.2691 25.7534 57.1626 24.9138 57.5573 24.2936C57.3318 24.6444 57.7766 23.9427 57.5573 24.2936ZM25.1453 26.6807C24.2869 26.6807 23.5852 25.979 23.5852 25.1206C23.5852 24.2622 24.2869 23.5605 25.1453 23.5605C26.01 23.5605 26.7055 24.2622 26.7055 25.1206C26.7055 25.979 26.0037 26.6807 25.1453 26.6807ZM26.6867 40.3398V43.4601H23.5601V40.3398H26.6867ZM43.585 26.7058H40.4585V23.5793H43.585V26.7058ZM60.4207 43.4225H57.2942V40.3022H60.4207V43.4225Z" fill="#FE9D29"/>
<path d="M42.0249 38.6042C41.5926 38.6042 41.2417 38.2533 41.2417 37.821C41.2417 37.3887 41.5926 37.0378 42.0249 37.0378C42.4572 37.0378 42.8081 37.3887 42.8081 37.821C42.8081 38.2533 42.4572 38.6042 42.0249 38.6042Z" fill="#FE9D29"/>
</svg>
