<svg width="46" height="59" viewBox="0 0 46 59" fill="none" xmlns="http://www.w3.org/2000/svg">
<path d="M45.1069 13.419L40.7662 9.0709V2.58844C40.7662 1.16934 39.6102 0 38.1822 0H2.55001C1.14467 0 0 1.14663 0 2.55438V45.3545C0 46.7623 1.14467 47.9089 2.55001 47.9089H3.98935V49.328C3.98935 50.7357 5.13403 51.8824 6.53937 51.8824H12.0701C12.5347 51.8824 12.9201 51.4964 12.9201 51.0309C12.9201 50.5654 12.5347 50.1795 12.0701 50.1795H6.53937C6.0747 50.1795 5.68936 49.7935 5.68936 49.328V15.0992C5.68936 14.6338 5.30403 14.2478 4.83936 14.2478C4.37469 14.2478 3.98935 14.6338 3.98935 15.0992V46.206H2.55001C2.08534 46.206 1.70001 45.82 1.70001 45.3545V2.55438C1.70001 2.08892 2.08534 1.70292 2.55001 1.70292H38.1935C38.6809 1.70292 39.0775 2.10027 39.0775 2.58844V7.36798L35.9268 4.22325C35.7682 4.06431 35.5528 3.97349 35.3262 3.97349H6.53937C5.13403 3.97349 3.98935 5.12012 3.98935 6.52787V11.1258C3.98935 11.5912 4.37469 11.9772 4.83936 11.9772C5.30403 11.9772 5.68936 11.5912 5.68936 11.1258V6.52787C5.68936 6.0624 6.0747 5.67641 6.53937 5.67641H34.4762V14.0207C34.4762 14.4862 34.8615 14.8722 35.3262 14.8722H43.6562V49.328C43.6562 49.7935 43.2709 50.1795 42.8062 50.1795H37.3435C36.8788 50.1795 36.4935 50.5654 36.4935 51.0309C36.4935 51.4964 36.8788 51.8824 37.3435 51.8824H42.8062C44.2116 51.8824 45.3562 50.7357 45.3562 49.328V14.0207C45.3562 13.7937 45.2656 13.578 45.1069 13.419ZM36.1762 13.1693V6.87981L42.4549 13.1693H36.1762Z" fill="#23454F"/>
<path d="M34.8615 19.9241H14.5294C14.0647 19.9241 13.6794 20.3101 13.6794 20.7755C13.6794 21.241 14.0647 21.627 14.5294 21.627H34.8615C35.3262 21.627 35.7115 21.241 35.7115 20.7755C35.7115 20.3101 35.3262 19.9241 34.8615 19.9241Z" fill="#23454F"/>
<path d="M34.8615 24.9421H14.5294C14.0647 24.9421 13.6794 25.3281 13.6794 25.7936C13.6794 26.2591 14.0647 26.6451 14.5294 26.6451H34.8615C35.3262 26.6451 35.7115 26.2591 35.7115 25.7936C35.7115 25.3281 35.3262 24.9421 34.8615 24.9421Z" fill="#23454F"/>
<path d="M34.8615 30.062H30.8495C30.3848 30.062 29.9995 30.448 29.9995 30.9135C29.9995 31.3789 30.3848 31.7649 30.8495 31.7649H34.8615C35.3261 31.7649 35.7115 31.3789 35.7115 30.9135C35.7115 30.448 35.3261 30.062 34.8615 30.062Z" fill="#23454F"/>
<path d="M26.8374 31.7649C27.3021 31.7649 27.6875 31.3789 27.6875 30.9135C27.6875 30.448 27.3021 30.062 26.8374 30.062H14.5294C14.0647 30.062 13.6794 30.448 13.6794 30.9135C13.6794 31.3789 14.0647 31.7649 14.5294 31.7649H26.8374Z" fill="#23454F"/>
<path d="M27.8121 46.6144L25.5454 44.3438V52.5746C25.5454 53.0401 25.1601 53.4261 24.6954 53.4261C24.2307 53.4261 23.8454 53.0401 23.8454 52.5746V44.3438L21.5787 46.6144C21.25 46.9436 20.706 46.9436 20.3774 46.6144C20.0487 46.2852 20.0487 45.7402 20.3774 45.411L24.0947 41.6873C24.2647 41.517 24.48 41.4375 24.6954 41.4375C24.9107 41.4375 25.1261 41.517 25.2961 41.6873L29.0134 45.411C29.3421 45.7402 29.3421 46.2852 29.0134 46.6144C28.6734 46.9436 28.1407 46.9436 27.8121 46.6144Z" fill="#45B175"/>
<path d="M24.6955 36.7375C18.8135 36.7375 14.0195 41.5398 14.0195 47.4319C14.0195 53.324 18.8135 58.1262 24.6955 58.1262C30.5776 58.1262 35.3716 53.324 35.3716 47.4319C35.3716 41.5398 30.5776 36.7375 24.6955 36.7375ZM24.6955 56.4233C19.7428 56.4233 15.7195 52.3931 15.7195 47.4319C15.7195 42.4707 19.7428 38.4405 24.6955 38.4405C29.6482 38.4405 33.6716 42.4707 33.6716 47.4319C33.6716 52.3931 29.6369 56.4233 24.6955 56.4233Z" fill="#45B175"/>
</svg>
