<svg width="83" height="83" viewBox="0 0 83 83" fill="none" xmlns="http://www.w3.org/2000/svg">
<circle opacity="0.3" cx="41.5" cy="41.5" r="41.5" fill="#FEC9FF"/>
<path d="M64.5374 38.1593C64.3268 38.0311 64.0705 38.0311 63.8599 38.1501L55.2813 42.8743V41.2264C55.2813 39.4868 53.8622 38.0678 52.1227 38.0678H50.3374C52.7544 36.5113 54.3657 33.8013 54.3657 30.7251C54.3657 29.1778 53.9537 27.658 53.1755 26.3305C52.9833 26.0009 52.5621 25.8911 52.2325 26.0833C51.9029 26.2756 51.7931 26.6967 51.9853 27.0263C52.6354 28.1341 52.9741 29.4159 52.9741 30.7251C52.9741 34.7718 49.6782 38.0678 45.6315 38.0678C41.5848 38.0678 38.2888 34.7718 38.2888 30.7251C38.2888 26.6784 41.5848 23.3825 45.6315 23.3825C47.3527 23.3825 49.0281 23.9959 50.3557 25.1037C50.6486 25.3509 51.0789 25.3143 51.3261 25.0213C51.5733 24.7283 51.5367 24.298 51.2437 24.0508C49.669 22.7233 47.6823 22 45.6315 22C41.3742 22 37.8127 25.0671 37.062 29.1138C35.8993 27.7038 34.1506 26.8066 32.1822 26.8066C28.694 26.8066 25.8649 29.6448 25.8649 33.1238C25.8649 35.1197 26.7988 36.905 28.2545 38.0678C26.515 38.0678 25.0959 39.4868 25.0959 41.2264V41.3362H22.2943L18.9801 39.7707C18.5498 39.5509 17.9821 39.8988 18.0004 40.3932V48.9352C17.9821 49.4205 18.5498 49.7775 18.9801 49.5578L22.2943 47.9922H25.0959V58.8414C25.0959 60.5809 26.515 62 28.2545 62H46.1716C46.547 62 46.8583 61.6887 46.8583 61.3133C46.8583 60.938 46.547 60.6267 46.1716 60.6267H28.2545C27.2657 60.6267 26.4692 59.8302 26.4692 58.8414V41.2264C26.4692 40.2376 27.2657 39.4411 28.2545 39.4411H52.1135C53.1023 39.4411 53.8988 40.2376 53.8988 41.2264V58.8322C53.8988 59.821 53.1023 60.6175 52.1135 60.6175H48.9183C48.5429 60.6175 48.2316 60.9288 48.2316 61.3042C48.2316 61.6796 48.5429 61.9908 48.9183 61.9908H52.1135C53.853 61.9908 55.2721 60.5718 55.2721 58.8322V53.3756L63.8507 58.0998C64.2902 58.3561 64.8853 58.0082 64.867 57.4955V38.7544C64.8761 38.5072 64.748 38.2875 64.5374 38.1593ZM19.3737 41.4827L21.452 42.4623V46.8569L19.3737 47.8457V41.4827ZM22.8253 46.6098V42.7187H25.0959V46.6098H22.8253ZM27.2382 33.1238C27.2382 30.3955 29.4539 28.1799 32.1822 28.1799C34.9105 28.1799 37.1261 30.3955 37.1261 33.1238C37.1261 35.8521 34.9105 38.0678 32.1822 38.0678C29.463 38.0678 27.2382 35.8521 27.2382 33.1238ZM36.1098 38.0678C37.0345 37.3262 37.7487 36.3374 38.1515 35.2021C38.8473 36.3557 39.7995 37.3445 40.9347 38.0678H36.1098ZM63.5028 56.3236L55.2813 51.8009V44.4399L63.5028 39.9171V56.3236Z" fill="#A72DB1"/>
<path d="M42.125 30.7251C42.125 32.6569 43.6997 34.2316 45.6315 34.2316C47.5633 34.2316 49.138 32.6569 49.138 30.7251C49.138 28.7933 47.5633 27.2186 45.6315 27.2186C43.6997 27.2186 42.125 28.7842 42.125 30.7251ZM47.7647 30.7251C47.7647 31.897 46.8126 32.8583 45.6315 32.8583C44.4596 32.8583 43.4983 31.9062 43.4983 30.7251C43.4983 29.5441 44.4596 28.5919 45.6315 28.5919C46.8126 28.5919 47.7647 29.5441 47.7647 30.7251Z" fill="#A72DB1"/>
<path d="M32.1822 35.6049C33.5463 35.6049 34.6633 34.4971 34.6633 33.1238C34.6633 31.7505 33.5555 30.6427 32.1822 30.6427C30.818 30.6427 29.701 31.7505 29.701 33.1238C29.7102 34.488 30.818 35.6049 32.1822 35.6049ZM32.1822 32.0252C32.7864 32.0252 33.2808 32.5196 33.2808 33.1238C33.2808 33.7281 32.7864 34.2225 32.1822 34.2225C31.5779 34.2225 31.0835 33.7281 31.0835 33.1238C31.0835 32.5196 31.5779 32.0252 32.1822 32.0252Z" fill="#A72DB1"/>
<path d="M48.2407 51.8283V44.3209C48.2407 43.4328 47.5174 42.7187 46.6385 42.7187H39.1952C38.8198 42.7187 38.5085 43.03 38.5085 43.4054C38.5085 43.7807 38.8198 44.092 39.1952 44.092H46.6385C46.7667 44.092 46.8674 44.1927 46.8674 44.3209V51.8283C46.8674 51.9565 46.7667 52.0572 46.6385 52.0572H33.7477C33.6195 52.0572 33.5188 51.9565 33.5188 51.8283V44.3209C33.5188 44.1927 33.6195 44.092 33.7477 44.092H36.4394C36.8148 44.092 37.1261 43.7807 37.1261 43.4054C37.1261 43.03 36.8148 42.7187 36.4394 42.7187H33.7477C32.8596 42.7187 32.1455 43.442 32.1455 44.3209V51.8283C32.1455 52.7164 32.8688 53.4305 33.7477 53.4305H46.6385C47.5174 53.4305 48.2407 52.7073 48.2407 51.8283Z" fill="#A72DB1"/>
<path d="M43.892 55.8201C43.5166 55.8201 43.2053 56.1314 43.2053 56.5068C43.2053 56.8821 43.5166 57.1934 43.892 57.1934H45.604C45.9794 57.1934 46.2907 56.8821 46.2907 56.5068C46.2907 56.1314 45.9794 55.8201 45.604 55.8201H43.892Z" fill="#A72DB1"/>
<path d="M39.3325 55.8201C38.9572 55.8201 38.6459 56.1314 38.6459 56.5068C38.6459 56.8821 38.9572 57.1934 39.3325 57.1934H41.0446C41.42 57.1934 41.7312 56.8821 41.7312 56.5068C41.7312 56.1314 41.42 55.8201 41.0446 55.8201H39.3325Z" fill="#A72DB1"/>
<path d="M34.7732 55.8201C34.3978 55.8201 34.0865 56.1314 34.0865 56.5068C34.0865 56.8821 34.3978 57.1934 34.7732 57.1934H36.4853C36.8606 57.1934 37.1719 56.8821 37.1719 56.5068C37.1719 56.1314 36.8606 55.8201 36.4853 55.8201H34.7732Z" fill="#A72DB1"/>
</svg>
