<svg width="83" height="83" viewBox="0 0 83 83" fill="none" xmlns="http://www.w3.org/2000/svg">
<circle opacity="0.3" cx="41.5" cy="41.5" r="41.5" fill="#A5D4FF"/>
<path d="M42.8802 50.1518C41.8011 50.1518 40.9252 49.276 40.9252 48.1968V27.083H44.0688C45.148 27.083 46.0238 27.9588 46.0238 29.038C46.0238 29.468 46.3757 29.8199 46.8058 29.8199H49.9338C50.3639 29.8199 50.7158 29.468 50.7158 29.038V22.782C50.7158 22.3519 50.3639 22 49.9338 22H21.782C21.3519 22 21 22.3519 21 22.782V29.038C21 29.468 21.3519 29.8199 21.782 29.8199H24.91C25.3401 29.8199 25.692 29.468 25.692 29.038C25.692 27.9588 26.5678 27.083 27.647 27.083H30.7984V48.1968C30.7984 49.276 29.9226 50.1518 28.8434 50.1518C28.4133 50.1518 28.0614 50.5037 28.0614 50.9338V54.0618C28.0614 54.4919 28.4133 54.8438 28.8434 54.8438H42.8802C43.3103 54.8438 43.6622 54.4919 43.6622 54.0618V50.9338C43.6622 50.5037 43.3103 50.1518 42.8802 50.1518ZM42.0982 53.2798H29.6254V51.6298C31.1894 51.2701 32.3624 49.8703 32.3624 48.1968V26.301C32.3624 25.8709 32.0105 25.519 31.5804 25.519H27.647C25.9735 25.519 24.5737 26.692 24.214 28.256H22.564V23.564H49.1518V28.256H47.5018C47.1421 26.692 45.7423 25.519 44.0688 25.519H40.1354C39.7053 25.519 39.3534 25.8709 39.3534 26.301V48.1968C39.3534 49.8703 40.5264 51.2701 42.0904 51.6298V53.2798H42.0982Z" fill="#0085FF"/>
<path d="M60.2561 53.749H57.1282C56.6981 53.749 56.3462 54.1009 56.3462 54.531C56.3462 55.2191 55.7831 55.7822 55.095 55.7822C54.4068 55.7822 53.8438 55.2191 53.8438 54.531V40.7679H57.1282C57.5583 40.7679 57.9102 40.416 57.9102 39.9859V36.4669C57.9102 36.0368 57.5583 35.6849 57.1282 35.6849H53.8438V32.9479C53.8438 32.5178 53.4919 32.1659 53.0618 32.1659H49.9338C49.5037 32.1659 49.1518 32.5178 49.1518 32.9479C49.1518 34.4572 47.9241 35.6849 46.4148 35.6849H44.0689C43.6388 35.6849 43.2869 36.0368 43.2869 36.4669V39.9859C43.2869 40.416 43.6388 40.7679 44.0689 40.7679H46.0238V54.531C46.4383 64.4936 60.6315 64.4858 61.0381 54.531C61.0381 54.1009 60.6862 53.749 60.2561 53.749ZM53.531 60.4741C50.2544 60.4741 47.5878 57.8075 47.5878 54.531V39.9859C47.5878 39.7747 47.5018 39.5792 47.3611 39.4307C47.2125 39.2821 47.017 39.2039 46.8058 39.2039H44.8509V37.2489H46.4148C48.5184 37.2489 50.2779 35.7318 50.6454 33.7299H52.2798V36.4669C52.2798 36.897 52.6317 37.2489 53.0618 37.2489H56.3462V39.2039H53.0618C52.6317 39.2039 52.2798 39.5558 52.2798 39.9859V54.531C52.358 57.7997 56.8388 58.4018 57.8007 55.313H59.4272C59.0362 58.222 56.5417 60.4741 53.531 60.4741Z" fill="#0085FF"/>
</svg>
