<svg width="57" height="57" viewBox="0 0 57 57" fill="none" xmlns="http://www.w3.org/2000/svg">
<path d="M28.6087 51.54C22.4567 51.54 16.5566 49.0961 12.2064 44.7459C7.85624 40.3958 5.41234 34.4957 5.41234 28.3436C5.41234 22.1916 7.85624 16.2915 12.2064 11.9413C16.5566 7.59116 22.4567 5.14726 28.6087 5.14726C34.7608 5.14726 40.6609 7.59116 45.011 11.9413C49.3612 16.2915 51.8051 22.1916 51.8051 28.3436C51.8051 34.4957 49.3612 40.3958 45.011 44.7459C40.6609 49.0961 34.7608 51.54 28.6087 51.54ZM28.6087 54.8538C35.6396 54.8538 42.3826 52.0608 47.3542 47.0891C52.3258 42.1175 55.1189 35.3746 55.1189 28.3436C55.1189 21.3127 52.3258 14.5698 47.3542 9.59814C42.3826 4.62652 35.6396 1.8335 28.6087 1.8335C21.5778 1.8335 14.8348 4.62652 9.86321 9.59814C4.8916 14.5698 2.09857 21.3127 2.09857 28.3436C2.09857 35.3746 4.8916 42.1175 9.86321 47.0891C14.8348 52.0608 21.5778 54.8538 28.6087 54.8538Z" fill="#457EFF"/>
<path d="M27.6383 13.7877V30.608H44.4585" stroke="#457EFF" stroke-width="3.23466"/>
</svg>
