<svg width="100" height="43" viewBox="0 0 100 43" fill="none" xmlns="http://www.w3.org/2000/svg">
<path fill-rule="evenodd" clip-rule="evenodd" d="M0.257444 23.5909L0.822518 24.2028L4.25333 21.7958C4.89912 21.347 5.34311 20.7351 5.50456 19.9191L9.46008 3.43716C9.50044 3.31477 9.46008 3.23317 9.37936 3.15158C9.29863 3.06999 9.17754 3.06999 9.09682 3.11078L7.32087 3.96752L0.0556313 22.7341C-0.065456 23.0605 0.0152688 23.3869 0.257444 23.5909Z" fill="#7E7E7E"/>
<path fill-rule="evenodd" clip-rule="evenodd" d="M25.0804 18.7768L21.0038 2.00925L17.6133 0.336575C16.7253 -0.112192 15.7566 -0.112192 14.8687 0.336575L11.4782 2.00925L7.40161 18.7768C7.28053 19.2664 7.40161 19.7559 7.68415 20.1639C8.00705 20.5719 8.41067 20.7759 8.93539 20.7759H23.5062C23.9906 20.7759 24.4346 20.5719 24.7575 20.1639C25.0804 19.7559 25.2014 19.2664 25.0804 18.7768Z" fill="#7E7E7E"/>
<path fill-rule="evenodd" clip-rule="evenodd" d="M25.1207 4.00829L23.3448 3.15155C23.2641 3.11076 23.143 3.11076 23.0623 3.19235C22.9815 3.27394 22.9412 3.35554 22.9815 3.47793L26.9371 19.9599C27.1389 20.735 27.5425 21.347 28.1883 21.8366L31.6191 24.2436L32.1842 23.6724C32.4263 23.4276 32.4667 23.1013 32.3456 22.8157L25.1207 4.00829Z" fill="#7E7E7E"/>
<path fill-rule="evenodd" clip-rule="evenodd" d="M26.2912 22.3669H6.19073L2.23521 25.1411C2.15449 25.1819 2.11413 25.2635 2.11413 25.3451C2.11413 25.4267 2.11413 25.5083 2.19485 25.5491L14.3036 37.7882C14.3843 37.8698 14.3843 37.9922 14.3439 38.0738C14.3036 38.1554 14.2229 38.237 14.1018 38.237C12.2855 38.3186 10.5095 38.5225 8.77393 38.8489C6.31182 39.2977 3.89007 39.9504 1.54905 40.8072C0.983977 41.0112 0.661077 41.6639 0.903252 42.2351C1.10506 42.8062 1.75086 43.1326 2.31594 42.8878C4.49551 42.0719 6.79617 41.4599 9.13719 41.0112C11.4378 40.6032 13.7789 40.3992 16.2006 40.3992C18.6224 40.3992 20.9634 40.6032 23.264 41.0112C25.6051 41.4191 27.9057 42.0719 30.0853 42.8878C30.6504 43.0918 31.2962 42.8062 31.498 42.2351C31.6998 41.6639 31.4173 41.0112 30.8522 40.8072C28.5515 39.9504 26.1298 39.2977 23.6273 38.8489C21.8917 38.5225 20.1158 38.3186 18.2995 38.237C18.1784 38.237 18.0977 38.1554 18.0573 38.0738C18.0169 37.9922 18.0573 37.8698 18.0977 37.7882L30.2064 25.5491C30.2467 25.5083 30.2871 25.4267 30.2871 25.3451C30.2871 25.2635 30.2467 25.1819 30.166 25.1411L26.2912 22.3669Z" fill="#7E7E7E"/>
<path fill-rule="evenodd" clip-rule="evenodd" d="M80.3247 10.9338V31.5095H88.8366C88.8366 31.5095 88.8366 31.5095 88.8817 31.5095C94.5113 31.5095 99.06 26.9118 99.0149 21.2216C99.0149 15.5314 94.4662 10.9793 88.8817 10.9793C88.8817 10.9793 88.8817 10.9793 88.8366 10.9793L80.3247 10.9338ZM40.5573 10.9338H34.8827V31.5095H40.3772V20.7664L47.3128 31.464H52.9424V10.9338H47.4479V21.6313L40.5573 10.9338ZM71.2723 18.9H66.8587V24.4536H70.6418C69.696 25.6372 68.2549 26.4111 66.6335 26.4111C63.7962 26.4111 61.4994 24.0895 61.4994 21.2671C61.4994 18.3993 63.7962 16.0777 66.5885 16.0777C68.1198 16.0777 69.606 16.7605 70.5517 17.9896L74.4249 14.0747C72.3982 11.8442 69.5609 10.5696 66.5435 10.5696C60.6887 10.5696 55.9599 15.3949 55.9599 21.3127C55.9599 27.2305 60.7337 32.0102 66.5885 32.0102C71.0922 32.0102 75.1455 29.0968 76.5867 24.7723C76.947 23.6343 77.1721 22.4507 77.1721 21.2671C77.1721 20.4933 77.0821 19.7194 76.9019 18.9455H71.2723V18.9ZM85.8192 25.9559V16.4419H88.8817C91.4938 16.4419 93.5655 18.5814 93.5655 21.1761C93.5655 23.8163 91.4938 25.9103 88.8817 25.9103H85.8192V25.9559Z" fill="#7E7E7E"/>
</svg>
