<svg width="83" height="83" viewBox="0 0 83 83" fill="none" xmlns="http://www.w3.org/2000/svg">
<circle opacity="0.3" cx="41.5" cy="41.5" r="41.5" fill="#FCDDEC"/>
<path d="M62.2102 44.958C62.2102 44.7436 62.0866 44.5293 61.8969 44.4221L51.9462 38.6759L51.9709 28.5438C51.9709 28.3295 51.8473 28.1151 51.6577 28.0079L41.3937 22.0804C41.204 21.9732 40.965 21.9732 40.7753 22.0804L30.5773 28.0079C30.3877 28.1069 30.264 28.3377 30.264 28.5438L30.2393 38.6759L20.338 44.4304C20.1484 44.5293 20.0247 44.7601 20.0247 44.9662L20 55.4446C20 55.6672 20.1154 55.8733 20.3133 55.9805L30.5855 61.908C30.7587 62.0317 31.0307 62.007 31.2038 61.908L35.9278 59.1627C36.2246 58.9896 36.3235 58.6104 36.1504 58.3136C35.9772 58.0168 35.598 57.9178 35.3012 58.091L31.5089 60.2922L31.5336 51.2401L40.495 46.0297L40.4703 55.0818L37.9229 56.5658C37.6261 56.7389 37.5271 57.1182 37.7003 57.4149C37.8734 57.7117 38.2526 57.8107 38.5494 57.6375L41.0969 56.1618L51.0558 61.9163C51.229 62.0399 51.501 62.0152 51.6742 61.9163L61.8804 55.9887C62.0701 55.8815 62.1855 55.6754 62.1855 55.4528L62.1937 51.9161C62.1937 51.5781 61.9217 51.2978 61.5754 51.2978C61.2374 51.2978 60.9571 51.5698 60.9571 51.9161L60.9489 55.0983L51.9874 60.3087L52.0122 51.2565L60.9736 46.038L60.9653 49.0636C60.9653 49.4016 61.2374 49.6819 61.5837 49.6819C61.9217 49.6819 62.202 49.4098 62.202 49.0636L62.2102 44.958C62.2102 44.958 62.2102 44.9662 62.2102 44.958ZM40.5363 34.8341L40.5115 43.8945L31.4759 38.6759L31.5006 29.6156L40.5363 34.8341ZM30.8493 39.7477L39.885 44.9662L30.9153 50.1766L21.8797 44.958L30.8493 39.7477ZM41.7317 46.0297L50.7673 51.2483L50.7426 60.3087L41.7069 55.0901L41.7317 46.0297ZM51.3856 50.1766L42.35 44.958L51.3279 39.7477L60.3635 44.9662L51.3856 50.1766ZM41.0886 23.3335L50.1242 28.5521L45.2932 31.3551C44.9964 31.5282 44.8974 31.9074 45.0706 32.2042C45.2437 32.501 45.6229 32.6 45.9197 32.4268L50.7343 29.6238L50.7096 38.6759L41.7482 43.8862L41.7729 34.8341L43.4135 33.8861C43.7103 33.7129 43.8092 33.3337 43.6361 33.0369C43.4629 32.7401 43.0837 32.6412 42.7869 32.8143L41.1546 33.7624L32.1189 28.5438L41.0886 23.3335ZM21.2614 46.0297L30.297 51.2483L30.2723 60.3087L21.2366 55.0901L21.2614 46.0297Z" fill="#EF5DA8"/>
</svg>
