<svg width="71" height="72" viewBox="0 0 71 72" fill="none" xmlns="http://www.w3.org/2000/svg">
<path d="M62.5577 57.6149H50.7544H46.033V54.7828C52.7905 53.1495 57.8364 46.9909 57.8364 39.6335V34.8385H59.0167C62.2774 34.8385 64.9184 32.1563 64.9184 28.8447C64.9184 25.5331 62.2774 22.8509 59.0167 22.8509H57.8364V20.4534C57.8364 9.21506 48.8363 0.0745261 37.7707 0.0745261H33.0494V0.224371C28.5198 -0.285101 22.9428 0.0745261 16.3181 1.28827C15.7132 1.39316 15.3001 1.96257 15.3591 2.57693C15.4181 3.1913 15.9198 3.6708 16.5394 3.6708C17.8378 3.6708 18.9739 4.21024 19.9329 5.04937C15.5509 8.90038 12.9837 14.5345 12.9837 20.4534V22.8509H11.8033C8.54267 22.8509 5.90167 25.5331 5.90167 28.8447C5.90167 32.1563 8.54267 34.8385 11.8033 34.8385H12.9837V39.6335C12.9837 46.9909 18.0296 53.1495 24.787 54.7828V57.6149H20.0657H8.26234C3.7033 57.6149 0 61.376 0 66.0062V72H2.36067V66.0062C2.36067 62.6946 5.00167 60.0124 8.26234 60.0124H19.5788L29.8625 70.4566C30.0838 70.6814 30.3789 70.8012 30.7035 70.8012C30.733 70.8012 30.7477 70.8012 30.7625 70.8012C31.1018 70.7863 31.4117 70.6214 31.6182 70.3517L35.4248 65.5267L39.2314 70.3517C39.4379 70.6214 39.7478 70.7863 40.0871 70.8012C40.1019 70.8012 40.1314 70.8012 40.1461 70.8012C40.456 70.8012 40.7658 70.6814 40.9871 70.4566L51.2708 60.0124H62.5577C65.8184 60.0124 68.4594 62.6946 68.4594 66.0062V72H70.8201V66.0062C70.8201 61.376 67.1168 57.6149 62.5577 57.6149ZM57.8364 25.2484H59.0167C60.9643 25.2484 62.5577 26.8668 62.5577 28.8447C62.5577 30.8227 60.9643 32.441 59.0167 32.441H57.8364V25.2484ZM12.9837 32.441H11.8033C9.85579 32.441 8.26234 30.8227 8.26234 28.8447C8.26234 26.8668 9.85579 25.2484 11.8033 25.2484H12.9837V32.441ZM52.5249 10.5337C54.3839 13.3807 55.4757 16.7972 55.4757 20.4534V23.8249C54.1036 23.3304 53.1151 22.0118 53.1151 20.4534C53.1151 17.4415 51.2708 14.8492 48.674 13.7853L52.5249 10.5337ZM37.7707 25.2484H33.0494H19.0329L17.9853 24.9787C19.2542 23.8849 20.0657 22.2665 20.0657 20.4534C20.0657 17.8461 22.1165 15.7333 24.669 15.6584L35.1592 18.0259C35.3215 18.0559 35.4986 18.0559 35.6756 18.0259L46.1658 15.6584C48.7183 15.7183 50.7691 17.8461 50.7691 20.4534C50.7691 22.2665 51.5806 23.8849 52.8495 24.9787L51.8019 25.2484H37.7707ZM50.7544 27.646V32.441C50.7544 33.1003 50.2232 33.6397 49.5741 33.6397H40.1314C39.4822 33.6397 38.951 33.1003 38.951 32.441V27.646H50.7544ZM31.869 27.646V32.441C31.869 33.1003 31.3379 33.6397 30.6887 33.6397H21.246C20.5968 33.6397 20.0657 33.1003 20.0657 32.441V27.646H31.869ZM51.079 8.63066L47.0511 12.0471C46.6232 8.61568 45.2363 5.87352 42.9199 3.91055C42.492 3.53594 42.0052 3.20628 41.5035 2.89161C45.2806 3.70077 48.615 5.76863 51.079 8.63066ZM41.4002 5.73866C43.5248 7.53679 44.6462 10.0991 44.8232 13.5006L35.41 15.6284L25.9231 13.4856C25.6723 9.72453 24.0493 5.30411 21.128 2.95154C30.8657 1.63291 37.6674 2.57693 41.4002 5.73866ZM15.3443 20.4534C15.3443 15.2388 17.6165 10.2939 21.4526 6.89246C22.6477 8.78051 23.3706 11.223 23.5477 13.3807C20.228 13.9801 17.705 16.9171 17.705 20.4534C17.705 22.0118 16.7165 23.3304 15.3443 23.8249V20.4534ZM15.3443 39.6335V33.6397V26.7769L17.705 27.3762V32.441C17.705 34.4189 19.2985 36.0373 21.246 36.0373H30.6887C32.6363 36.0373 34.2297 34.4189 34.2297 32.441V27.646H36.5904V32.441C36.5904 34.4189 38.1838 36.0373 40.1314 36.0373H49.5741C51.5216 36.0373 53.1151 34.4189 53.1151 32.441V27.3762L55.4757 26.7769V33.6397V39.6335C55.4757 46.1518 50.7839 51.5612 44.6609 52.6251C44.2921 52.685 43.9232 52.73 43.5839 52.7749C43.2298 52.8049 42.8609 52.8349 42.492 52.8349H28.328C27.9592 52.8349 27.6051 52.8049 27.2362 52.7749C26.8969 52.745 26.5428 52.7 26.1592 52.6251C20.0362 51.5612 15.3443 46.1518 15.3443 39.6335ZM30.5854 67.8043L22.9132 60.0124H25.687L33.5805 64.0133L30.5854 67.8043ZM27.1477 58.0644V55.1575C27.5461 55.1874 27.9444 55.2174 28.328 55.2174H42.492C42.8757 55.2174 43.274 55.2024 43.6724 55.1575V58.0644L35.41 62.2601L27.1477 58.0644ZM40.2347 67.8043L37.2543 64.0133L45.1478 60.0124H47.9216L40.2347 67.8043Z" fill="#022E49"/>
</svg>
