<svg width="70" height="72" viewBox="0 0 70 72" fill="none" xmlns="http://www.w3.org/2000/svg">
<path d="M67.4391 42.1755H66.3564V32.473C66.3564 30.9403 65.597 29.5763 64.4299 28.7467V27.4249C64.4299 25.5125 62.8691 23.9517 60.9567 23.9517H60.1552L63.2347 19.4379C64.2612 17.9193 63.8675 15.8523 62.3629 14.8258L41.4674 0.581417C40.7362 0.0752019 39.8504 -0.107598 38.9785 0.0611404C38.1067 0.229879 37.3474 0.722033 36.8552 1.45323L18.8143 27.9171H13.8084L15.0177 15.6695C15.0317 15.5288 15.1161 15.4163 15.2427 15.3601C16.8035 14.7695 18.1534 13.6727 19.0533 12.2666C19.1236 12.1541 19.2502 12.0978 19.3908 12.1119L27.2653 12.8853C27.8277 12.9415 28.334 12.5337 28.3902 11.9713C28.4464 11.4088 28.0387 10.9026 27.4762 10.8463L19.6017 10.073C18.6877 9.98859 17.8159 10.4104 17.3238 11.1698C16.6629 12.1963 15.6786 13.0118 14.5255 13.4477C13.6678 13.7711 13.0631 14.5445 12.9787 15.4726L11.7554 27.9311H10.4477L12.346 8.52619C12.4163 7.82311 13.035 7.3169 13.7381 7.38721L29.6417 8.9621C30.2041 9.01834 30.7104 8.61056 30.7666 8.0481C30.8228 7.48564 30.4151 6.97942 29.8526 6.92317L13.9349 5.34828C12.1069 5.16548 10.4758 6.50133 10.3071 8.32933L8.76028 23.9517H6.13077C4.2184 23.9517 2.65757 25.5125 2.65757 27.4249V28.3248C1.09674 29.042 -6.10352e-05 30.6309 -6.10352e-05 32.473V67.4441C-6.10352e-05 69.9611 2.03886 72 4.55588 72H61.8004C64.3174 72 66.3564 69.9611 66.3564 67.4441V57.7416H67.4391C68.7046 57.7416 69.7452 56.701 69.7452 55.4355V44.4816C69.7452 43.216 68.7046 42.1755 67.4391 42.1755ZM60.9567 26.0047C61.7442 26.0047 62.377 26.6375 62.377 27.4249V27.9452C62.1942 27.9171 61.9973 27.903 61.8004 27.903H57.4413L58.7491 25.9906H60.9567V26.0047ZM38.5426 2.60628C38.7395 2.32505 39.0207 2.14225 39.3582 2.07194C39.4426 2.05788 39.5129 2.04382 39.5973 2.04382C39.8504 2.04382 40.1035 2.11413 40.3144 2.2688L61.1958 16.4991C61.7723 16.8928 61.927 17.6803 61.5333 18.2708L54.9665 27.903H53.3916L56.6117 23.1783C57.132 22.419 57.1742 21.4347 56.7242 20.6332C56.1196 19.5645 55.8805 18.313 56.0352 17.0897C56.1477 16.1897 55.754 15.3039 54.9946 14.7836L44.1673 7.40127C43.4079 6.88099 42.4377 6.83881 41.6502 7.27471C40.5816 7.8653 39.316 8.10434 38.1067 7.93561C37.2068 7.80905 36.2928 8.21684 35.7866 8.97616L22.8921 27.903H21.3172L38.5426 2.60628ZM38.9926 20.0285C34.521 20.0285 30.851 23.5158 30.5557 27.903H25.3529L37.4599 10.1433C37.5302 10.0448 37.6427 9.98859 37.7552 9.98859C37.7692 9.98859 37.7833 9.98859 37.7974 9.98859C39.4426 10.2136 41.1581 9.90422 42.6205 9.10271C42.733 9.03241 42.8876 9.04647 43.0001 9.13084L53.8275 16.5131C53.94 16.5975 53.9963 16.7241 53.9822 16.8506C53.7713 18.4958 54.0947 20.2113 54.9103 21.6597C54.9806 21.7722 54.9665 21.9268 54.8962 22.0393L50.9027 27.9171H47.4295C47.1342 23.5158 43.4642 20.0285 38.9926 20.0285ZM45.3765 27.9171H32.6227C32.918 24.6548 35.66 22.0956 38.9926 22.0956C42.3252 22.0815 45.0813 24.6548 45.3765 27.9171ZM4.71056 27.4249C4.71056 26.6375 5.34333 26.0047 6.13077 26.0047H8.54936L8.36656 27.9171H4.71056V27.4249ZM2.05292 32.473C2.05292 31.095 3.17785 29.97 4.55588 29.97H61.8004C63.1785 29.97 64.3034 31.095 64.3034 32.473V35.3134H2.05292V32.473ZM64.3034 67.4441C64.3034 68.8221 63.1785 69.947 61.8004 69.947H4.55588C3.17785 69.947 2.05292 68.8221 2.05292 67.4441V64.6036H7.57911C8.14157 64.6036 8.6056 64.1396 8.6056 63.5771C8.6056 63.0147 8.14157 62.5506 7.57911 62.5506H2.05292V37.3805H64.3034V42.1895H54.5587C51.4793 42.1895 48.8216 43.9753 47.5561 46.5767C47.5561 46.5908 47.542 46.5908 47.542 46.6049C47.528 46.633 47.528 46.647 47.5139 46.6752C47.3592 46.9986 47.2327 47.322 47.1202 47.6735C46.8952 48.4047 46.7686 49.1781 46.7686 49.9796C46.7686 54.2684 50.2559 57.7557 54.5447 57.7557H64.3034V62.5647H14.1459C13.5834 62.5647 13.1194 63.0287 13.1194 63.5912C13.1194 64.1537 13.5834 64.6177 14.1459 64.6177H64.3034V67.4441V67.4441ZM67.6922 55.4355C67.6922 55.5761 67.5797 55.6886 67.4391 55.6886H54.5587C52.3933 55.6886 50.4949 54.4793 49.5247 52.6935C49.4825 52.6091 49.4403 52.5248 49.3981 52.4404C49.3138 52.2717 49.2435 52.1029 49.1872 51.9201C48.9622 51.3014 48.8357 50.6405 48.8357 49.9515C48.8357 49.2625 48.9622 48.6016 49.1872 47.9829C49.2575 47.8142 49.3278 47.6313 49.3981 47.4626C49.4403 47.3782 49.4825 47.2939 49.5247 47.2095C50.4949 45.4237 52.3933 44.2144 54.5587 44.2144H67.4391C67.5797 44.2144 67.6922 44.3269 67.6922 44.4675V55.4355Z" fill="#022E49"/>
<path d="M54.7978 45.7893C52.5058 45.7893 50.6356 47.6595 50.6356 49.9515C50.6356 52.2436 52.5058 54.1137 54.7978 54.1137C57.0899 54.1137 58.9601 52.2436 58.9601 49.9515C58.9601 47.6595 57.0899 45.7893 54.7978 45.7893ZM54.7978 52.0608C53.6307 52.0608 52.6886 51.1186 52.6886 49.9515C52.6886 48.7844 53.6307 47.8423 54.7978 47.8423C55.9649 47.8423 56.9071 48.7844 56.9071 49.9515C56.9071 51.1186 55.9509 52.0608 54.7978 52.0608Z" fill="#022E49"/>
</svg>
