<svg width="419" height="547" viewBox="0 0 419 547" fill="none" xmlns="http://www.w3.org/2000/svg">
<path fill-rule="evenodd" clip-rule="evenodd" d="M46.8405 581.745C41.8219 577.145 37.6398 571.709 33.8758 565.018C30.1119 558.745 27.1844 551.636 25.0933 544.527C23.0022 537.417 22.1658 529.89 22.1658 522.363C22.1658 507.726 25.9297 493.926 33.0394 481.799C40.1491 469.253 50.1862 459.635 62.3145 452.526C74.8609 445.417 88.2438 441.653 103.3 441.653C126.301 441.653 145.539 450.017 161.85 466.744L209.108 419.489H0.418604L0.000394821 629L46.8405 581.745Z" fill="#23454F"/>
<path fill-rule="evenodd" clip-rule="evenodd" d="M162.268 467.58L48.5131 581.327C56.041 588.436 64.8235 594.291 74.4425 598.054C83.6432 602.236 94.0986 603.909 104.554 603.909C119.192 603.909 132.574 600.145 144.703 593.036C156.831 585.927 166.868 575.89 173.978 563.763C181.087 551.636 184.851 538.254 184.851 523.617C184.851 512.744 182.76 502.708 178.996 493.09C175.232 483.472 169.377 475.108 162.268 467.58Z" fill="#A3C516"/>
<path d="M278.95 559.163H348.792V489.326H278.95V559.163Z" fill="#23454F"/>
<path d="M348.792 489.326H418.634V419.489H348.792V489.326Z" fill="#45B175"/>
<path d="M209.108 489.326H278.95V419.489H209.108V489.326Z" fill="#45B175"/>
<path d="M388.522 419.489H418.634V209.979H388.522V419.489Z" fill="#A3C516"/>
<path d="M328.717 419.489H358.829V209.979H328.717V419.489Z" fill="#45B175"/>
<path d="M268.913 419.489H299.024V209.979H268.913V419.489Z" fill="#A3C516"/>
<path d="M209.108 419.489H239.219V209.979H209.108V419.489Z" fill="#45B175"/>
<path d="M139.684 419.489H209.526V349.652H139.684V419.489Z" fill="#23454F"/>
<path d="M0.000259399 419.489H69.8423V349.652H0.000259399V419.489Z" fill="#23454F"/>
<path d="M69.8418 349.652H139.684V279.815H69.8418V349.652Z" fill="#45B175"/>
<path d="M139.684 279.816H209.526V209.979H139.684V279.816Z" fill="#23454F"/>
<path d="M0.000259399 279.816H69.8423V209.979H0.000259399V279.816Z" fill="#23454F"/>
<path fill-rule="evenodd" clip-rule="evenodd" d="M371.794 47.7227C376.812 52.3227 380.994 57.7591 384.758 64.4501C388.522 70.7229 391.45 77.832 393.541 84.9412C395.632 92.0503 396.468 99.5776 396.468 107.105C396.468 121.741 392.704 135.542 385.595 147.669C378.485 160.214 368.448 169.833 356.32 176.942C343.773 184.051 330.39 187.815 315.335 187.815C292.333 187.815 273.095 179.451 256.784 162.724L209.526 209.979H418.216L418.634 0.467768L371.794 47.7227Z" fill="#A3C516"/>
<path fill-rule="evenodd" clip-rule="evenodd" d="M256.366 161.887L370.12 48.1407C362.592 41.0316 353.81 35.177 344.191 31.4133C334.572 27.6497 324.535 25.5588 313.661 25.5588C299.024 25.5588 285.641 29.3224 273.513 36.4316C261.384 43.5407 251.347 53.5771 244.238 65.7045C237.128 77.8319 233.364 91.2138 233.364 105.85C233.364 116.723 235.455 126.76 239.219 136.378C243.401 145.996 249.256 154.36 256.366 161.887Z" fill="#23454F"/>
<path d="M0.00038147 30.577H209.526V0.467705H0.00038147V30.577Z" fill="#45B175"/>
<path d="M0.00038147 90.3777H209.526V60.2684H0.00038147V90.3777Z" fill="#A3C516"/>
<path d="M0.00038147 150.178H209.526V120.069H0.00038147V150.178Z" fill="#45B175"/>
<path d="M0.00038147 209.979H209.526V179.869H0.00038147V209.979Z" fill="#A3C516"/>
</svg>
