<svg width="44" height="27" viewBox="0 0 44 27" fill="none" xmlns="http://www.w3.org/2000/svg">
<path d="M30 25C36.6274 25 42 19.6274 42 13C42 6.37258 36.6274 1 30 1C23.3726 1 18 6.37258 18 13C18 19.6274 23.3726 25 30 25Z" stroke="#45B175" stroke-width="2" stroke-linecap="round" stroke-linejoin="round"/>
<path d="M39 22L43 26" stroke="#45B175" stroke-width="2" stroke-linecap="round" stroke-linejoin="round"/>
<path fill-rule="evenodd" clip-rule="evenodd" d="M12 13.83C12 14.2884 11.6284 14.66 11.17 14.66H0.83C0.371604 14.66 0 14.2884 0 13.83V13.83C0 13.3716 0.371604 13 0.83 13H11.17C11.6284 13 12 13.3716 12 13.83V13.83Z" fill="#45B175"/>
<path fill-rule="evenodd" clip-rule="evenodd" d="M11.9948 6.58305C11.9185 7.03505 11.4903 7.33963 11.0383 7.26335L6.11786 6.43294C5.66586 6.35665 5.36127 5.92839 5.43756 5.47639V5.47639C5.51384 5.02438 5.94211 4.7198 6.39411 4.79608L11.3145 5.6265C11.7665 5.70278 12.0711 6.13104 11.9948 6.58305V6.58305Z" fill="#45B175"/>
<path fill-rule="evenodd" clip-rule="evenodd" d="M5.27108 21.7444C5.34736 22.1964 5.77563 22.501 6.22763 22.4247L11.1467 21.5946C11.5987 21.5183 11.9033 21.09 11.827 20.638V20.638C11.7507 20.186 11.3224 19.8814 10.8704 19.9577L5.95138 20.7879C5.49938 20.8642 5.1948 21.2924 5.27108 21.7444V21.7444Z" fill="#45B175"/>
</svg>
