<svg width="56" height="56" viewBox="0 0 56 56" fill="none" xmlns="http://www.w3.org/2000/svg">
<path d="M51.0258 0H17.6274C15.0646 0 12.9888 2.0758 12.9888 4.63867V17.6269H14.8442V4.63867C14.8442 3.09631 16.0851 1.85547 17.6274 1.85547H51.0258C52.5682 1.85547 53.809 3.09631 53.809 4.63867V25.9765H25.0493V27.832H53.809V29.6875C53.809 31.2298 52.5682 32.4707 51.0258 32.4707H30.6157V34.3261H37.3186L38.7102 39.8925H30.6157V41.748H43.604V39.8925H40.612L39.2204 34.3261H51.0258C53.5887 34.3261 55.6645 32.2503 55.6645 29.6875V4.63867C55.6645 2.0758 53.5887 0 51.0258 0Z" fill="#23454F"/>
<path d="M18.5551 3.71094H16.6996V5.5664H18.5551V3.71094Z" fill="#23454F"/>
<path d="M22.266 3.71094H20.4106V5.5664H22.266V3.71094Z" fill="#23454F"/>
<path d="M25.9769 3.71094H24.1215V5.5664H25.9769V3.71094Z" fill="#23454F"/>
<path d="M18.5551 7.42212H16.6996V17.6272H18.5551V7.42212Z" fill="#23454F"/>
<path d="M51.9536 22.2659H25.0493V24.1213H51.9536V22.2659Z" fill="#23454F"/>
<path d="M22.266 16.6992H20.4106V18.5547H22.266V16.6992Z" fill="#23454F"/>
<path d="M25.9769 15.7715H24.1215V20.4102H25.9769V15.7715Z" fill="#23454F"/>
<path d="M29.6879 16.6992H27.8324V20.4102H29.6879V16.6992Z" fill="#23454F"/>
<path d="M33.3989 13.916H31.5435V20.4101H33.3989V13.916Z" fill="#23454F"/>
<path d="M37.1099 12.0608H35.2544V20.4104H37.1099V12.0608Z" fill="#23454F"/>
<path d="M40.8206 13.916H38.9651V20.4101H40.8206V13.916Z" fill="#23454F"/>
<path d="M44.5314 10.2051H42.676V20.4101H44.5314V10.2051Z" fill="#23454F"/>
<path d="M48.2424 8.34961H46.3869V20.4101H48.2424V8.34961Z" fill="#23454F"/>
<path d="M51.9534 7.42212H50.098V20.4104H51.9534V7.42212Z" fill="#23454F"/>
<path d="M30.9403 50.8398L28.7602 47.929V38.9648C28.7486 33.6419 25.5015 28.8757 20.5613 26.9043L23.0894 22.0568C23.3097 21.6278 23.1706 21.1059 22.7647 20.8508L21.8369 20.2594C20.4106 19.3548 18.6131 19.2505 17.0823 19.9694C16.2474 20.3637 15.2848 20.3637 14.4499 19.9694C12.9191 19.2389 11.1332 19.3432 9.69524 20.2594L8.76751 20.8508C8.36163 21.1059 8.22247 21.6278 8.44281 22.0568L10.9825 26.9043C6.0423 28.8757 2.79523 33.6419 2.78363 38.9648V47.929L0.603462 50.8398C-0.393851 52.1734 -0.127127 54.0636 1.20649 55.061C1.72834 55.4552 2.36615 55.664 3.01557 55.664H28.5282C30.1981 55.664 31.5434 54.3188 31.5434 52.6488C31.5434 51.9994 31.3346 51.3616 30.9403 50.8398ZM10.4954 21.9525L10.7042 21.8133C11.5855 21.2567 12.6988 21.1871 13.6497 21.6394C14.9949 22.2772 16.5489 22.2772 17.8941 21.6394C18.845 21.1871 19.9583 21.2567 20.8396 21.8133L21.06 21.9525L18.7754 26.3476C16.804 25.8606 14.7514 25.8606 12.78 26.3476L10.4954 21.9525ZM29.224 53.5766C29.0269 53.7273 28.7717 53.8085 28.5282 53.8085H3.01557C2.37775 53.8085 1.8559 53.2867 1.8559 52.6488C1.8559 52.3937 1.93708 52.1502 2.08783 51.953L4.45355 48.7988C4.56952 48.6364 4.6391 48.4393 4.6391 48.2421V38.9648C4.6391 32.8185 9.62566 27.832 15.7719 27.832C21.9181 27.832 26.9047 32.8185 26.9047 38.9648V48.2421C26.9047 48.4393 26.9743 48.6364 27.0902 48.7988L29.456 51.953C29.8386 52.4633 29.7343 53.1939 29.224 53.5766Z" fill="#45B175"/>
<path d="M35.7183 43.6035C33.4105 43.6035 31.5435 45.4706 31.5435 47.7783C31.5435 50.086 33.4105 51.9531 35.7183 51.9531C38.026 51.9531 39.8931 50.086 39.8931 47.7783C39.8931 45.4706 38.026 43.6035 35.7183 43.6035ZM35.7183 50.0976C34.4426 50.0976 33.3989 49.0539 33.3989 47.7783C33.3989 46.5027 34.4426 45.459 35.7183 45.459C36.9939 45.459 38.0376 46.5027 38.0376 47.7783C38.0376 49.0539 36.9939 50.0976 35.7183 50.0976Z" fill="#23454F"/>
<path d="M44.9954 47.3142C42.6876 47.3142 40.8206 49.1813 40.8206 51.489C40.8206 53.7967 42.6876 55.6638 44.9954 55.6638C47.3031 55.6638 49.1702 53.7967 49.1702 51.489C49.1702 49.1813 47.3031 47.3142 44.9954 47.3142ZM44.9954 53.8083C43.7197 53.8083 42.676 52.7646 42.676 51.489C42.676 50.2134 43.7197 49.1697 44.9954 49.1697C46.271 49.1697 47.3147 50.2134 47.3147 51.489C47.3147 52.7646 46.271 53.8083 44.9954 53.8083Z" fill="#23454F"/>
<path d="M9.26621 14.693C9.19663 14.2987 8.89512 13.9972 8.50083 13.9276C6.99326 13.6725 5.8104 12.4896 5.55528 10.982C5.4741 10.4718 4.98704 10.1355 4.48838 10.2167C4.0941 10.2862 3.79258 10.5878 3.723 10.982C3.46788 12.4896 2.28502 13.6725 0.777452 13.9276C0.267199 14.0088 -0.0691045 14.4958 0.0120722 14.9945C0.0816521 15.3888 0.383165 15.6903 0.777452 15.7599C2.28502 16.015 3.46788 17.1979 3.723 18.7054C3.80418 19.2157 4.29124 19.552 4.7899 19.4708C5.18418 19.4012 5.4857 19.0997 5.55528 18.7054C5.8104 17.1979 6.99326 16.015 8.50083 15.7599C9.01108 15.6787 9.34739 15.1916 9.26621 14.693ZM4.63914 16.1658C4.27964 15.6555 3.82737 15.2032 3.31712 14.8437C3.82737 14.4842 4.27964 14.032 4.63914 13.5217C4.99864 14.032 5.45091 14.4842 5.96116 14.8437C5.45091 15.2032 4.99864 15.6555 4.63914 16.1658Z" fill="#45B175"/>
<path d="M17.6719 44.5086C17.4059 44.5086 17.1603 44.3859 16.9966 44.1608L13.1289 39.0456V43.946C13.1289 44.2836 12.8527 44.5598 12.515 44.5598C12.1774 44.5598 11.9011 44.2836 11.9011 43.946V37.8588C11.9011 37.5315 12.0751 37.2143 12.3718 37.0813C12.7401 36.9074 13.1699 37.0199 13.4052 37.3473L17.2729 42.5751V37.7668C17.2729 37.4292 17.5491 37.1529 17.8868 37.1529C18.2244 37.1529 18.5007 37.4292 18.5007 37.7668V43.6493C18.5007 43.9869 18.3063 44.304 17.9993 44.437C17.897 44.4882 17.7844 44.5086 17.6719 44.5086Z" fill="#45B175"/>
<path fill-rule="evenodd" clip-rule="evenodd" d="M11 40.0073C11 39.7413 11.2157 39.5256 11.4817 39.5256H18.9202C19.1863 39.5256 19.4019 39.7413 19.4019 40.0073C19.4019 40.2732 19.1863 40.4889 18.9202 40.4889H11.4817C11.2157 40.4889 11 40.2732 11 40.0073Z" fill="#45B175"/>
<path fill-rule="evenodd" clip-rule="evenodd" d="M11 41.5929C11 41.327 11.2157 41.1113 11.4817 41.1113H18.9202C19.1863 41.1113 19.4019 41.327 19.4019 41.5929C19.4019 41.8589 19.1863 42.0746 18.9202 42.0746H11.4817C11.2157 42.0746 11 41.8589 11 41.5929Z" fill="#45B175"/>
</svg>
