<svg width="419" height="362" viewBox="0 0 419 362" fill="none" xmlns="http://www.w3.org/2000/svg">
<path d="M30.1115 -57.4894H0V152.021H30.1115V-57.4894Z" fill="#A3C516"/>
<path d="M89.9164 -57.4894H59.8049V152.021H89.9164V-57.4894Z" fill="#45B175"/>
<path d="M149.721 -57.4894H119.609V152.021H149.721V-57.4894Z" fill="#A3C516"/>
<path d="M209.526 -57.4894H179.415V152.021H209.526V-57.4894Z" fill="#45B175"/>
<path d="M278.95 -57.4894H209.108V12.3475H278.95V-57.4894Z" fill="#23454F"/>
<path d="M418.634 -57.4894H348.792V12.3475H418.634V-57.4894Z" fill="#23454F"/>
<path d="M348.792 12.3477H278.95V82.1846H348.792V12.3477Z" fill="#45B175"/>
<path d="M278.95 82.1844H209.108V152.021H278.95V82.1844Z" fill="#23454F"/>
<path d="M418.634 82.1844H348.792V152.021H418.634V82.1844Z" fill="#23454F"/>
<path fill-rule="evenodd" clip-rule="evenodd" d="M46.8401 314.277C41.8215 309.677 37.6394 304.241 33.8755 297.55C30.1115 291.277 27.184 284.168 25.0929 277.059C23.0018 269.95 22.1654 262.422 22.1654 254.895C22.1654 240.259 25.9294 226.458 33.039 214.331C40.1487 201.786 50.1859 192.167 62.3141 185.058C74.8606 177.949 88.2434 174.185 103.299 174.185C126.301 174.185 145.539 182.549 161.849 199.276L209.108 152.021H0.418241L0 361.532L46.8401 314.277Z" fill="#A3C516"/>
<path fill-rule="evenodd" clip-rule="evenodd" d="M162.268 200.113L48.5132 313.859C56.0411 320.968 64.8236 326.823 74.4425 330.587C84.0615 334.35 94.0986 336.441 104.972 336.441C119.61 336.441 132.993 332.678 145.121 325.568C157.249 318.459 167.286 308.423 174.396 296.295C181.506 284.168 185.27 270.786 185.27 256.15C185.27 245.277 183.178 235.24 179.415 225.622C175.232 216.004 169.377 207.64 162.268 200.113Z" fill="#23454F"/>
<path d="M418.633 331.423H209.108V361.532H418.633V331.423Z" fill="#45B175"/>
<path d="M418.633 271.622H209.108V301.732H418.633V271.622Z" fill="#A3C516"/>
<path d="M418.633 211.822H209.108V241.931H418.633V211.822Z" fill="#45B175"/>
<path d="M418.633 152.021H209.108V182.131H418.633V152.021Z" fill="#A3C516"/>
</svg>
