<svg width="86" height="72" viewBox="0 0 86 72" fill="none" xmlns="http://www.w3.org/2000/svg">
<path d="M25.5746 30.9855H10.9454C10.2227 30.9855 9.62347 31.5847 9.62347 32.3074C9.62347 33.03 10.2227 33.6293 10.9454 33.6293H25.5746C26.2972 33.6293 26.8965 33.03 26.8965 32.3074C26.8965 31.5847 26.2972 30.9855 25.5746 30.9855Z" fill="#022E49"/>
<path d="M25.5746 24.4114H10.9454C10.2227 24.4114 9.62347 25.0106 9.62347 25.7333C9.62347 26.4559 10.2227 27.0552 10.9454 27.0552H25.5746C26.2972 27.0552 26.8965 26.4559 26.8965 25.7333C26.8965 25.0106 26.2972 24.4114 25.5746 24.4114Z" fill="#022E49"/>
<path d="M48.2586 67.5585L6.04548 67.5762C4.15956 67.5762 2.64376 66.0604 2.64376 64.1744V20.6042C2.64376 18.7183 4.17718 17.2025 6.04548 17.2025H46.7251C49.087 17.2025 51.2549 15.8101 52.2243 13.6598L56.3487 4.63551C56.8951 3.41935 58.1112 2.64382 59.4507 2.64382H78.1867C80.0726 2.64382 81.5884 4.15962 81.5884 6.04555V35.956C81.5884 36.6787 82.1876 37.2779 82.9103 37.2779C83.6329 37.2779 84.2322 36.6787 84.2322 35.956V6.04555C84.2322 2.6967 81.5179 0 78.1867 0L59.4507 0C57.0889 0 54.9386 1.39241 53.9516 3.54273L53.2466 5.07614L6.04548 5.05852C2.71427 5.05852 -6.10352e-05 7.77284 -6.10352e-05 11.1041V64.1568C-6.10352e-05 67.5057 2.69664 70.2024 6.04548 70.2024L48.2586 70.1847C48.9812 70.1847 49.5805 69.5855 49.5805 68.8628C49.5805 68.1578 48.9988 67.5585 48.2586 67.5585ZM6.04548 7.70234L52.0304 7.71997L49.8096 12.567C49.2632 13.7831 48.047 14.5587 46.7075 14.5587H6.04548C4.77645 14.5587 3.61317 14.9464 2.64376 15.6162V11.1041C2.64376 9.23576 4.15956 7.70234 6.04548 7.70234Z" fill="#022E49"/>
<path d="M76.4594 52.2067C75.9483 51.6956 75.1199 51.6956 74.6087 52.2067L69.0215 57.794L66.6773 55.4674C66.1661 54.9563 65.3377 54.9563 64.8266 55.4674C64.3155 55.9786 64.3155 56.807 64.8266 57.3181L68.0873 60.5788C68.3341 60.8256 68.669 60.9666 69.0038 60.9666C69.3387 60.9666 69.6736 60.8432 69.9204 60.5788L76.4418 54.0574C76.9706 53.5286 76.9706 52.7179 76.4594 52.2067Z" fill="#022E49"/>
<path d="M84.0032 55.0795C83.2806 55.0795 82.6989 55.6611 82.6989 56.3837C82.6989 63.5749 76.8473 69.409 69.6737 69.409C62.5001 69.409 56.6484 63.5573 56.6484 56.3837C56.6484 49.2102 62.5001 43.3585 69.6737 43.3585C73.1635 43.3585 76.4595 44.7333 78.9271 47.2009C79.4382 47.712 80.2666 47.712 80.7777 47.2009C81.2889 46.6897 81.2889 45.8613 80.7777 45.3502C77.8167 42.3715 73.8862 40.7323 69.6913 40.7323C61.0724 40.7323 54.0575 47.7472 54.0575 56.3661C54.0575 64.985 61.0724 71.9999 69.6913 71.9999C78.3102 71.9999 85.3251 64.985 85.3251 56.3661C85.3075 55.6611 84.7259 55.0795 84.0032 55.0795Z" fill="#022E49"/>
</svg>
