<svg width="72" height="72" viewBox="0 0 72 72" fill="none" xmlns="http://www.w3.org/2000/svg">
<path fill-rule="evenodd" clip-rule="evenodd" d="M72 35.9642C72 29.6181 70.33 23.3785 67.1495 17.9133C66.6403 17.0426 65.5126 16.7471 64.6415 17.2564C63.7706 17.7655 63.4751 18.8933 63.9844 19.7645L63.9855 19.7663C66.8281 24.6681 68.3402 30.2796 68.3402 35.9821C68.3402 53.8198 53.8376 68.3223 36 68.3223C18.1623 68.3223 3.65983 53.8198 3.65983 35.9821C3.65983 18.1445 18.1623 3.64195 36 3.64195C44.9267 3.64195 53.2374 7.21437 59.3942 13.6626L59.3962 13.6648C60.092 14.4006 61.243 14.4303 61.9837 13.73C62.7192 13.0346 62.7493 11.8843 62.05 11.1435C55.1755 3.95332 45.9325 0 36 0C16.1549 0 0 16.1549 0 36C0 55.8451 16.1549 72 36 72C55.8447 72 72 55.8455 72 35.9642Z" fill="#022E49"/>
<path fill-rule="evenodd" clip-rule="evenodd" d="M54.8533 41.5989C55.8019 41.9329 56.3 42.9771 55.9641 43.931L55.9641 43.9311C52.618 53.4289 43.6072 59.7908 33.551 59.7908C23.4963 59.7908 14.502 53.4123 11.1377 43.9305C10.8022 42.9767 11.3003 41.9328 12.2488 41.5989C13.2027 41.263 14.247 41.761 14.581 42.7097L14.581 42.7097L14.5816 42.7114C17.4386 50.7477 25.0509 56.131 33.551 56.131C42.0517 56.131 49.6635 50.7293 52.5202 42.7119L52.521 42.7097C52.8551 41.761 53.8993 41.263 54.8533 41.5989Z" fill="#022E49"/>
<path fill-rule="evenodd" clip-rule="evenodd" d="M28.0428 31.1021H28.0427L28.0428 31.1101C28.0562 32.1268 27.242 32.9409 26.2397 32.9409C25.2331 32.9409 24.4008 32.1208 24.4008 31.1021C24.4008 29.4273 23.0401 28.0429 21.3416 28.0429C19.6461 28.0429 18.2824 29.4065 18.2824 31.1021C18.2824 32.1087 17.4623 32.9409 16.4436 32.9409C15.422 32.9409 14.6047 32.1237 14.6047 31.1021C14.6047 27.3991 17.6207 24.3831 21.3238 24.3831C25.0268 24.3831 28.0428 27.3991 28.0428 31.1021Z" fill="#022E49"/>
<path fill-rule="evenodd" clip-rule="evenodd" d="M50.0125 31.102H50.0124L50.0125 31.1101C50.0259 32.1268 49.2117 32.9409 48.2094 32.9409C47.2027 32.9409 46.3705 32.1207 46.3705 31.102C46.3705 29.4273 45.0098 28.0429 43.3113 28.0429C41.6365 28.0429 40.2521 29.4036 40.2521 31.102C40.2521 32.1087 39.432 32.9409 38.4133 32.9409C37.3917 32.9409 36.5744 32.1236 36.5744 31.102C36.5744 27.399 39.5904 24.383 43.2934 24.383C46.9964 24.383 50.0125 27.399 50.0125 31.102Z" fill="#022E49"/>
<path fill-rule="evenodd" clip-rule="evenodd" d="M53.0298 17.6662L53.0299 17.6661L53.0216 17.6583C50.7877 15.5892 48.2412 13.9587 45.4386 12.8046L45.4386 12.8046L45.4328 12.8023C44.5034 12.4305 44.0531 11.361 44.4321 10.4135C44.8068 9.47673 45.8777 9.02201 46.8139 9.40989L46.8172 9.41122C50.0372 10.7237 52.9604 12.5964 55.5175 14.9608C56.2514 15.6418 56.2936 16.8105 55.6096 17.5481L55.6095 17.548L55.6035 17.5548C55.2386 17.9602 54.761 18.1572 54.2694 18.1572C53.8241 18.1572 53.3718 17.995 53.0298 17.6662Z" fill="#022E49"/>
</svg>
