<svg width="83" height="83" viewBox="0 0 83 83" fill="none" xmlns="http://www.w3.org/2000/svg">
<circle opacity="0.3" cx="41.5" cy="41.5" r="41.5" fill="#C4C4C4"/>
<path d="M58.6677 49.0022H51.9989C51.632 49.0022 51.3333 49.3008 51.3333 49.6678V57.6678C51.3333 58.0347 51.632 58.3334 51.9989 58.3334H58.6677C59.0346 58.3334 59.3333 58.0347 59.3333 57.6678V49.6678C59.3333 49.2966 59.0346 49.0022 58.6677 49.0022ZM58.0021 57.0022H52.6688V50.3334H58.0021V57.0022Z" fill="#898989"/>
<path d="M49.7121 38.9371C49.9723 39.1973 50.3947 39.1973 50.655 38.9371L55.3654 34.2267C55.6257 33.9664 55.6257 33.544 55.3654 33.2837L49.7078 27.6261C49.4433 27.3744 49.0294 27.3744 48.7649 27.6261L44.0545 32.3408C43.7942 32.6011 43.7942 33.0235 44.0545 33.2837L49.7121 38.9371ZM49.2385 29.0384L53.9531 33.7531L50.1814 37.5248L45.4667 32.8101L49.2385 29.0384Z" fill="#898989"/>
<path d="M43.5807 45.7339C43.7557 45.7339 43.9263 45.6656 44.0501 45.5376L48.7647 40.8229C49.025 40.5627 49.025 40.1403 48.7647 39.88L43.1114 34.2224C42.8469 33.9707 42.433 33.9707 42.1685 34.2224L37.4538 38.9371C37.1935 39.1973 37.1935 39.6197 37.4538 39.88L43.1114 45.5376C43.2351 45.6613 43.4058 45.7339 43.5807 45.7339ZM42.6378 35.6389L47.3525 40.3536L43.5807 44.1253L38.8661 39.4107L42.6378 35.6389Z" fill="#898989"/>
<path d="M25.3322 31.6667H33.3322C33.6992 31.6667 33.9978 31.368 33.9978 31.0011V24.3323C33.9978 23.9653 33.6992 23.6667 33.3322 23.6667H25.3322C24.9653 23.6667 24.6666 23.9653 24.6666 24.3323V31.0011C24.6666 31.368 24.9653 31.6667 25.3322 31.6667ZM26.0021 25.0021H32.6666V30.3355H26.0021V25.0021Z" fill="#898989"/>
<path d="M25.3322 41.0021H33.3322C33.6992 41.0021 33.9978 40.7035 33.9978 40.3365V33.6677C33.9978 33.3008 33.6992 33.0021 33.3322 33.0021H25.3322C24.9653 33.0021 24.6666 33.3008 24.6666 33.6677V40.3365C24.6666 40.7035 24.9653 41.0021 25.3322 41.0021ZM26.0021 34.3333H32.6666V39.6667H26.0021V34.3333Z" fill="#898989"/>
<path d="M34.0021 49.6677V42.9989C34.0021 42.632 33.7034 42.3333 33.3365 42.3333H25.3322C24.9653 42.3333 24.6666 42.632 24.6666 42.9989V49.6677C24.6666 50.0346 24.9653 50.3333 25.3322 50.3333H33.3322C33.7034 50.3333 34.0021 50.0346 34.0021 49.6677ZM32.6666 49.0021H26.0021V43.6688H32.6666V49.0021Z" fill="#898989"/>
<path d="M29.3343 51.6688C27.8623 51.6688 26.6677 52.8634 26.6677 54.3354C26.6677 55.8074 27.8623 57.0021 29.3343 57.0021C30.8063 57.0021 32.001 55.8074 32.001 54.3354C32.001 52.8634 30.8063 51.6688 29.3343 51.6688ZM29.3343 55.6666C28.5962 55.6666 27.9989 55.0693 27.9989 54.3312C27.9989 53.593 28.5962 52.9957 29.3343 52.9957C30.0725 52.9957 30.6698 53.593 30.6698 54.3312C30.6698 55.0693 30.0682 55.6666 29.3343 55.6666Z" fill="#898989"/>
<path d="M59.3333 46.3355H47.0325L57.7248 35.6389C58.7659 34.5979 58.7659 32.9083 57.7248 31.8672L51.1243 25.2667C50.6251 24.7632 49.9467 24.4859 49.2384 24.4859C48.5301 24.4816 47.8517 24.7632 47.3525 25.2667L36.6688 35.9589V23.6667C36.6688 22.1947 35.4741 21 34.0021 21H24.6667C23.1947 21 22 22.1947 22 23.6667V53.6656C22.0043 57.7147 25.2853 60.9957 29.3344 61H59.3333C60.8053 61 62 59.8053 62 58.3333V49.0021C62 47.5259 60.8053 46.3355 59.3333 46.3355ZM36.6688 42.8667L40.7563 46.9541L36.9845 50.7259L36.6688 50.4101V42.8667V42.8667ZM36.6048 54.5573C36.6133 54.4933 36.6219 54.4336 36.6304 54.3696C36.6517 54.1349 36.6645 53.9045 36.6645 53.6656V52.2405C36.7584 52.296 36.8693 52.3301 36.9803 52.3301C37.1552 52.3301 37.3259 52.2619 37.4496 52.1339L42.1643 47.4192C42.4245 47.1589 42.4245 46.7365 42.1643 46.4763L36.6688 40.9808V37.8448L48.2955 26.2139C48.816 25.6933 49.6608 25.6933 50.1813 26.2139L56.7819 32.8144C57.3024 33.3349 57.3024 34.1797 56.7819 34.7003L37.808 53.6784L36.5621 54.9285C36.5792 54.8048 36.592 54.6811 36.6048 54.5573ZM43.3333 50.3333H48.6667V57.0021H43.3333V50.3333ZM39.3355 54.0368V57.0021H36.3744L39.3355 54.0368ZM30.5376 59.5451C30.3712 59.5792 30.2005 59.6048 30.0299 59.6219C30 59.6261 29.9701 59.6304 29.9403 59.6347C29.7397 59.656 29.5392 59.6645 29.3301 59.6645C26.0192 59.6603 23.3355 56.9765 23.3312 53.6656V23.6667C23.3312 22.9285 23.9285 22.3312 24.6667 22.3312H34.0021C34.7403 22.3312 35.3376 22.9285 35.3376 23.6667V53.6656C35.3376 53.8704 35.3248 54.0752 35.3077 54.2757C35.3077 54.3056 35.2992 54.3355 35.2949 54.3653C35.2736 54.536 35.2523 54.7067 35.2181 54.8731L35.2139 54.8901C34.7147 57.224 32.8971 59.0459 30.5632 59.5408L30.5376 59.5451ZM60.6688 58.3333C60.6688 59.0715 60.0715 59.6688 59.3333 59.6688H33.5541C33.8997 59.4256 34.224 59.1525 34.5184 58.8539L35.0389 58.3333H40.0011C40.368 58.3333 40.6667 58.0347 40.6667 57.6677V52.7013L42.0021 51.3659V57.6635C42.0021 58.0304 42.3008 58.3291 42.6677 58.3291H49.3365C49.7035 58.3291 50.0021 58.0304 50.0021 57.6635V49.6677C50.0021 49.3008 49.7035 49.0021 49.3365 49.0021H44.3659L45.7013 47.6667H59.3333C60.0715 47.6667 60.6688 48.264 60.6688 49.0021V58.3333Z" fill="#898989"/>
</svg>
