<svg width="83" height="83" viewBox="0 0 83 83" fill="none" xmlns="http://www.w3.org/2000/svg">
<circle opacity="0.1" cx="41.5" cy="41.5" r="41.5" fill="#45B175"/>
<path d="M56.5978 48.1264V30.3018C57.975 29.9415 59 28.6923 59 27.203C59 25.4333 57.5667 24 55.797 24C54.3076 24 53.0505 25.0249 52.6981 26.4022H34.8736C34.5213 25.0249 33.2641 24 31.7747 24C30.0051 24 28.5718 25.4333 28.5718 27.203C28.5718 28.6923 29.5967 29.9495 30.974 30.3018V48.1184C29.5967 48.4787 28.5718 49.7278 28.5718 51.2172C28.5718 52.9869 30.0051 54.4202 31.7747 54.4202C33.2641 54.4202 34.5213 53.3952 34.8736 52.018H40.1825C40.6229 52.018 40.9833 51.6576 40.9833 51.2172C40.9833 50.7768 40.6229 50.4165 40.1825 50.4165H34.8736C34.5854 49.2954 33.6965 48.4066 32.5755 48.1184V30.3018C33.6965 30.0136 34.5854 29.1247 34.8736 28.0037H52.6901C52.9784 29.1247 53.8672 30.0136 54.9883 30.3018V48.1184C53.8672 48.4066 52.9784 49.2954 52.6901 50.4165H47.3892C46.9488 50.4165 46.5885 50.7768 46.5885 51.2172C46.5885 51.6576 46.9488 52.018 47.3892 52.018H52.6981C53.0585 53.3952 54.3076 54.4202 55.797 54.4202C57.5667 54.4202 59 52.9869 59 51.2172C59 49.7358 57.975 48.4787 56.5978 48.1264ZM33.3762 51.2252C33.3762 52.106 32.6556 52.8267 31.7747 52.8267C30.8939 52.8267 30.1733 52.106 30.1733 51.2252C30.1733 50.3444 30.8939 49.6237 31.7747 49.6237C32.6556 49.6237 33.3762 50.3444 33.3762 51.2252ZM31.7747 28.8045C30.8939 28.8045 30.1733 28.0838 30.1733 27.203C30.1733 26.3222 30.8939 25.6015 31.7747 25.6015C32.6556 25.6015 33.3762 26.3222 33.3762 27.203C33.3762 28.0838 32.6556 28.8045 31.7747 28.8045ZM54.1955 27.203C54.1955 26.3222 54.9162 25.6015 55.797 25.6015C56.6778 25.6015 57.3985 26.3222 57.3985 27.203C57.3985 28.0838 56.6778 28.8045 55.797 28.8045C54.9162 28.8045 54.1955 28.0838 54.1955 27.203ZM55.797 52.8267C54.9162 52.8267 54.1955 52.106 54.1955 51.2252C54.1955 50.3444 54.9162 49.6237 55.797 49.6237C56.6778 49.6237 57.3985 50.3444 57.3985 51.2252C57.3985 52.106 56.6778 52.8267 55.797 52.8267Z" fill="#45B175"/>
<path d="M43.7858 52.026C44.2281 52.026 44.5866 51.6675 44.5866 51.2252C44.5866 50.783 44.2281 50.4245 43.7858 50.4245C43.3436 50.4245 42.9851 50.783 42.9851 51.2252C42.9851 51.6675 43.3436 52.026 43.7858 52.026Z" fill="#45B175"/>
<path d="M46.9888 39.2141C46.9888 38.7737 46.6285 38.4134 46.1881 38.4134H44.5866V36.8119C44.5866 36.3715 44.2263 36.0111 43.7859 36.0111C43.3454 36.0111 42.9851 36.3715 42.9851 36.8119V38.4134H41.3836C40.9432 38.4134 40.5829 38.7737 40.5829 39.2141C40.5829 39.6545 40.9432 40.0148 41.3836 40.0148H42.9851V41.6163C42.9851 42.0567 43.3454 42.4171 43.7859 42.4171C44.2263 42.4171 44.5866 42.0567 44.5866 41.6163V40.0148H46.1881C46.6285 40.0148 46.9888 39.6545 46.9888 39.2141Z" fill="#45B175"/>
<path d="M25.2007 56.6623L18.2342 63.6287C17.9219 63.941 17.9219 64.4455 18.2342 64.7578C18.3944 64.9179 18.5946 64.99 18.8027 64.99C19.0109 64.99 19.2111 64.9099 19.3713 64.7578L26.3377 57.7913C26.65 57.479 26.65 56.9746 26.3377 56.6623C26.0254 56.35 25.513 56.35 25.2007 56.6623Z" fill="#45B175"/>
<path d="M34.8096 56.6623L27.8431 63.6287C27.5308 63.941 27.5308 64.4455 27.8431 64.7578C28.0033 64.9179 28.2034 64.99 28.4116 64.99C28.6198 64.99 28.82 64.9099 28.9802 64.7578L35.9466 57.7913C36.2589 57.479 36.2589 56.9746 35.9466 56.6623C35.6343 56.35 35.1218 56.35 34.8096 56.6623Z" fill="#45B175"/>
<path d="M25.2007 47.0534L18.2342 54.0199C17.9219 54.3322 17.9219 54.8366 18.2342 55.1489C18.3944 55.3091 18.5946 55.3811 18.8027 55.3811C19.0109 55.3811 19.2111 55.3011 19.3713 55.1489L26.3377 48.1824C26.65 47.8702 26.65 47.3657 26.3377 47.0534C26.0254 46.7411 25.513 46.7411 25.2007 47.0534Z" fill="#45B175"/>
</svg>
