<svg width="371" height="339" viewBox="0 0 371 339" fill="none" xmlns="http://www.w3.org/2000/svg">
<path d="M168.774 338.576C209.763 338.576 242.992 333.229 242.992 326.634C242.992 320.038 209.763 314.691 168.774 314.691C127.784 314.691 94.5551 320.038 94.5551 326.634C94.5551 333.229 127.784 338.576 168.774 338.576Z" fill="#DCE1EF"/>
<circle cx="256.542" cy="216.984" r="54.6861" transform="rotate(6.91117 256.542 216.984)" fill="#457EFF"/>
<circle cx="246.881" cy="150.186" r="39.2175" transform="rotate(6.91117 246.881 150.186)" fill="#457EFF"/>
<circle cx="112.242" cy="133.867" r="30.9634" transform="rotate(6.91117 112.242 133.867)" fill="#457EFF"/>
<circle cx="89.9834" cy="187.174" r="64.1706" transform="rotate(6.91117 89.9834 187.174)" fill="#457EFF"/>
<circle cx="182.647" cy="127.068" r="73.0408" transform="rotate(6.91117 182.647 127.068)" fill="#457EFF"/>
<path d="M246.131 270.744L74.4157 249.93L130.693 179.231L255.391 194.345L246.131 270.744Z" fill="#457EFF"/>
<circle cx="144.059" cy="110.612" r="44.4749" transform="rotate(6.91117 144.059 110.612)" fill="#ECF0F6"/>
<circle cx="144.06" cy="110.613" r="43.4224" transform="rotate(6.91117 144.06 110.613)" fill="#FFFEFE"/>
<circle cx="145.088" cy="125.435" r="9.66416" transform="rotate(6.91117 145.088 125.435)" fill="#454545"/>
<path d="M213.645 200.692C212.894 210.582 202.381 219.12 192.852 218.396C183.324 217.672 172.553 206.454 173.255 197.218C173.774 190.388 184.982 186.558 194.51 187.282C204.039 188.006 214.164 193.861 213.645 200.692Z" fill="white"/>
<circle cx="273.215" cy="137.226" r="32.5421" transform="rotate(6.91117 273.215 137.226)" fill="#ECF0F6"/>
<circle cx="273.21" cy="137.223" r="31.772" transform="rotate(6.91117 273.21 137.223)" fill="#FFFEFE"/>
<circle cx="287.5" cy="136.192" r="7.85015" transform="rotate(6.91117 287.5 136.192)" fill="#454545"/>
<ellipse cx="266.247" cy="196.901" rx="13.5919" ry="7.5581" transform="rotate(6.91117 266.247 196.901)" fill="#FFC6C6"/>
<path fill-rule="evenodd" clip-rule="evenodd" d="M275.43 195.79C275.813 195.958 275.988 196.405 275.82 196.788L273.368 202.382C273.2 202.765 272.753 202.939 272.37 202.771C271.987 202.603 271.813 202.157 271.981 201.774L274.433 196.18C274.601 195.797 275.047 195.622 275.43 195.79Z" fill="black"/>
<path fill-rule="evenodd" clip-rule="evenodd" d="M278.209 196.126C278.592 196.294 278.767 196.74 278.599 197.123L276.147 202.717C275.979 203.101 275.533 203.275 275.149 203.107C274.766 202.939 274.592 202.493 274.76 202.11L277.212 196.515C277.38 196.132 277.826 195.958 278.209 196.126Z" fill="black"/>
<path fill-rule="evenodd" clip-rule="evenodd" d="M280.992 196.462C281.375 196.63 281.549 197.076 281.381 197.459L278.929 203.054C278.761 203.437 278.315 203.611 277.932 203.443C277.549 203.275 277.374 202.829 277.542 202.446L279.994 196.852C280.162 196.469 280.609 196.294 280.992 196.462Z" fill="black"/>
<ellipse cx="121.875" cy="179.347" rx="13.592" ry="7.5581" transform="rotate(10.9665 121.875 179.347)" fill="#FFC6C6"/>
<path fill-rule="evenodd" clip-rule="evenodd" d="M112.165 177.058C112.548 177.226 112.723 177.673 112.555 178.056L110.158 183.525C109.99 183.908 109.543 184.082 109.16 183.914C108.777 183.747 108.603 183.3 108.771 182.917L111.168 177.448C111.336 177.065 111.782 176.89 112.165 177.058Z" fill="black"/>
<path fill-rule="evenodd" clip-rule="evenodd" d="M114.892 177.389C115.275 177.557 115.449 178.003 115.281 178.386L112.884 183.856C112.716 184.239 112.27 184.413 111.887 184.245C111.504 184.077 111.329 183.631 111.497 183.248L113.894 177.778C114.062 177.395 114.509 177.221 114.892 177.389Z" fill="black"/>
<path fill-rule="evenodd" clip-rule="evenodd" d="M117.608 177.718C117.991 177.886 118.166 178.332 117.998 178.715L115.601 184.185C115.433 184.568 114.986 184.742 114.603 184.574C114.22 184.407 114.046 183.96 114.214 183.577L116.611 178.108C116.778 177.725 117.225 177.55 117.608 177.718Z" fill="black"/>
<path d="M303.513 220.2C307.64 221.476 313.095 221.504 321.371 228.207C329.647 234.911 333.513 242.895 336.333 249.576" stroke="#575A60" stroke-width="3.37568" stroke-linecap="round"/>
<path d="M46.032 151.028C41.0983 145.598 31.2325 124.253 30.0862 107.638C29.0895 93.1891 34.0581 77.0738 36.6228 70.2071" stroke="#404247" stroke-width="3.37568" stroke-linecap="round"/>
<circle cx="40.1573" cy="59.586" r="11.0077" transform="rotate(6.91117 40.1573 59.586)" fill="#404247"/>
<circle r="11.0011" transform="matrix(0.992734 0.12033 0.12033 -0.992734 336.841 258.501)" fill="#575A60"/>
<path fill-rule="evenodd" clip-rule="evenodd" d="M137.894 165.87C170.178 168.646 193.471 147.146 196.811 119.59C200.558 88.6737 179.422 61.9019 150.915 58.4465C122.407 54.9911 93.9972 74.1688 90.5417 102.676C87.0863 131.184 106.192 163.143 137.894 165.87ZM135.656 174.758C171.913 179.153 204.867 153.324 209.262 117.067C213.657 80.8096 187.827 47.8548 151.57 43.4601C115.313 39.0653 82.3587 64.8948 77.964 101.152C73.5692 137.409 99.3987 170.363 135.656 174.758Z" fill="#404247"/>
<path fill-rule="evenodd" clip-rule="evenodd" d="M266.51 176.107C287.513 178.653 306.976 162.836 309.522 141.833C312.068 120.829 298.67 99.0309 274.937 96.1541C248.823 92.9888 233.555 110.29 231.01 131.293C228.464 152.296 245.506 173.561 266.51 176.107ZM265.052 188.134C292.698 191.485 317.826 171.79 321.177 144.144C324.528 116.498 304.833 91.3706 277.187 88.0196C249.541 84.6687 224.413 104.364 221.062 132.009C217.711 159.655 237.406 184.783 265.052 188.134Z" fill="#404247"/>
<path fill-rule="evenodd" clip-rule="evenodd" d="M217.696 110.278C209.867 112.806 207.01 122.982 209.055 129.315C211.1 135.648 217.891 139.124 224.224 137.079C224.449 137.007 224.604 136.956 224.712 136.919L224.725 136.909C224.904 136.779 225.182 136.577 225.528 136.336L232.375 146.176C232.142 146.338 231.98 146.456 231.806 146.582C231.758 146.617 231.71 146.652 231.659 146.689C231.452 146.839 231.075 147.112 230.619 147.375C229.682 147.915 228.732 148.221 227.974 148.465L227.908 148.487C215.275 152.566 201.726 145.632 197.647 132.998C193.568 120.365 200.502 106.817 213.136 102.738C216.628 101.61 220.324 101.861 221.974 102.062L221.411 109.918C220.973 109.865 220.28 109.881 219.526 109.906C218.744 109.932 218.113 110.144 217.696 110.278Z" fill="#404247"/>
<path fill-rule="evenodd" clip-rule="evenodd" d="M64.3615 100.376L71.5653 101.25L62.2096 124.206L88.0449 126.204L86.5871 138.231L47.3223 133.472L64.3615 100.376Z" fill="#404247"/>
<path d="M224.667 23.395L166.928 29.8054L188.912 50.9265L201.902 56.5752L224.827 66.125L262.493 65.8583L224.667 23.395Z" fill="#333539"/>
<path d="M188.085 54.2481L191.687 39.9996C195.678 39.5888 203.387 37.4035 214.983 39.7574C226.048 42.0034 234.784 49.3496 236.552 52.0284L231.429 72.7088C231.429 72.7088 222.306 64.8292 210.221 60.1776C197.958 55.4576 188.085 54.2481 188.085 54.2481Z" fill="#45484F"/>
<rect x="255.683" y="61.9824" width="1.02782" height="12.1695" transform="rotate(0.273212 255.683 61.9824)" fill="#333539"/>
<path d="M254.908 76.5861L257.131 76.5967L258.573 84.3211C258.573 84.3211 256.911 85.1194 255.775 85.1204C254.616 85.1213 253.144 84.0772 253.144 84.0772L254.908 76.5861Z" fill="#333539"/>
<circle cx="256.026" cy="75.2714" r="1.90269" transform="rotate(0.273212 256.026 75.2714)" fill="#333539"/>
<path d="M166.96 29.8275L167.224 28.5192L225.1 22.4937L262.792 64.5391L262.435 65.9316L224.424 23.9897L166.96 29.8275Z" fill="#53565E"/>
</svg>
