<svg width="17" height="16" viewBox="0 0 17 16" fill="none" xmlns="http://www.w3.org/2000/svg">
<path d="M12.4456 9.54675C12.2729 9.71408 12.1936 9.95608 12.2329 10.1934L12.8256 13.4734C12.8756 13.7514 12.7583 14.0327 12.5256 14.1934C12.2976 14.3601 11.9943 14.3801 11.7456 14.2467L8.79292 12.7067C8.69026 12.6521 8.57626 12.6227 8.45959 12.6194H8.27892C8.21626 12.6287 8.15493 12.6487 8.09893 12.6794L5.14559 14.2267C4.99959 14.3001 4.83426 14.3261 4.67226 14.3001C4.27759 14.2254 4.01426 13.8494 4.07893 13.4527L4.67226 10.1727C4.71159 9.93341 4.63226 9.69008 4.45959 9.52008L2.05226 7.18675C1.85093 6.99141 1.78093 6.69808 1.87293 6.43341C1.96226 6.16941 2.19026 5.97675 2.46559 5.93341L5.77892 5.45275C6.03093 5.42675 6.25226 5.27341 6.36559 5.04675L7.82559 2.05341C7.86026 1.98675 7.90493 1.92541 7.95893 1.87341L8.01892 1.82675C8.05026 1.79208 8.08626 1.76341 8.12626 1.74008L8.19893 1.71341L8.31226 1.66675H8.59293C8.84359 1.69275 9.06426 1.84275 9.17959 2.06675L10.6589 5.04675C10.7656 5.26475 10.9729 5.41608 11.2123 5.45275L14.5256 5.93341C14.8056 5.97341 15.0396 6.16675 15.1323 6.43341C15.2196 6.70075 15.1443 6.99408 14.9389 7.18675L12.4456 9.54675Z" fill="#D5D5D5"/>
</svg>
