<svg width="21" height="20" viewBox="0 0 21 20" fill="none" xmlns="http://www.w3.org/2000/svg">
<path fill-rule="evenodd" clip-rule="evenodd" d="M2.76436 3.40662L2.82482 3.34344C4.431 1.73711 5.47697 1.31134 6.59298 1.9531C6.91401 2.13771 7.21497 2.39611 7.62421 2.81176L8.87952 4.11344C9.57288 4.87002 9.7305 5.59573 9.50473 6.44562L9.47363 6.55814L9.43911 6.67001L9.27129 7.16237C8.91212 8.26652 9.06207 8.88948 10.34 10.1671C11.6689 11.4956 12.2892 11.6043 13.4785 11.1887L13.6905 11.1151L13.9468 11.0318L14.059 11.0007C14.9624 10.7597 15.7255 10.952 16.5348 11.7608L17.5462 12.7377L17.8439 13.0306C18.174 13.3672 18.3922 13.6339 18.5533 13.9158C19.1911 15.0315 18.7649 16.0768 17.1124 17.7232L16.9552 17.8825C16.7084 18.1203 16.4779 18.2906 16.1393 18.4514C15.5708 18.7213 14.8993 18.8231 14.1189 18.7145C12.196 18.4471 9.75723 16.9299 6.667 13.8405C6.41544 13.589 6.17451 13.3423 5.94397 13.1005L5.49666 12.6231C1.30512 8.06912 0.935336 5.27165 2.65308 3.51717L2.76436 3.40662ZM6.61244 3.56752C6.34095 3.29986 6.14373 3.13669 5.96986 3.03671C5.58526 2.81555 5.17001 2.90903 4.40151 3.57048L4.16004 3.7862C4.11792 3.82508 4.07483 3.86544 4.03075 3.90732L3.75385 4.17701L3.72891 4.20818L3.54119 4.39677C3.08756 4.86012 2.87269 5.42561 3.05785 6.39814C3.36169 7.99399 4.75245 10.1589 7.55077 12.9565C10.4665 15.8715 12.6881 17.2535 14.2911 17.4764C15.2256 17.6064 15.7023 17.3801 16.1884 16.8821L16.5591 16.508C16.7329 16.3261 16.8815 16.1612 17.0069 16.0106L17.178 15.795C17.6152 15.2126 17.6551 14.8633 17.4681 14.5361C17.397 14.4117 17.2935 14.2752 17.1428 14.1084L16.9385 13.8926L16.8175 13.7716L15.5415 12.5394C15.1151 12.1462 14.8237 12.0904 14.3812 12.2084L14.2535 12.2452L13.7249 12.4246C12.1915 12.9198 11.0853 12.6797 9.45621 11.0511C7.76901 9.36429 7.57114 8.23789 8.13645 6.61606L8.17271 6.51184L8.273 6.20969L8.32229 6.01711C8.40971 5.59797 8.30991 5.30573 7.85934 4.85509C7.84079 4.83654 7.82005 4.81563 7.79749 4.79275L6.61244 3.56752Z" fill="#3BB77E"/>
</svg>
