<svg width="17" height="17" viewBox="0 0 17 17" fill="none" xmlns="http://www.w3.org/2000/svg">
<path d="M12.1956 10.0467C12.0229 10.2141 11.9436 10.4561 11.9829 10.6934L12.5756 13.9734C12.6256 14.2514 12.5083 14.5327 12.2756 14.6934C12.0476 14.8601 11.7443 14.8801 11.4956 14.7467L8.54292 13.2067C8.44026 13.1521 8.32626 13.1227 8.20959 13.1194H8.02892C7.96626 13.1287 7.90493 13.1487 7.84893 13.1794L4.89559 14.7267C4.74959 14.8001 4.58426 14.8261 4.42226 14.8001C4.02759 14.7254 3.76426 14.3494 3.82893 13.9527L4.42226 10.6727C4.46159 10.4334 4.38226 10.1901 4.20959 10.0201L1.80226 7.68675C1.60093 7.49141 1.53093 7.19808 1.62293 6.93341C1.71226 6.66941 1.94026 6.47675 2.21559 6.43341L5.52892 5.95275C5.78093 5.92675 6.00226 5.77341 6.11559 5.54675L7.57559 2.55341C7.61026 2.48675 7.65493 2.42541 7.70893 2.37341L7.76892 2.32675C7.80026 2.29208 7.83626 2.26341 7.87626 2.24008L7.94893 2.21341L8.06226 2.16675H8.34293C8.59359 2.19275 8.81426 2.34275 8.92959 2.56675L10.4089 5.54675C10.5156 5.76475 10.7229 5.91608 10.9623 5.95275L14.2756 6.43341C14.5556 6.47341 14.7896 6.66675 14.8823 6.93341C14.9696 7.20075 14.8943 7.49408 14.6889 7.68675L12.1956 10.0467Z" fill="#FDC040"/>
</svg>
