<svg width="17" height="16" viewBox="0 0 17 16" fill="none" xmlns="http://www.w3.org/2000/svg">
<path d="M12.6956 9.54675C12.5229 9.71408 12.4436 9.95608 12.4829 10.1934L13.0756 13.4734C13.1256 13.7514 13.0083 14.0327 12.7756 14.1934C12.5476 14.3601 12.2443 14.3801 11.9956 14.2467L9.04292 12.7067C8.94026 12.6521 8.82626 12.6227 8.70959 12.6194H8.52892C8.46626 12.6287 8.40493 12.6487 8.34893 12.6794L5.39559 14.2267C5.24959 14.3001 5.08426 14.3261 4.92226 14.3001C4.52759 14.2254 4.26426 13.8494 4.32893 13.4527L4.92226 10.1727C4.96159 9.93341 4.88226 9.69008 4.70959 9.52008L2.30226 7.18675C2.10093 6.99141 2.03093 6.69808 2.12293 6.43341C2.21226 6.16941 2.44026 5.97675 2.71559 5.93341L6.02892 5.45275C6.28093 5.42675 6.50226 5.27341 6.61559 5.04675L8.07559 2.05341C8.11026 1.98675 8.15493 1.92541 8.20893 1.87341L8.26892 1.82675C8.30026 1.79208 8.33626 1.76341 8.37626 1.74008L8.44893 1.71341L8.56226 1.66675H8.84293C9.09359 1.69275 9.31426 1.84275 9.42959 2.06675L10.9089 5.04675C11.0156 5.26475 11.2229 5.41608 11.4623 5.45275L14.7756 5.93341C15.0556 5.97341 15.2896 6.16675 15.3823 6.43341C15.4696 6.70075 15.3943 6.99408 15.1889 7.18675L12.6956 9.54675Z" fill="#D5D5D5"/>
</svg>
