<svg width="16" height="17" viewBox="0 0 16 17" fill="none" xmlns="http://www.w3.org/2000/svg">
<path d="M11.9456 9.67175C11.7729 9.83908 11.6936 10.0811 11.7329 10.3184L12.3256 13.5984C12.3756 13.8764 12.2583 14.1577 12.0256 14.3184C11.7976 14.4851 11.4943 14.5051 11.2456 14.3717L8.29292 12.8317C8.19026 12.7771 8.07626 12.7477 7.95959 12.7444H7.77892C7.71626 12.7537 7.65493 12.7737 7.59893 12.8044L4.64559 14.3517C4.49959 14.4251 4.33426 14.4511 4.17226 14.4251C3.77759 14.3504 3.51426 13.9744 3.57893 13.5777L4.17226 10.2977C4.21159 10.0584 4.13226 9.81508 3.95959 9.64508L1.55226 7.31175C1.35093 7.11641 1.28093 6.82308 1.37293 6.55841C1.46226 6.29441 1.69026 6.10175 1.96559 6.05841L5.27892 5.57775C5.53093 5.55175 5.75226 5.39841 5.86559 5.17175L7.32559 2.17841C7.36026 2.11175 7.40493 2.05041 7.45893 1.99841L7.51892 1.95175C7.55026 1.91708 7.58626 1.88841 7.62626 1.86508L7.69893 1.83841L7.81226 1.79175H8.09293C8.34359 1.81775 8.56426 1.96775 8.67959 2.19175L10.1589 5.17175C10.2656 5.38975 10.4729 5.54108 10.7123 5.57775L14.0256 6.05841C14.3056 6.09841 14.5396 6.29175 14.6323 6.55841C14.7196 6.82575 14.6443 7.11908 14.4389 7.31175L11.9456 9.67175Z" fill="#FDC040"/>
</svg>
