<svg width="90" height="91" viewBox="0 0 90 91" fill="none" xmlns="http://www.w3.org/2000/svg">
<path fill-rule="evenodd" clip-rule="evenodd" d="M36.4707 35.6855C36.0863 37.7983 33.8955 49.6998 33.4454 52.1266C32.9953 54.5535 34.9244 56.7288 36.8184 56.7288C38.7125 56.7288 38.9628 56.7288 39.7402 56.7288C40.5176 56.7288 41.675 57.2955 41.2393 59.3589C40.8037 61.4223 40.3532 63.545 39.9104 65.55C39.4676 67.5549 41.6868 68.3633 42.649 66.8003C43.6112 65.2372 50.7953 53.3072 51.6221 51.7028C52.4488 50.0984 51.0946 47.6174 49.0564 47.6174C47.0181 47.6174 46.1747 47.6174 45.1055 47.6174C44.0364 47.6174 43.8863 46.8254 44.2744 45.1939C44.6624 43.5624 45.129 41.4283 45.8504 38.3008C46.5719 35.1732 43.6646 33.4744 42.1328 33.4744C40.6009 33.4744 38.9538 33.4744 38.4997 33.4744C38.0456 33.4744 36.8551 33.5727 36.4707 35.6855Z" fill="#457EFF"/>
<path d="M73.9517 40.6864H71.8902V22.4381C71.8902 21.0881 71.3539 19.7934 70.3993 18.8388C69.4448 17.8842 68.1501 17.3479 66.8001 17.3479H51.5296C51.3686 14.2842 50.136 11.3744 48.0471 9.12738C45.9582 6.88033 43.146 5.43895 40.1021 5.05519C38.3611 4.87595 36.6018 5.05777 34.9342 5.58931C33.2667 6.12085 31.7267 6.99066 30.4105 8.14438C29.0944 9.2981 28.0304 10.7109 27.285 12.2945C26.5397 13.8781 26.129 15.5984 26.0787 17.3479H8.26314C6.91314 17.3479 5.61844 17.8842 4.66385 18.8388C3.70926 19.7934 3.17297 21.0881 3.17297 22.4381V43.2314H10.3247C12.283 43.1746 14.1936 43.8413 15.6914 45.1043C17.1891 46.3673 18.1689 48.1379 18.4435 50.0777C18.5425 51.142 18.417 52.2153 18.0751 53.2281C17.7331 54.2408 17.1823 55.1705 16.4583 55.9569C15.7467 56.7525 14.8763 57.39 13.9031 57.8284C12.9299 58.2668 11.8756 58.4962 10.8082 58.502H3.17297V80.975C3.17297 82.325 3.70926 83.6197 4.66385 84.5743C5.61844 85.5289 6.91314 86.0652 8.26314 86.0652H66.8001C68.1501 86.0652 69.4448 85.5289 70.3993 84.5743C71.3539 83.6197 71.8902 82.325 71.8902 80.975V66.1372H74.4353C76.2215 66.1465 77.9896 65.7797 79.6247 65.0606C81.2598 64.3415 82.7251 63.2863 83.9255 61.9635C85.1258 60.6407 86.0342 59.0801 86.5916 57.383C87.149 55.686 87.3429 53.8907 87.1607 52.1138C86.7483 48.9186 85.1734 45.9872 82.737 43.8794C80.3005 41.7715 77.173 40.6348 73.9517 40.6864ZM80.0854 58.502C79.3738 59.2975 78.5033 59.9351 77.5302 60.3735C76.557 60.8118 75.5027 61.0413 74.4353 61.047H66.8001V80.975H8.26314V63.5921H10.8082C12.5944 63.6014 14.3625 63.2346 15.9976 62.5155C17.6327 61.7964 19.0981 60.7412 20.2984 59.4184C21.4987 58.0956 22.4072 56.535 22.9646 54.838C23.522 53.1409 23.7159 51.3456 23.5336 49.5687C23.1212 46.3735 21.5464 43.4421 19.1099 41.3343C16.6734 39.2264 13.546 38.0897 10.3247 38.1413H8.26314V22.4381H31.1689V17.7806C31.1746 16.7133 31.4041 15.659 31.8425 14.6858C32.2808 13.7126 32.9184 12.8421 33.714 12.1305C34.5004 11.4065 35.43 10.8557 36.4428 10.5138C37.4555 10.1718 38.5288 10.0463 39.5931 10.1454C41.5329 10.4199 43.3036 11.3997 44.5665 12.8975C45.8295 14.3952 46.4963 16.3058 46.4394 18.2642V22.4381H66.8001V45.7765H73.9517C75.9101 45.7196 77.8207 46.3864 79.3184 47.6494C80.8162 48.9124 81.796 50.683 82.0706 52.6228C82.1696 53.6871 82.0441 54.7604 81.7022 55.7731C81.3602 56.7859 80.8094 57.7155 80.0854 58.502Z" fill="#457EFF"/>
</svg>
