<svg width="25" height="25" viewBox="0 0 25 25" fill="none" xmlns="http://www.w3.org/2000/svg">
<path fill-rule="evenodd" clip-rule="evenodd" d="M5.45051 2.981C6.22844 2.65798 7.06249 2.4917 7.90482 2.4917C8.74715 2.4917 9.58119 2.65798 10.3591 2.981C11.1371 3.30402 11.8436 3.77743 12.4382 4.37408L12.4415 4.37742L12.4998 4.43653L12.5582 4.37743L12.5615 4.37408C13.1561 3.77743 13.8626 3.30402 14.6405 2.981C15.4184 2.65798 16.2525 2.4917 17.0948 2.4917C17.9371 2.4917 18.7712 2.65798 19.5491 2.981C20.3268 3.30391 21.0331 3.7771 21.6275 4.37346C24.1726 6.91916 24.2291 11.1283 21.2135 14.2005L21.207 14.2071L13.2069 22.2071C13.0194 22.3946 12.765 22.5 12.4998 22.5C12.2346 22.5 11.9802 22.3946 11.7927 22.2071L3.78615 14.2005C0.770454 11.1283 0.827075 6.91915 3.3721 4.37346C3.96656 3.7771 4.67285 3.30391 5.45051 2.981ZM7.90482 4.4917C7.32572 4.4917 6.75231 4.60602 6.21748 4.82809C5.68266 5.05017 5.19693 5.37564 4.78815 5.78584L4.78693 5.78706C3.09331 7.48068 2.88957 10.4292 5.21033 12.7963L12.4998 20.0857L19.7893 12.7963C22.1101 10.4292 21.9063 7.48068 20.2127 5.78706L20.2115 5.78584C19.8027 5.37564 19.317 5.05017 18.7822 4.82809C18.2473 4.60602 17.6739 4.4917 17.0948 4.4917C16.5157 4.4917 15.9423 4.60602 15.4075 4.82809C14.8734 5.04988 14.3882 5.37478 13.9798 5.78422C13.9792 5.78476 13.9787 5.7853 13.9782 5.78584L13.2115 6.56249C13.0236 6.75282 12.7673 6.85996 12.4998 6.85996C12.2324 6.85996 11.9761 6.75282 11.7882 6.56249L11.0215 5.78584C11.0209 5.7853 11.0204 5.78476 11.0199 5.78422C10.6114 5.37478 10.1263 5.04988 9.59215 4.82809C9.05733 4.60602 8.48392 4.4917 7.90482 4.4917Z" fill="#253D4E"/>
</svg>
