<svg width="18" height="19" viewBox="0 0 18 19" fill="none" xmlns="http://www.w3.org/2000/svg">
<path fill-rule="evenodd" clip-rule="evenodd" d="M3 4.41675C2.58921 4.41675 2.25 4.75596 2.25 5.16675V14.1667C2.25 14.5775 2.58921 14.9167 3 14.9167H15C15.4108 14.9167 15.75 14.5775 15.75 14.1667V5.16675C15.75 4.75596 15.4108 4.41675 15 4.41675H3ZM0.75 5.16675C0.75 3.92753 1.76079 2.91675 3 2.91675H15C16.2392 2.91675 17.25 3.92753 17.25 5.16675V14.1667C17.25 15.406 16.2392 16.4167 15 16.4167H3C1.76079 16.4167 0.75 15.406 0.75 14.1667V5.16675Z" fill="#3BB77E"/>
<path fill-rule="evenodd" clip-rule="evenodd" d="M0.88564 4.73672C1.12318 4.39738 1.59082 4.31485 1.93016 4.55239L9.00006 9.50132L16.07 4.55239C16.4093 4.31485 16.877 4.39738 17.1145 4.73672C17.352 5.07605 17.2695 5.5437 16.9302 5.78124L9.43016 11.0312C9.17192 11.212 8.82821 11.212 8.56997 11.0312L1.06997 5.78124C0.730631 5.5437 0.648105 5.07605 0.88564 4.73672Z" fill="#3BB77E"/>
</svg>
