<svg width="21" height="20" viewBox="0 0 21 20" fill="none" xmlns="http://www.w3.org/2000/svg">
<path fill-rule="evenodd" clip-rule="evenodd" d="M18.0813 4.33665C18.2886 4.49423 18.4103 4.73967 18.4103 5.00009V15.0001C18.4103 15.2529 18.2956 15.492 18.0984 15.6501C17.9013 15.8083 17.643 15.8684 17.3962 15.8136L2.39621 12.4802C2.01493 12.3955 1.74365 12.0573 1.74365 11.6668V9.16676C1.74365 8.79242 1.99327 8.46401 2.35395 8.36382L17.354 4.19716C17.6049 4.12746 17.8739 4.17906 18.0813 4.33665ZM3.41032 9.80016V10.9983L16.7437 13.9612V6.09646L3.41032 9.80016Z" fill="#253D4E"/>
<path fill-rule="evenodd" clip-rule="evenodd" d="M5.13203 11.8632C5.57569 11.9856 5.83614 12.4445 5.71375 12.8882C5.6553 13.1 5.63916 13.3213 5.66624 13.5394C5.69332 13.7575 5.76309 13.9682 5.87158 14.1593C5.98006 14.3505 6.12513 14.5184 6.29851 14.6534C6.47188 14.7885 6.67016 14.8881 6.88203 14.9466C7.09389 15.005 7.3152 15.0211 7.5333 14.9941C7.75141 14.967 7.96204 14.8972 8.15318 14.7887C8.34433 14.6802 8.51223 14.5352 8.6473 14.3618C8.78237 14.1884 8.88198 13.9901 8.94042 13.7783C9.06282 13.3346 9.52169 13.0742 9.96536 13.1966C10.409 13.3189 10.6695 13.7778 10.5471 14.2215C10.4304 14.6443 10.2316 15.0401 9.96204 15.3861C9.69245 15.7321 9.35735 16.0217 8.97586 16.2382C8.59437 16.4547 8.17397 16.594 7.73867 16.648C7.30336 16.7021 6.86167 16.6699 6.43881 16.5532C6.01596 16.4366 5.62022 16.2378 5.27419 15.9682C4.92816 15.6986 4.63862 15.3635 4.4221 14.982C4.20558 14.6005 4.06632 14.1801 4.01227 13.7448C3.95822 13.3095 3.99044 12.8678 4.10709 12.4449C4.22948 12.0013 4.68836 11.7408 5.13203 11.8632Z" fill="#253D4E"/>
</svg>
