<svg width="18" height="19" viewBox="0 0 18 19" fill="none" xmlns="http://www.w3.org/2000/svg">
<path d="M14.9176 17.5308C14.8501 17.5308 14.7826 17.5308 14.7076 17.5233C12.2851 17.2608 9.93014 16.4208 7.89764 15.1008C6.00764 13.9008 4.37264 12.2658 3.17264 10.3758C1.85264 8.33575 1.01264 5.97325 0.757642 3.55075C0.727642 3.22825 0.765142 2.92075 0.862642 2.62075C0.960142 2.32075 1.12514 2.05075 1.33514 1.81825C1.54514 1.58575 1.80014 1.40575 2.08514 1.27825C2.37764 1.15075 2.68514 1.08325 3.00014 1.08325H5.25014C5.77514 1.08325 6.31514 1.27075 6.73514 1.63075C7.14764 1.98325 7.41764 2.47825 7.49264 3.01825C7.58264 3.68575 7.74764 4.34575 7.98014 4.96825C8.13014 5.37325 8.16764 5.80825 8.07014 6.22825C7.98014 6.64825 7.77014 7.03825 7.47014 7.33825L6.93014 7.87825C7.81514 9.25825 8.98514 10.4358 10.3726 11.3208L10.9126 10.7808C11.2201 10.4733 11.6101 10.2633 12.0301 10.1808C12.4501 10.0908 12.8851 10.1208 13.2901 10.2708C13.9126 10.5033 14.5726 10.6683 15.2326 10.7583C15.7876 10.8333 16.2826 11.1108 16.6426 11.5308C16.9951 11.9508 17.1901 12.4833 17.1751 13.0308V15.2733C17.1751 15.5883 17.1151 15.8883 16.9876 16.1808C16.8601 16.4658 16.6726 16.7283 16.4476 16.9383C16.2151 17.1483 15.9451 17.3133 15.6451 17.4108C15.4051 17.4933 15.1651 17.5308 14.9176 17.5308ZM5.26514 2.58325H5.25764H3.00014C2.89514 2.58325 2.79764 2.60575 2.70014 2.65075C2.60264 2.68825 2.51264 2.74825 2.44514 2.82325C2.37014 2.89825 2.31764 2.98825 2.28764 3.09325C2.25764 3.19075 2.24264 3.29575 2.25014 3.40075C2.48264 5.58325 3.24014 7.71325 4.43264 9.56575C5.52014 11.2758 6.99764 12.7533 8.70764 13.8408C10.5526 15.0408 12.6826 15.7908 14.8576 16.0308C14.9476 16.0383 15.0526 16.0233 15.1501 15.9933C15.2476 15.9633 15.3376 15.9033 15.4201 15.8358C15.5026 15.7683 15.5626 15.6783 15.6001 15.5808C15.6451 15.4833 15.6601 15.3783 15.6601 15.2733V13.0233C15.6601 13.0158 15.6601 13.0083 15.6601 13.0083C15.6676 12.8208 15.6001 12.6483 15.4801 12.5058C15.3601 12.3633 15.1951 12.2733 15.0151 12.2508C14.2501 12.1533 13.4851 11.9583 12.7501 11.6883C12.6151 11.6358 12.4651 11.6283 12.3301 11.6583C12.1876 11.6883 12.0601 11.7558 11.9551 11.8608L11.0101 12.8133C10.7701 13.0533 10.4026 13.0983 10.1101 12.9333C8.11514 11.8008 6.46514 10.1433 5.32514 8.15575C5.16764 7.84075 5.21264 7.47325 5.45264 7.23325L6.40514 6.28075C6.50264 6.18325 6.57014 6.05575 6.60014 5.91325C6.63014 5.77075 6.62264 5.62825 6.57014 5.49325C6.29264 4.75825 6.10514 3.99325 6.00014 3.22075C5.97764 3.04825 5.88764 2.88325 5.75264 2.76325C5.61764 2.65075 5.44514 2.58325 5.26514 2.58325Z" fill="#3BB77E"/>
</svg>
