<svg width="13" height="13" viewBox="0 0 13 13" fill="none" xmlns="http://www.w3.org/2000/svg">
<g clip-path="url(#clip0_203_474)">
<path fill-rule="evenodd" clip-rule="evenodd" d="M4.25 11C4.25 10.4477 4.69772 10 5.25 10C5.80228 10 6.25 10.4477 6.25 11C6.25 11.5523 5.80228 12 5.25 12C4.69772 12 4.25 11.5523 4.25 11Z" fill="#3BB77E"/>
<path fill-rule="evenodd" clip-rule="evenodd" d="M9.75 11C9.75 10.4477 10.1977 10 10.75 10C11.3023 10 11.75 10.4477 11.75 11C11.75 11.5523 11.3023 12 10.75 12C10.1977 12 9.75 11.5523 9.75 11Z" fill="#3BB77E"/>
<path fill-rule="evenodd" clip-rule="evenodd" d="M0.75 1C0.75 0.723858 0.973858 0.5 1.25 0.5H3.25C3.48831 0.5 3.69351 0.668193 3.74028 0.901872L4.16022 3H12.25C12.399 3 12.5403 3.06646 12.6352 3.18128C12.7302 3.29609 12.7691 3.44729 12.7411 3.59366L11.9404 7.79241C11.8719 8.13771 11.684 8.44788 11.4098 8.66863C11.1369 8.88829 10.7958 9.00548 10.4457 9H5.59432C5.24419 9.00548 4.9031 8.88829 4.63024 8.66863C4.35612 8.44797 4.16832 8.13796 4.09966 7.79283C4.09964 7.79269 4.09969 7.79297 4.09966 7.79283L3.26439 3.6196C3.26101 3.6058 3.25819 3.59177 3.25598 3.57754L2.84016 1.5H1.25C0.973858 1.5 0.75 1.27614 0.75 1ZM4.36036 4L5.08042 7.59759C5.10328 7.71269 5.1659 7.81608 5.25731 7.88967C5.34872 7.96325 5.46309 8.00234 5.58042 8.00009L5.59 8H10.45L10.4596 8.00009C10.5769 8.00234 10.6913 7.96325 10.7827 7.88967C10.8737 7.81642 10.9361 7.71365 10.9593 7.5992L11.6456 4H4.36036Z" fill="#3BB77E"/>
</g>
<defs>
<clipPath id="clip0_203_474">
<rect width="12" height="12" fill="white" transform="translate(0.75 0.5)"/>
</clipPath>
</defs>
</svg>
