<svg width="13" height="13" viewBox="0 0 13 13" fill="none" xmlns="http://www.w3.org/2000/svg">
<g clip-path="url(#clip0_203_520)">
<path fill-rule="evenodd" clip-rule="evenodd" d="M3.75 11.125C3.75 10.5727 4.19772 10.125 4.75 10.125C5.30228 10.125 5.75 10.5727 5.75 11.125C5.75 11.6773 5.30228 12.125 4.75 12.125C4.19772 12.125 3.75 11.6773 3.75 11.125Z" fill="#3BB77E"/>
<path fill-rule="evenodd" clip-rule="evenodd" d="M9.25 11.125C9.25 10.5727 9.69772 10.125 10.25 10.125C10.8023 10.125 11.25 10.5727 11.25 11.125C11.25 11.6773 10.8023 12.125 10.25 12.125C9.69772 12.125 9.25 11.6773 9.25 11.125Z" fill="#3BB77E"/>
<path fill-rule="evenodd" clip-rule="evenodd" d="M0.25 1.125C0.25 0.848858 0.473858 0.625 0.75 0.625H2.75C2.98831 0.625 3.19351 0.793193 3.24028 1.02687L3.66022 3.125H11.75C11.899 3.125 12.0403 3.19146 12.1352 3.30628C12.2302 3.42109 12.2691 3.57229 12.2411 3.71866L11.4404 7.91741C11.3719 8.26271 11.184 8.57288 10.9098 8.79363C10.6369 9.01329 10.2958 9.13048 9.94568 9.125H5.09432C4.74419 9.13048 4.4031 9.01329 4.13024 8.79363C3.85612 8.57297 3.66832 8.26296 3.59966 7.91783C3.59964 7.91769 3.59969 7.91797 3.59966 7.91783L2.76439 3.7446C2.76101 3.7308 2.75819 3.71677 2.75598 3.70254L2.34016 1.625H0.75C0.473858 1.625 0.25 1.40114 0.25 1.125ZM3.86036 4.125L4.58042 7.72259C4.60328 7.83769 4.6659 7.94108 4.75731 8.01467C4.84872 8.08825 4.96309 8.12734 5.08042 8.12509L5.09 8.125H9.95L9.95958 8.12509C10.0769 8.12734 10.1913 8.08825 10.2827 8.01467C10.3737 7.94142 10.4361 7.83865 10.4593 7.7242L11.1456 4.125H3.86036Z" fill="#3BB77E"/>
</g>
<defs>
<clipPath id="clip0_203_520">
<rect width="12" height="12" fill="white" transform="translate(0.25 0.625)"/>
</clipPath>
</defs>
</svg>
