<svg width="13" height="12" viewBox="0 0 13 12" fill="none" xmlns="http://www.w3.org/2000/svg">
<g clip-path="url(#clip0_203_428)">
<path fill-rule="evenodd" clip-rule="evenodd" d="M3.75 10.5C3.75 9.94772 4.19772 9.5 4.75 9.5C5.30228 9.5 5.75 9.94772 5.75 10.5C5.75 11.0523 5.30228 11.5 4.75 11.5C4.19772 11.5 3.75 11.0523 3.75 10.5Z" fill="#3BB77E"/>
<path fill-rule="evenodd" clip-rule="evenodd" d="M9.25 10.5C9.25 9.94772 9.69772 9.5 10.25 9.5C10.8023 9.5 11.25 9.94772 11.25 10.5C11.25 11.0523 10.8023 11.5 10.25 11.5C9.69772 11.5 9.25 11.0523 9.25 10.5Z" fill="#3BB77E"/>
<path fill-rule="evenodd" clip-rule="evenodd" d="M0.25 0.5C0.25 0.223858 0.473858 0 0.75 0H2.75C2.98831 0 3.19351 0.168193 3.24028 0.401872L3.66022 2.5H11.75C11.899 2.5 12.0403 2.56646 12.1352 2.68128C12.2302 2.79609 12.2691 2.94729 12.2411 3.09366L11.4404 7.29241C11.3719 7.63771 11.184 7.94788 10.9098 8.16863C10.6369 8.38829 10.2958 8.50548 9.94568 8.5H5.09432C4.74419 8.50548 4.4031 8.38829 4.13024 8.16863C3.85612 7.94797 3.66832 7.63796 3.59966 7.29283C3.59964 7.29269 3.59969 7.29297 3.59966 7.29283L2.76439 3.1196C2.76101 3.1058 2.75819 3.09177 2.75598 3.07754L2.34016 1H0.75C0.473858 1 0.25 0.776142 0.25 0.5ZM3.86036 3.5L4.58042 7.09759C4.60328 7.21269 4.6659 7.31608 4.75731 7.38967C4.84872 7.46325 4.96309 7.50234 5.08042 7.50009L5.09 7.5H9.95L9.95958 7.50009C10.0769 7.50234 10.1913 7.46325 10.2827 7.38967C10.3737 7.31642 10.4361 7.21365 10.4593 7.0992L11.1456 3.5H3.86036Z" fill="#3BB77E"/>
</g>
<defs>
<clipPath id="clip0_203_428">
<rect width="12" height="12" fill="white" transform="translate(0.25)"/>
</clipPath>
</defs>
</svg>
