<svg width="12" height="13" viewBox="0 0 12 13" fill="none" xmlns="http://www.w3.org/2000/svg">
<g clip-path="url(#clip0_203_497)">
<path fill-rule="evenodd" clip-rule="evenodd" d="M3.5 11C3.5 10.4477 3.94772 10 4.5 10C5.05228 10 5.5 10.4477 5.5 11C5.5 11.5523 5.05228 12 4.5 12C3.94772 12 3.5 11.5523 3.5 11Z" fill="#3BB77E"/>
<path fill-rule="evenodd" clip-rule="evenodd" d="M9 11C9 10.4477 9.44772 10 10 10C10.5523 10 11 10.4477 11 11C11 11.5523 10.5523 12 10 12C9.44772 12 9 11.5523 9 11Z" fill="#3BB77E"/>
<path fill-rule="evenodd" clip-rule="evenodd" d="M0 1C0 0.723858 0.223858 0.5 0.5 0.5H2.5C2.73831 0.5 2.94351 0.668193 2.99028 0.901872L3.41022 3H11.5C11.649 3 11.7903 3.06646 11.8852 3.18128C11.9802 3.29609 12.0191 3.44729 11.9911 3.59366L11.1904 7.79241C11.1219 8.13771 10.934 8.44788 10.6598 8.66863C10.3869 8.88829 10.0458 9.00548 9.69568 9H4.84432C4.49419 9.00548 4.1531 8.88829 3.88024 8.66863C3.60612 8.44797 3.41832 8.13796 3.34966 7.79283C3.34964 7.79269 3.34969 7.79297 3.34966 7.79283L2.51439 3.6196C2.51101 3.6058 2.50819 3.59177 2.50598 3.57754L2.09016 1.5H0.5C0.223858 1.5 0 1.27614 0 1ZM3.61036 4L4.33042 7.59759C4.35328 7.71269 4.4159 7.81608 4.50731 7.88967C4.59872 7.96325 4.71309 8.00234 4.83042 8.00009L4.84 8H9.7L9.70958 8.00009C9.82691 8.00234 9.94129 7.96325 10.0327 7.88967C10.1237 7.81642 10.1861 7.71365 10.2093 7.5992L10.8956 4H3.61036Z" fill="#3BB77E"/>
</g>
<defs>
<clipPath id="clip0_203_497">
<rect width="12" height="12" fill="white" transform="translate(0 0.5)"/>
</clipPath>
</defs>
</svg>
