<svg width="13" height="12" viewBox="0 0 13 12" fill="none" xmlns="http://www.w3.org/2000/svg">
<g clip-path="url(#clip0_203_451)">
<path fill-rule="evenodd" clip-rule="evenodd" d="M4 10.5C4 9.94772 4.44772 9.5 5 9.5C5.55228 9.5 6 9.94772 6 10.5C6 11.0523 5.55228 11.5 5 11.5C4.44772 11.5 4 11.0523 4 10.5Z" fill="#3BB77E"/>
<path fill-rule="evenodd" clip-rule="evenodd" d="M9.5 10.5C9.5 9.94772 9.94772 9.5 10.5 9.5C11.0523 9.5 11.5 9.94772 11.5 10.5C11.5 11.0523 11.0523 11.5 10.5 11.5C9.94772 11.5 9.5 11.0523 9.5 10.5Z" fill="#3BB77E"/>
<path fill-rule="evenodd" clip-rule="evenodd" d="M0.5 0.5C0.5 0.223858 0.723858 0 1 0H3C3.23831 0 3.44351 0.168193 3.49028 0.401872L3.91022 2.5H12C12.149 2.5 12.2903 2.56646 12.3852 2.68128C12.4802 2.79609 12.5191 2.94729 12.4911 3.09366L11.6904 7.29241C11.6219 7.63771 11.434 7.94788 11.1598 8.16863C10.8869 8.38829 10.5458 8.50548 10.1957 8.5H5.34432C4.99419 8.50548 4.6531 8.38829 4.38024 8.16863C4.10612 7.94797 3.91832 7.63796 3.84966 7.29283C3.84964 7.29269 3.84969 7.29297 3.84966 7.29283L3.01439 3.1196C3.01101 3.1058 3.00819 3.09177 3.00598 3.07754L2.59016 1H1C0.723858 1 0.5 0.776142 0.5 0.5ZM4.11036 3.5L4.83042 7.09759C4.85328 7.21269 4.9159 7.31608 5.00731 7.38967C5.09872 7.46325 5.21309 7.50234 5.33042 7.50009L5.34 7.5H10.2L10.2096 7.50009C10.3269 7.50234 10.4413 7.46325 10.5327 7.38967C10.6237 7.31642 10.6861 7.21365 10.7093 7.0992L11.3956 3.5H4.11036Z" fill="#3BB77E"/>
</g>
<defs>
<clipPath id="clip0_203_451">
<rect width="12" height="12" fill="white" transform="translate(0.5)"/>
</clipPath>
</defs>
</svg>
