<svg width="13" height="13" viewBox="0 0 13 13" fill="none" xmlns="http://www.w3.org/2000/svg">
<g clip-path="url(#clip0_92_1342)">
<path fill-rule="evenodd" clip-rule="evenodd" d="M3.75 11C3.75 10.4477 4.19772 10 4.75 10C5.30228 10 5.75 10.4477 5.75 11C5.75 11.5523 5.30228 12 4.75 12C4.19772 12 3.75 11.5523 3.75 11Z" fill="#3BB77E"/>
<path fill-rule="evenodd" clip-rule="evenodd" d="M9.25 11C9.25 10.4477 9.69772 10 10.25 10C10.8023 10 11.25 10.4477 11.25 11C11.25 11.5523 10.8023 12 10.25 12C9.69772 12 9.25 11.5523 9.25 11Z" fill="#3BB77E"/>
<path fill-rule="evenodd" clip-rule="evenodd" d="M0.25 1.00003C0.25 0.723888 0.473858 0.500031 0.75 0.500031H2.75C2.98831 0.500031 3.19351 0.668223 3.24028 0.901902L3.66022 3.00003H11.75C11.899 3.00003 12.0403 3.06649 12.1352 3.18131C12.2302 3.29612 12.2691 3.44732 12.2411 3.59369L11.4404 7.79244C11.3719 8.13774 11.184 8.44791 10.9098 8.66866C10.6369 8.88832 10.2958 9.00551 9.94568 9.00003H5.09432C4.74419 9.00551 4.4031 8.88832 4.13024 8.66866C3.85612 8.448 3.66832 8.13799 3.59966 7.79286C3.59964 7.79272 3.59969 7.793 3.59966 7.79286L2.76439 3.61963C2.76101 3.60583 2.75819 3.5918 2.75598 3.57757L2.34016 1.50003H0.75C0.473858 1.50003 0.25 1.27617 0.25 1.00003ZM3.86036 4.00003L4.58042 7.59762C4.60328 7.71272 4.6659 7.81611 4.75731 7.8897C4.84872 7.96328 4.96309 8.00237 5.08042 8.00012L5.09 8.00003H9.95L9.95958 8.00012C10.0769 8.00237 10.1913 7.96328 10.2827 7.8897C10.3737 7.81646 10.4361 7.71368 10.4593 7.59923L11.1456 4.00003H3.86036Z" fill="#3BB77E"/>
</g>
<defs>
<clipPath id="clip0_92_1342">
<rect width="12" height="12" fill="white" transform="translate(0.25 0.500031)"/>
</clipPath>
</defs>
</svg>
