<svg width="495" height="610" viewBox="0 0 495 610" fill="none" xmlns="http://www.w3.org/2000/svg">
<g opacity="0.7" filter="url(#filter0_d_1_233)">
<mask id="mask0_1_233" style="mask-type:alpha" maskUnits="userSpaceOnUse" x="26" y="24" width="548" height="1123">
<path d="M552.716 24.7773H46.8866C35.5611 24.7773 26.38 33.9585 26.38 45.2839V1126.39C26.38 1137.72 35.5611 1146.9 46.8866 1146.9H552.716C564.041 1146.9 573.222 1137.72 573.222 1126.39V45.2839C573.222 33.9585 564.041 24.7773 552.716 24.7773Z" fill="white"/>
</mask>
<g mask="url(#mask0_1_233)">
<g filter="url(#filter1_d_1_233)">
<path d="M552.716 24.7773H46.8866C35.5611 24.7773 26.38 33.9585 26.38 45.2839V1126.39C26.38 1137.72 35.5611 1146.9 46.8866 1146.9H552.716C564.041 1146.9 573.222 1137.72 573.222 1126.39V45.2839C573.222 33.9585 564.041 24.7773 552.716 24.7773Z" fill="black"/>
</g>
<path d="M552.716 24.7773H46.8866C35.5611 24.7773 26.38 33.9585 26.38 45.2839V1126.39C26.38 1137.72 35.5611 1146.9 46.8866 1146.9H552.716C564.041 1146.9 573.222 1137.72 573.222 1126.39V45.2839C573.222 33.9585 564.041 24.7773 552.716 24.7773Z" fill="white"/>
<path d="M121.577 177.971H175.427" stroke="#E0E7F2" stroke-width="3.45439" stroke-linecap="round"/>
<path d="M188.386 142.182H64.3215C58.6588 142.182 54.0682 146.772 54.0682 152.435V204.727C54.0682 210.39 58.6588 214.98 64.3215 214.98H188.386C194.049 214.98 198.64 210.39 198.64 204.727V152.435C198.64 146.772 194.049 142.182 188.386 142.182Z" stroke="#E0E7F2" stroke-width="1.20904"/>
<path d="M91.6222 165.56H79.2584C75.4833 165.56 72.4229 168.62 72.4229 172.396V184.759C72.4229 188.534 75.4833 191.595 79.2584 191.595H91.6222C95.3974 191.595 98.4577 188.534 98.4577 184.759V172.396C98.4577 168.62 95.3974 165.56 91.6222 165.56Z" fill="#E0E7F2"/>
<path d="M293.818 177.971H519.39" stroke="#E0E7F2" stroke-width="3.45439" stroke-linecap="round"/>
<path d="M258.044 165.56H245.681C241.906 165.56 238.845 168.62 238.845 172.396V184.759C238.845 188.534 241.906 191.595 245.681 191.595H258.044C261.82 191.595 264.88 188.534 264.88 184.759V172.396C264.88 168.62 261.82 165.56 258.044 165.56Z" fill="#E0E7F2"/>
<path d="M535.29 142.182H230.083C224.421 142.182 219.83 146.772 219.83 152.435V204.727C219.83 210.39 224.421 214.98 230.083 214.98H535.29C540.952 214.98 545.543 210.39 545.543 204.727V152.435C545.543 146.772 540.952 142.182 535.29 142.182Z" stroke="#E0E7F2" stroke-width="1.20904"/>
<path d="M57.7462 284.25H485.553" stroke="#E0E7F2" stroke-width="3.45439" stroke-linecap="round"/>
<path d="M60.3212 258.259H301.859" stroke="#E0E7F2" stroke-width="6.90878" stroke-linecap="round"/>
<path d="M191.552 328.763H72.1759C64.6256 328.763 58.5048 334.884 58.5048 342.434V452.828C58.5048 460.378 64.6256 466.499 72.1759 466.499H191.552C199.103 466.499 205.223 460.378 205.223 452.828V342.434C205.223 334.884 199.103 328.763 191.552 328.763Z" stroke="#E0E7F2" stroke-width="1.20904"/>
<path d="M101.782 436.343H162.328" stroke="#E0E7F2" stroke-width="3.45439" stroke-linecap="round"/>
<path d="M154.008 384.916C154.008 372.684 144.092 362.768 131.86 362.768C119.628 362.768 109.712 372.684 109.712 384.916C109.712 397.148 119.628 407.064 131.86 407.064C144.092 407.064 154.008 397.148 154.008 384.916Z" fill="#E0E7F2"/>
<path d="M191.552 485.986H72.1758C64.6255 485.986 58.5048 492.107 58.5048 499.657V610.051C58.5048 617.601 64.6255 623.722 72.1758 623.722H191.552C199.103 623.722 205.223 617.601 205.223 610.051V499.657C205.223 492.107 199.103 485.986 191.552 485.986Z" stroke="#E0E7F2" stroke-width="1.20904"/>
<path d="M101.788 593.566H162.333" stroke="#E0E7F2" stroke-width="3.45439" stroke-linecap="round"/>
<path d="M154.012 542.134C154.012 529.902 144.096 519.986 131.864 519.986C119.632 519.986 109.716 529.902 109.716 542.134C109.716 554.366 119.632 564.282 131.864 564.282C144.096 564.282 154.012 554.366 154.012 542.134Z" fill="#E0E7F2"/>
<path d="M361.132 328.763H241.756C234.206 328.763 228.085 334.884 228.085 342.434V452.828C228.085 460.378 234.206 466.499 241.756 466.499H361.132C368.683 466.499 374.803 460.378 374.803 452.828V342.434C374.803 334.884 368.683 328.763 361.132 328.763Z" stroke="#E0E7F2" stroke-width="1.20904"/>
<path d="M261.121 436.343H341.439" stroke="#E0E7F2" stroke-width="3.45439" stroke-linecap="round"/>
<path d="M323.592 384.916C323.592 372.684 313.676 362.768 301.444 362.768C289.212 362.768 279.296 372.684 279.296 384.916C279.296 397.148 289.212 407.064 301.444 407.064C313.676 407.064 323.592 397.148 323.592 384.916Z" fill="#E0E7F2"/>
<path d="M530.721 485.986H411.344C403.794 485.986 397.673 492.107 397.673 499.657V610.051C397.673 617.601 403.794 623.722 411.344 623.722H530.721C538.271 623.722 544.392 617.601 544.392 610.051V499.657C544.392 492.107 538.271 485.986 530.721 485.986Z" stroke="#E0E7F2" stroke-width="1.20904"/>
<path d="M430.706 593.566H511.023" stroke="#E0E7F2" stroke-width="3.45439" stroke-linecap="round"/>
<path d="M493.18 542.134C493.18 529.902 483.264 519.986 471.032 519.986C458.8 519.986 448.884 529.902 448.884 542.134C448.884 554.366 458.8 564.282 471.032 564.282C483.264 564.282 493.18 554.366 493.18 542.134Z" fill="#E0E7F2"/>
<path d="M440.869 443.35H500.767" stroke="#E0E7F2" stroke-width="3.45439" stroke-linecap="round"/>
<path d="M430.706 429.351H511.023" stroke="#E0E7F2" stroke-width="3.45439" stroke-linecap="round"/>
<path d="M493.18 384.916C493.18 372.684 483.264 362.768 471.032 362.768C458.8 362.768 448.884 372.684 448.884 384.916C448.884 397.148 458.8 407.064 471.032 407.064C483.264 407.064 493.18 397.148 493.18 384.916Z" fill="#E0E7F2"/>
<path d="M530.721 328.763H411.344C403.794 328.763 397.673 334.884 397.673 342.434V452.828C397.673 460.378 403.794 466.499 411.344 466.499H530.721C538.271 466.499 544.392 460.378 544.392 452.828V342.434C544.392 334.884 538.271 328.763 530.721 328.763Z" stroke="#E0E7F2" stroke-width="1.20904"/>
<path d="M271.284 600.574H331.183" stroke="#E0E7F2" stroke-width="3.45439" stroke-linecap="round"/>
<path d="M261.121 586.575H341.439" stroke="#E0E7F2" stroke-width="3.45439" stroke-linecap="round"/>
<path d="M323.592 542.134C323.592 529.902 313.676 519.986 301.444 519.986C289.212 519.986 279.296 529.902 279.296 542.134C279.296 554.366 289.212 564.282 301.444 564.282C313.676 564.282 323.592 554.366 323.592 542.134Z" fill="#E0E7F2"/>
<path d="M361.132 485.986H241.756C234.206 485.986 228.085 492.107 228.085 499.657V610.051C228.085 617.601 234.206 623.722 241.756 623.722H361.132C368.683 623.722 374.803 617.601 374.803 610.051V499.657C374.803 492.107 368.683 485.986 361.132 485.986Z" stroke="#E0E7F2" stroke-width="1.20904"/>
<path d="M71.6652 89.1059C82.0469 89.1059 90.4629 80.6899 90.4629 70.3082C90.4629 59.9265 82.0469 51.5105 71.6652 51.5105C61.2835 51.5105 52.8675 59.9265 52.8675 70.3082C52.8675 80.6899 61.2835 89.1059 71.6652 89.1059Z" fill="#457EFF"/>
<path fill-rule="evenodd" clip-rule="evenodd" d="M66.9476 59.6308C66.6627 61.1405 65.0384 69.6449 64.7047 71.379C64.371 73.1132 65.8012 74.6676 67.2054 74.6676C68.6097 74.6676 68.7953 74.6676 69.3716 74.6676C69.948 74.6676 70.806 75.0725 70.4831 76.5469C70.1601 78.0214 69.8261 79.5382 69.4978 80.9708C69.1695 82.4035 70.8148 82.9812 71.5282 81.8643C72.2415 80.7474 77.5679 72.2226 78.1808 71.0762C78.7937 69.9297 77.7898 68.1569 76.2786 68.1569C74.7674 68.1569 74.1421 68.1569 73.3495 68.1569C72.5568 68.1569 72.4455 67.5909 72.7332 66.4251C73.0209 65.2594 73.3668 63.7344 73.9017 61.4996C74.4366 59.2647 72.2812 58.0508 71.1455 58.0508C70.0097 58.0508 68.7886 58.0508 68.4519 58.0508C68.1153 58.0508 67.2326 58.1211 66.9476 59.6308Z" fill="white"/>
<path d="M26.38 114.485H573.222" stroke="#E0E7F2" stroke-width="1.20904"/>
</g>
</g>
<defs>
<filter id="filter0_d_1_233" x="0.160875" y="0.743142" width="599.28" height="1174.56" filterUnits="userSpaceOnUse" color-interpolation-filters="sRGB">
<feFlood flood-opacity="0" result="BackgroundImageFix"/>
<feColorMatrix in="SourceAlpha" type="matrix" values="0 0 0 0 0 0 0 0 0 0 0 0 0 0 0 0 0 0 127 0" result="hardAlpha"/>
<feOffset dy="2.18493"/>
<feGaussianBlur stdDeviation="13.1096"/>
<feComposite in2="hardAlpha" operator="out"/>
<feColorMatrix type="matrix" values="0 0 0 0 0 0 0 0 0 0 0 0 0 0 0 0 0 0 0.04 0"/>
<feBlend mode="normal" in2="BackgroundImageFix" result="effect1_dropShadow_1_233"/>
<feBlend mode="normal" in="SourceGraphic" in2="effect1_dropShadow_1_233" result="shape"/>
</filter>
<filter id="filter1_d_1_233" x="-14.2846" y="-15.8872" width="628.171" height="1203.45" filterUnits="userSpaceOnUse" color-interpolation-filters="sRGB">
<feFlood flood-opacity="0" result="BackgroundImageFix"/>
<feColorMatrix in="SourceAlpha" type="matrix" values="0 0 0 0 0 0 0 0 0 0 0 0 0 0 0 0 0 0 127 0" result="hardAlpha"/>
<feOffset/>
<feGaussianBlur stdDeviation="20.3323"/>
<feColorMatrix type="matrix" values="0 0 0 0 0 0 0 0 0 0 0 0 0 0 0 0 0 0 0.2 0"/>
<feBlend mode="normal" in2="BackgroundImageFix" result="effect1_dropShadow_1_233"/>
<feBlend mode="normal" in="SourceGraphic" in2="effect1_dropShadow_1_233" result="shape"/>
</filter>
</defs>
</svg>
