<svg width="19" height="16" viewBox="0 0 19 16" fill="none" xmlns="http://www.w3.org/2000/svg">
<path d="M16.8377 4.10436C16.8497 4.27093 16.8497 4.43754 16.8497 4.60411C16.8497 9.68479 12.9826 15.5389 5.91483 15.5389C3.73738 15.5389 1.71463 14.9083 0.0131226 13.8136C0.322498 13.8493 0.619933 13.8612 0.941211 13.8612C2.73787 13.8612 4.3918 13.2544 5.71255 12.2192C4.02295 12.1835 2.60701 11.077 2.11916 9.55393C2.35715 9.5896 2.59511 9.61341 2.845 9.61341C3.19005 9.61341 3.53513 9.56579 3.85638 9.48254C2.09539 9.12556 0.774602 7.57875 0.774602 5.71067V5.6631C1.28622 5.94867 1.8812 6.12714 2.51178 6.15091C1.4766 5.46078 0.798409 4.28283 0.798409 2.95018C0.798409 2.23628 0.988751 1.58185 1.32193 1.01072C3.21382 3.34284 6.0576 4.86584 9.24639 5.03244C9.18691 4.74688 9.15121 4.44944 9.15121 4.15197C9.15121 2.03399 10.8646 0.308716 12.9945 0.308716C14.101 0.308716 15.1005 0.77276 15.8025 1.52237C16.6711 1.3558 17.504 1.03452 18.2417 0.594284C17.9561 1.4867 17.3493 2.23631 16.5521 2.71222C17.3256 2.62897 18.0752 2.41475 18.7653 2.11732C18.2418 2.8788 17.5874 3.55699 16.8377 4.10436Z" fill="black"/>
</svg>
