<svg width="7" height="11" viewBox="0 0 7 11" fill="none" xmlns="http://www.w3.org/2000/svg">
<path d="M6.0862 5.15559C6.08656 5.32584 6.0218 5.49083 5.90316 5.62191L1.92393 9.99368C1.78884 10.1425 1.59472 10.2361 1.38428 10.2538C1.17384 10.2716 0.964308 10.2121 0.801783 10.0884C0.639258 9.96472 0.537052 9.787 0.51765 9.59434C0.498247 9.40167 0.563237 9.20983 0.698323 9.06104L4.26371 5.15559L0.825659 1.25015C0.759551 1.17562 0.710183 1.08986 0.680393 0.99781C0.650603 0.905756 0.640979 0.80922 0.652072 0.713749C0.663165 0.618278 0.694758 0.525755 0.745035 0.441499C0.795311 0.357243 0.863281 0.282914 0.945035 0.222786C1.02687 0.156058 1.12287 0.105522 1.22702 0.0743416C1.33118 0.0431617 1.44124 0.0320117 1.55032 0.0415881C1.6594 0.0511645 1.76515 0.081261 1.86094 0.129994C1.95672 0.178727 2.04048 0.245046 2.10697 0.324795L5.95091 4.69656C6.0508 4.83142 6.09843 4.99304 6.0862 5.15559V5.15559Z" fill="#45B175"/>
</svg>
