<svg width="18" height="17" viewBox="0 0 18 17" fill="none" xmlns="http://www.w3.org/2000/svg">
<path d="M8.96771 4.55724C6.63833 4.55724 4.75945 6.43613 4.75945 8.76551C4.75945 11.0949 6.63833 12.9738 8.96771 12.9738C11.2971 12.9738 13.176 11.0949 13.176 8.76551C13.176 6.43613 11.2971 4.55724 8.96771 4.55724ZM8.96771 11.5014C7.4624 11.5014 6.23179 10.2745 6.23179 8.76551C6.23179 7.25654 7.45874 6.02959 8.96771 6.02959C10.4767 6.02959 11.7036 7.25654 11.7036 8.76551C11.7036 10.2745 10.473 11.5014 8.96771 11.5014ZM14.3297 4.3851C14.3297 4.93082 13.8902 5.36667 13.3481 5.36667C12.8024 5.36667 12.3665 4.92716 12.3665 4.3851C12.3665 3.84305 12.8061 3.40354 13.3481 3.40354C13.8902 3.40354 14.3297 3.84305 14.3297 4.3851ZM17.1169 5.38132C17.0546 4.06646 16.7543 2.90177 15.791 1.94219C14.8314 0.982602 13.6668 0.682273 12.3519 0.616347C10.9968 0.539434 6.935 0.539434 5.57986 0.616347C4.26867 0.678611 3.10398 0.978939 2.14073 1.93853C1.17748 2.89811 0.880813 4.0628 0.814887 5.37765C0.737974 6.73279 0.737974 10.7946 0.814887 12.1497C0.87715 13.4645 1.17748 14.6292 2.14073 15.5888C3.10398 16.5484 4.265 16.8487 5.57986 16.9147C6.935 16.9916 10.9968 16.9916 12.3519 16.9147C13.6668 16.8524 14.8314 16.5521 15.791 15.5888C16.7506 14.6292 17.0509 13.4645 17.1169 12.1497C17.1938 10.7946 17.1938 6.73646 17.1169 5.38132ZM15.3662 13.6037C15.0805 14.3216 14.5275 14.8746 13.8059 15.164C12.7255 15.5925 10.1617 15.4936 8.96771 15.4936C7.77372 15.4936 5.20628 15.5888 4.12949 15.164C3.41163 14.8783 2.85859 14.3252 2.56925 13.6037C2.14073 12.5233 2.23962 9.9595 2.23962 8.76551C2.23962 7.57152 2.14439 5.00407 2.56925 3.92729C2.85492 3.20943 3.40797 2.65638 4.12949 2.36704C5.20994 1.93853 7.77372 2.03741 8.96771 2.03741C10.1617 2.03741 12.7291 1.94219 13.8059 2.36704C14.5238 2.65272 15.0768 3.20577 15.3662 3.92729C15.7947 5.00774 15.6958 7.57152 15.6958 8.76551C15.6958 9.9595 15.7947 12.5269 15.3662 13.6037Z" fill="black"/>
</svg>
