<svg width="20" height="20" viewBox="0 0 20 20" fill="none" xmlns="http://www.w3.org/2000/svg">
<path d="M9.99725 4.86894C7.15789 4.86894 4.86638 7.16045 4.86638 9.99981C4.86638 12.8392 7.15789 15.1307 9.99725 15.1307C12.8366 15.1307 15.1281 12.8392 15.1281 9.99981C15.1281 7.16045 12.8366 4.86894 9.99725 4.86894ZM9.99725 13.3345C8.16104 13.3345 6.66256 11.836 6.66256 9.99981C6.66256 8.16361 8.16104 6.66512 9.99725 6.66512C11.8335 6.66512 13.3319 8.16361 13.3319 9.99981C13.3319 11.836 11.8335 13.3345 9.99725 13.3345ZM15.3383 3.46302C14.6753 3.46302 14.14 3.99837 14.14 4.66131C14.14 5.32424 14.6753 5.85959 15.3383 5.85959C16.0012 5.85959 16.5365 5.32674 16.5365 4.66131C16.5367 4.50389 16.5059 4.34798 16.4457 4.20251C16.3856 4.05704 16.2973 3.92486 16.186 3.81355C16.0747 3.70224 15.9425 3.61398 15.7971 3.55383C15.6516 3.49368 15.4957 3.46282 15.3383 3.46302V3.46302ZM19.9988 9.99981C19.9988 8.61891 20.0113 7.25051 19.9338 5.8721C19.8562 4.27105 19.491 2.85012 18.3202 1.67935C17.1469 0.506076 15.7285 0.143338 14.1275 0.0657868C12.7466 -0.0117642 11.3782 0.000744099 9.99975 0.000744099C8.61884 0.000744099 7.25045 -0.0117642 5.87204 0.0657868C4.27099 0.143338 2.85006 0.508578 1.67929 1.67935C0.506015 2.85262 0.143277 4.27105 0.0657258 5.8721C-0.0118252 7.25301 0.000683064 8.62141 0.000683064 9.99981C0.000683064 11.3782 -0.0118252 12.7491 0.0657258 14.1275C0.143277 15.7286 0.508517 17.1495 1.67929 18.3203C2.85256 19.4936 4.27099 19.8563 5.87204 19.9338C7.25295 20.0114 8.62135 19.9989 9.99975 19.9989C11.3807 19.9989 12.7491 20.0114 14.1275 19.9338C15.7285 19.8563 17.1495 19.4911 18.3202 18.3203C19.4935 17.147 19.8562 15.7286 19.9338 14.1275C20.0138 12.7491 19.9988 11.3807 19.9988 9.99981V9.99981ZM17.7974 15.8987C17.6148 16.354 17.3946 16.6942 17.0419 17.0444C16.6891 17.3972 16.3514 17.6173 15.8961 17.7999C14.5803 18.3228 11.4557 18.2052 9.99725 18.2052C8.53879 18.2052 5.41174 18.3228 4.09587 17.8024C3.64057 17.6198 3.30035 17.3997 2.95012 17.0469C2.59739 16.6942 2.37724 16.3565 2.19462 15.9012C1.67428 14.5828 1.79186 11.4583 1.79186 9.99981C1.79186 8.54136 1.67428 5.4143 2.19462 4.09844C2.37724 3.64314 2.59739 3.30291 2.95012 2.95268C3.30285 2.60245 3.64057 2.37981 4.09587 2.19719C5.41174 1.67685 8.53879 1.79442 9.99725 1.79442C11.4557 1.79442 14.5828 1.67685 15.8986 2.19719C16.3539 2.37981 16.6942 2.59995 17.0444 2.95268C17.3971 3.30542 17.6173 3.64314 17.7999 4.09844C18.3202 5.4143 18.2026 8.54136 18.2026 9.99981C18.2026 11.4583 18.3202 14.5828 17.7974 15.8987Z" fill="#343A40"/>
</svg>
