<svg width="18" height="17" viewBox="0 0 18 17" fill="none" xmlns="http://www.w3.org/2000/svg">
<path d="M8.96771 4.06206C6.63833 4.06206 4.75945 5.94094 4.75945 8.27032C4.75945 10.5997 6.63833 12.4786 8.96771 12.4786C11.2971 12.4786 13.176 10.5997 13.176 8.27032C13.176 5.94094 11.2971 4.06206 8.96771 4.06206ZM8.96771 11.0062C7.4624 11.0062 6.23179 9.77929 6.23179 8.27032C6.23179 6.76135 7.45874 5.5344 8.96771 5.5344C10.4767 5.5344 11.7036 6.76135 11.7036 8.27032C11.7036 9.77929 10.473 11.0062 8.96771 11.0062ZM14.3297 3.88992C14.3297 4.43564 13.8902 4.87148 13.3481 4.87148C12.8024 4.87148 12.3665 4.43197 12.3665 3.88992C12.3665 3.34786 12.8061 2.90836 13.3481 2.90836C13.8902 2.90836 14.3297 3.34786 14.3297 3.88992ZM17.1169 4.88613C17.0546 3.57128 16.7543 2.40659 15.791 1.447C14.8314 0.487416 13.6668 0.187087 12.3519 0.121162C10.9968 0.0442482 6.935 0.0442482 5.57986 0.121162C4.26867 0.183425 3.10398 0.483753 2.14073 1.44334C1.17748 2.40293 0.880813 3.56761 0.814887 4.88247C0.737974 6.23761 0.737974 10.2994 0.814887 11.6545C0.87715 12.9694 1.17748 14.1341 2.14073 15.0936C3.10398 16.0532 4.265 16.3536 5.57986 16.4195C6.935 16.4964 10.9968 16.4964 12.3519 16.4195C13.6668 16.3572 14.8314 16.0569 15.791 15.0936C16.7506 14.1341 17.0509 12.9694 17.1169 11.6545C17.1938 10.2994 17.1938 6.24127 17.1169 4.88613ZM15.3662 13.1085C15.0805 13.8264 14.5275 14.3794 13.8059 14.6688C12.7255 15.0973 10.1617 14.9984 8.96771 14.9984C7.77372 14.9984 5.20628 15.0936 4.12949 14.6688C3.41163 14.3831 2.85859 13.8301 2.56925 13.1085C2.14073 12.0281 2.23962 9.46431 2.23962 8.27032C2.23962 7.07633 2.14439 4.50889 2.56925 3.4321C2.85492 2.71424 3.40797 2.1612 4.12949 1.87186C5.20994 1.44334 7.77372 1.54223 8.96771 1.54223C10.1617 1.54223 12.7291 1.447 13.8059 1.87186C14.5238 2.15754 15.0768 2.71058 15.3662 3.4321C15.7947 4.51255 15.6958 7.07633 15.6958 8.27032C15.6958 9.46431 15.7947 12.0318 15.3662 13.1085Z" fill="black"/>
</svg>
