<svg width="19" height="17" viewBox="0 0 19 17" fill="none" xmlns="http://www.w3.org/2000/svg">
<path d="M16.8377 4.60912C16.8497 4.77569 16.8497 4.9423 16.8497 5.10887C16.8497 10.1896 12.9826 16.0437 5.91483 16.0437C3.73738 16.0437 1.71463 15.413 0.0131226 14.3184C0.322498 14.3541 0.619933 14.366 0.941211 14.366C2.73787 14.366 4.3918 13.7592 5.71255 12.724C4.02295 12.6883 2.60701 11.5817 2.11916 10.0587C2.35715 10.0944 2.59511 10.1182 2.845 10.1182C3.19005 10.1182 3.53513 10.0706 3.85638 9.9873C2.09539 9.63032 0.774602 8.08352 0.774602 6.21544V6.16786C1.28622 6.45343 1.8812 6.6319 2.51178 6.65567C1.4766 5.96554 0.798409 4.78759 0.798409 3.45494C0.798409 2.74104 0.988751 2.08661 1.32193 1.51548C3.21382 3.8476 6.0576 5.3706 9.24639 5.53721C9.18691 5.25164 9.15121 4.9542 9.15121 4.65673C9.15121 2.53875 10.8646 0.813477 12.9945 0.813477C14.101 0.813477 15.1005 1.27752 15.8025 2.02713C16.6711 1.86056 17.504 1.53928 18.2417 1.09905C17.9561 1.99146 17.3493 2.74107 16.5521 3.21698C17.3256 3.13373 18.0752 2.91951 18.7653 2.62208C18.2418 3.38356 17.5874 4.06175 16.8377 4.60912Z" fill="black"/>
</svg>
