<svg width="25" height="20" viewBox="0 0 25 20" fill="none" xmlns="http://www.w3.org/2000/svg">
<path d="M24.9999 2.36906C24.3143 3.38888 23.4731 4.25824 22.4765 4.97712C22.4863 5.16992 22.4912 5.38783 22.4912 5.63085C22.4912 6.98116 22.2944 8.3331 21.9006 9.68667C21.5069 11.0403 20.9055 12.3359 20.0963 13.5735C19.2872 14.8112 18.3234 15.9076 17.2048 16.8629C16.0863 17.8181 14.7418 18.5798 13.1713 19.1479C11.6008 19.716 9.91765 20 8.12184 20C5.31917 20 2.7382 19.2434 0.378906 17.7301C0.797653 17.7767 1.19927 17.8 1.58375 17.8C3.92514 17.8 6.01639 17.0789 7.85748 15.6365C6.76579 15.6165 5.78809 15.2804 4.9244 14.6283C4.06071 13.9762 3.46634 13.143 3.14128 12.1286C3.46258 12.1898 3.77968 12.2204 4.0926 12.2204C4.54303 12.2204 4.98624 12.1616 5.42224 12.0441C4.2572 11.8108 3.2907 11.2305 2.52274 10.3033C1.75481 9.37614 1.37085 8.30599 1.37085 7.09287V7.03035C2.08595 7.4263 2.84872 7.63691 3.65916 7.66219C2.969 7.20209 2.42181 6.60209 2.01758 5.86221C1.61333 5.12233 1.41121 4.32166 1.41121 3.46018C1.41121 2.5516 1.63888 1.70555 2.09422 0.922019C3.36118 2.47678 4.89637 3.71939 6.69978 4.64986C8.50322 5.58033 10.438 6.09709 12.504 6.20013C12.4159 5.83289 12.3718 5.44966 12.3716 5.05044C12.3716 3.65649 12.8649 2.46626 13.8515 1.47976C14.8381 0.493253 16.0283 0 17.4223 0C18.8817 0 20.111 0.531406 21.1101 1.59422C22.2517 1.3681 23.3206 0.959106 24.3168 0.36724C23.933 1.57511 23.1934 2.50689 22.0981 3.1626C23.1048 3.04297 24.0721 2.77846 24.9999 2.36906H24.9999Z" fill="#343A40"/>
</svg>
