<svg width="21" height="20" viewBox="0 0 21 20" fill="none" xmlns="http://www.w3.org/2000/svg">
<path d="M4.03079 0C2.00781 0 0.378906 1.6289 0.378906 3.65188V16.3481C0.378906 18.3711 2.00781 20 4.03079 20H10.912V12.1813H8.84455V9.36626H10.912V6.96126C10.912 5.07176 12.1336 3.33688 14.9477 3.33688C16.087 3.33688 16.9295 3.44626 16.9295 3.44626L16.8633 6.07502C16.8633 6.07502 16.004 6.0669 15.0664 6.0669C14.0516 6.0669 13.8889 6.53446 13.8889 7.31066V9.36628H16.9439L16.8108 12.1813H13.8889V20H16.727C18.75 20 20.3789 18.3711 20.3789 16.3482V3.6519C20.3789 1.62892 18.75 2e-05 16.727 2e-05H4.03077L4.03079 0Z" fill="#343A40"/>
</svg>
