<svg width="14" height="11" viewBox="0 0 14 11" fill="none" xmlns="http://www.w3.org/2000/svg">
<path d="M0.875 6.28515H11.2525L8.07625 9.71056C8.00271 9.79 7.94732 9.88167 7.91323 9.98034C7.87915 10.079 7.86704 10.1827 7.87761 10.2856C7.89894 10.4933 8.01131 10.685 8.19 10.8183C8.36869 10.9517 8.59906 11.0158 8.83043 10.9967C9.06181 10.9775 9.27523 10.8766 9.42375 10.7162L13.7988 6.00232C13.8282 5.96483 13.8545 5.92544 13.8775 5.88447C13.8775 5.84519 13.9213 5.82162 13.9388 5.78234C13.9784 5.69226 13.9992 5.59637 14 5.49951C13.9992 5.40265 13.9784 5.30676 13.9388 5.21668C13.9388 5.1774 13.895 5.15383 13.8775 5.11454C13.8545 5.07358 13.8282 5.03419 13.7988 4.9967L9.42375 0.282833C9.34148 0.194148 9.23846 0.122827 9.12201 0.0739433C9.00556 0.0250597 8.87855 -0.00018594 8.75 1.50086e-06C8.54555 -0.000357156 8.34742 0.0635749 8.19 0.1807C8.1014 0.246654 8.02816 0.327654 7.97448 0.419061C7.92079 0.510469 7.88772 0.610488 7.87716 0.713389C7.86659 0.81629 7.87874 0.920052 7.9129 1.01873C7.94706 1.11741 8.00257 1.20907 8.07625 1.28846L11.2525 4.71387H0.875C0.642936 4.71387 0.420376 4.79664 0.256282 4.94398C0.0921874 5.09131 0 5.29114 0 5.49951C0 5.70787 0.0921874 5.90771 0.256282 6.05504C0.420376 6.20238 0.642936 6.28515 0.875 6.28515Z" fill="#F8F8F8"/>
</svg>
