<svg width="11" height="6" viewBox="0 0 11 6" fill="none" xmlns="http://www.w3.org/2000/svg">
<path d="M5.49137 5.99797C5.30811 5.99836 5.13051 5.92865 4.98939 5.80093L0.283345 1.51743C0.12317 1.37202 0.022441 1.16306 0.00331894 0.936524C-0.0158031 0.70999 0.0482477 0.484437 0.181381 0.309485C0.314514 0.134532 0.505824 0.0245113 0.713224 0.00362514C0.920625 -0.017261 1.12713 0.0526984 1.2873 0.198113L5.49137 4.03613L9.69544 0.335186C9.77567 0.264023 9.86799 0.210881 9.96708 0.178813C10.0662 0.146745 10.1701 0.136385 10.2729 0.148326C10.3756 0.160268 10.4752 0.194276 10.5659 0.248397C10.6566 0.302518 10.7366 0.375685 10.8014 0.463691C10.8732 0.551778 10.9276 0.655119 10.9612 0.767238C10.9947 0.879357 11.0067 0.99784 10.9964 1.11526C10.9861 1.23268 10.9537 1.34652 10.9013 1.44963C10.8488 1.55273 10.7774 1.6429 10.6916 1.71447L5.98551 5.85233C5.84034 5.95986 5.66636 6.01114 5.49137 5.99797V5.99797Z" fill="#45B175"/>
</svg>
